<svg width="25" height="25" viewBox="0 0 25 25" fill="none" xmlns="http://www.w3.org/2000/svg">
    <path d="M20.5 4.16699H4.5C3.4 4.16699 2.5 5.06699 2.5 6.16699V18.167C2.5 19.267 3.4 20.167 4.5 20.167H20.5C21.6 20.167 22.5 19.267 22.5 18.167V6.16699C22.5 5.06699 21.6 4.16699 20.5 4.16699ZM20.1 8.41699L13.56 12.507C12.91 12.917 12.09 12.917 11.44 12.507L4.9 8.41699C4.65 8.25699 4.5 7.98699 4.5 7.69699C4.5 7.02699 5.23 6.62699 5.8 6.97699L12.5 11.167L19.2 6.97699C19.77 6.62699 20.5 7.02699 20.5 7.69699C20.5 7.98699 20.35 8.25699 20.1 8.41699Z" fill="white"/>
</svg>
