<svg width="331" height="301" viewBox="0 0 331 301" fill="none" xmlns="http://www.w3.org/2000/svg">
    <g clip-path="url(#clip0_1184_24455)">
        <path d="M80.5922 150.109H174.789L174.789 27.4962L80.5922 27.4962L80.5922 150.109Z" fill="#F4F4F4"/>
        <path d="M80.5929 27.4962H77.5371V150.109H80.5929V27.4962Z" fill="#F4F4F4"/>
        <path opacity="0.05" d="M80.5929 27.4962H77.5371V150.109H80.5929V27.4962Z" fill="#292A2E"/>
        <path opacity="0.05" d="M97.7528 127.773L157.631 127.773V49.8312L97.7528 49.8312V127.773Z" fill="#292A2E"/>
        <path opacity="0.03" d="M97.7526 127.773H100.873L100.873 49.8312H97.7526L97.7526 127.773Z" fill="#292A2E"/>
        <path d="M3.5553 258.009H80.5928L80.5928 180.261H3.5553L3.5553 258.009Z" fill="#F4F4F4"/>
        <path opacity="0.05" d="M17.589 243.846H66.5596V194.424H17.589L17.589 243.846Z" fill="#292A2E"/>
        <path d="M3.55582 180.261H0.5V258.01H3.55582V180.261Z" fill="#F4F4F4"/>
        <path opacity="0.05" d="M3.55582 180.261H0.5V258.01H3.55582V180.261Z" fill="#292A2E"/>
        <path opacity="0.03" d="M17.5885 243.846H20.709L20.709 194.424H17.5885L17.5885 243.846Z" fill="#292A2E"/>
        <path d="M473.32 27.2042H276.746V223.785H473.32V27.2042Z" fill="#F4F4F4"/>
        <path d="M276.746 27.2042H274.493V223.785H276.746V27.2042Z" fill="#F4F4F4"/>
        <path opacity="0.05" d="M276.746 27.2042H274.493V223.785H276.746V27.2042Z" fill="#292A2E"/>
        <path opacity="0.05" d="M324.367 162.665V111.232H366.496V141.113H431.753V194.021H459.489V223.785H431.753H426.41H286.202V162.665H324.367Z" fill="#292A2E"/>
        <path opacity="0.34" d="M361.088 116.816H330.409V122.401H361.088V116.816Z" fill="#FFFFFA"/>
        <path opacity="0.34" d="M361.088 128.389H330.409V133.973H361.088V128.389Z" fill="#FFFFFA"/>
        <path opacity="0.34" d="M361.088 139.961H330.409V145.545H361.088V139.961Z" fill="#FFFFFA"/>
        <path opacity="0.34" d="M297.296 168.085H291.642V173.669H297.296V168.085Z" fill="#FFFFFA"/>
        <path opacity="0.34" d="M297.296 179.657H291.642V185.241H297.296V179.657Z" fill="#FFFFFA"/>
        <path opacity="0.34" d="M297.296 191.229H291.642V196.813H297.296V191.229Z" fill="#FFFFFA"/>
        <path opacity="0.34" d="M307.757 168.085H302.103V173.669H307.757V168.085Z" fill="#FFFFFA"/>
        <path opacity="0.34" d="M307.757 179.657H302.103V185.241H307.757V179.657Z" fill="#FFFFFA"/>
        <path opacity="0.34" d="M307.757 191.229H302.103V196.813H307.757V191.229Z" fill="#FFFFFA"/>
        <path opacity="0.34" d="M317.936 168.085H312.281V173.669H317.936V168.085Z" fill="#FFFFFA"/>
        <path opacity="0.34" d="M317.936 179.657H312.281V185.241H317.936V179.657Z" fill="#FFFFFA"/>
        <path opacity="0.34" d="M317.936 191.229H312.281V196.813H317.936V191.229Z" fill="#FFFFFA"/>
        <path d="M276.746 124.392H316.3V27.2036H319.571V124.392H426.41V27.2036H429.681V124.392H473.32V127.663H429.681V223.785H426.41V127.663H319.571V223.785H316.3V127.663H276.746V124.392Z" fill="white"/>
        <path d="M481.15 223.547H268.915V230.085H481.15V223.547Z" fill="#F4F4F4"/>
        <path opacity="0.1" d="M481.15 223.547H268.915V230.085H481.15V223.547Z" fill="#292A2E"/>
        <path opacity="0.1" d="M268.915 223.547H265.851V230.085H268.915V223.547Z" fill="#292A2E"/>
        <path opacity="0.1" d="M268.915 223.547H265.851V230.085H268.915V223.547Z" fill="#292A2E"/>
        <path d="M262.902 7.56366H74.6245C65.902 7.56366 58.8311 14.6349 58.8311 23.3577V251.93C58.8311 260.653 65.902 267.724 74.6245 267.724H262.902C271.624 267.724 278.695 260.653 278.695 251.93V23.3577C278.695 14.6349 271.624 7.56366 262.902 7.56366Z" fill="#292A2E"/>
        <path d="M269.862 0.604431H81.5845C72.862 0.604431 65.791 7.67566 65.791 16.3985V244.971C65.791 253.694 72.862 260.765 81.5845 260.765H269.862C278.584 260.765 285.655 253.694 285.655 244.971V16.3985C285.655 7.67566 278.584 0.604431 269.862 0.604431Z" fill="white"/>
        <path d="M269.861 261.37H81.5844C77.2368 261.365 73.0686 259.635 69.9944 256.561C66.9203 253.487 65.1912 249.318 65.1865 244.97V16.3985C65.1913 12.0508 66.9205 7.88256 69.9946 4.8083C73.0688 1.73403 77.2369 0.00479946 81.5844 0L269.861 0C274.209 0.00495941 278.377 1.73426 281.451 4.80851C284.525 7.88276 286.254 12.0509 286.259 16.3985V244.97C286.254 249.318 284.525 253.486 281.451 256.561C278.377 259.635 274.209 261.365 269.861 261.37ZM81.5844 1.20884C77.5574 1.21331 73.6966 2.81508 70.849 5.66272C68.0015 8.51035 66.3998 12.3713 66.3953 16.3985V244.97C66.3998 248.998 68.0015 252.859 70.849 255.706C73.6966 258.554 77.5574 260.156 81.5844 260.16H269.861C273.888 260.156 277.749 258.554 280.597 255.706C283.444 252.859 285.046 248.998 285.05 244.97V16.3985C285.046 12.3713 283.444 8.51041 280.597 5.66276C277.749 2.8151 273.888 1.21332 269.861 1.20884H81.5844Z" fill="#292A2E"/>
        <path d="M63.2543 293.471C84.9102 293.471 102.466 275.915 102.466 254.259C102.466 232.602 84.9102 215.046 63.2543 215.046C41.5985 215.046 24.043 232.602 24.043 254.259C24.043 275.915 41.5985 293.471 63.2543 293.471Z" fill="#1E1B4D"/>
        <path d="M55.1147 249.141C54.5985 249.141 54.1034 248.936 53.7384 248.571C53.3733 248.206 53.1681 247.711 53.168 247.195V237.771C53.168 232.561 57.6931 228.321 63.2547 228.321C68.8164 228.321 73.3415 232.561 73.3415 237.771V246.548C73.346 246.806 73.2991 247.063 73.2033 247.303C73.1075 247.544 72.9649 247.762 72.7837 247.947C72.6025 248.131 72.3864 248.278 72.1479 248.378C71.9095 248.478 71.6536 248.529 71.395 248.529C71.1365 248.529 70.8805 248.478 70.6421 248.378C70.4037 248.278 70.1876 248.131 70.0064 247.947C69.8252 247.762 69.6825 247.544 69.5868 247.303C69.491 247.063 69.444 246.806 69.4486 246.548V237.771C69.4486 234.707 66.6684 232.214 63.2547 232.214C59.8411 232.214 57.0609 234.707 57.0609 237.771V247.196C57.0606 247.712 56.8554 248.207 56.4904 248.571C56.1255 248.936 55.6307 249.141 55.1147 249.141Z" fill="white"/>
        <path d="M75.6722 245.566H50.8363C49.388 245.566 48.2139 246.74 48.2139 248.188V271.583C48.2139 273.031 49.388 274.206 50.8363 274.206H75.6722C77.1205 274.206 78.2946 273.031 78.2946 271.583V248.188C78.2946 246.74 77.1205 245.566 75.6722 245.566Z" fill="white"/>
        <path d="M60.7813 257.57C60.7811 258.033 60.9113 258.488 61.1571 258.882C61.4029 259.275 61.7544 259.592 62.1715 259.795V263.594C62.1715 263.881 62.2852 264.155 62.4876 264.358C62.6901 264.56 62.9646 264.674 63.2509 264.674C63.5372 264.674 63.8118 264.56 64.0142 264.358C64.2166 264.155 64.3304 263.881 64.3304 263.594V259.795C64.7276 259.602 65.0659 259.307 65.3103 258.939C65.5546 258.571 65.6961 258.145 65.7199 257.704C65.7437 257.263 65.649 256.824 65.4457 256.432C65.2424 256.04 64.9378 255.709 64.5636 255.475C64.1895 255.241 63.7594 255.111 63.318 255.099C62.8767 255.087 62.4402 255.193 62.0538 255.407C61.6675 255.621 61.3455 255.934 61.1212 256.314C60.8969 256.695 60.7785 257.128 60.7783 257.57H60.7813Z" fill="#292A2E"/>
        <path d="M253.42 130.417H98.0252C94.3157 130.417 91.3086 133.424 91.3086 137.134V158.92C91.3086 162.629 94.3157 165.636 98.0252 165.636H253.42C257.129 165.636 260.136 162.629 260.136 158.92V137.134C260.136 133.424 257.129 130.417 253.42 130.417Z" fill="white"/>
        <path d="M253.419 166.24H98.0251C96.0842 166.238 94.2233 165.466 92.8509 164.093C91.4784 162.721 90.7063 160.86 90.7041 158.919V137.134C90.7063 135.193 91.4784 133.332 92.8508 131.959C94.2233 130.587 96.0841 129.814 98.0251 129.812H253.419C255.36 129.814 257.221 130.586 258.594 131.959C259.966 133.332 260.738 135.193 260.741 137.134V158.919C260.738 160.86 259.966 162.721 258.594 164.094C257.221 165.466 255.36 166.238 253.419 166.24ZM98.0251 131.021C96.4045 131.023 94.8508 131.667 93.7049 132.813C92.559 133.959 91.9145 135.513 91.9129 137.134V158.919C91.9147 160.54 92.5592 162.093 93.7051 163.239C94.851 164.385 96.4046 165.03 98.0251 165.031H253.419C255.039 165.03 256.593 164.385 257.739 163.239C258.885 162.093 259.53 160.54 259.532 158.919V137.134C259.53 135.513 258.885 133.959 257.739 132.813C256.593 131.667 255.04 131.023 253.419 131.021H98.0251Z" fill="#7F7CA1"/>
        <path d="M253.42 180.749H98.0252C94.3157 180.749 91.3086 183.757 91.3086 187.466V209.252C91.3086 212.961 94.3157 215.969 98.0252 215.969H253.42C257.129 215.969 260.136 212.961 260.136 209.252V187.466C260.136 183.757 257.129 180.749 253.42 180.749Z" fill="white"/>
        <path d="M253.419 216.572H98.0251C96.0839 216.57 94.2228 215.798 92.8502 214.425C91.4777 213.052 90.7059 211.191 90.7041 209.249V187.466C90.7063 185.525 91.4784 183.664 92.8509 182.292C94.2233 180.919 96.0842 180.147 98.0251 180.145H253.419C255.36 180.147 257.221 180.919 258.594 182.291C259.966 183.664 260.738 185.525 260.741 187.466V209.249C260.739 211.191 259.967 213.052 258.594 214.425C257.222 215.798 255.36 216.57 253.419 216.572ZM98.0251 181.354C96.4046 181.355 94.851 182 93.7051 183.146C92.5592 184.292 91.9147 185.846 91.9129 187.466V209.249C91.9147 210.87 92.5592 212.424 93.7051 213.57C94.851 214.716 96.4046 215.36 98.0251 215.362H253.419C255.04 215.36 256.593 214.716 257.739 213.57C258.885 212.424 259.53 210.87 259.532 209.249V187.466C259.53 185.845 258.885 184.292 257.739 183.146C256.593 182 255.04 181.355 253.419 181.354H98.0251Z" fill="#7F7CA1"/>
        <path d="M175.722 104.22C195.648 104.22 211.801 88.0661 211.801 68.1396C211.801 48.2131 195.648 32.0595 175.722 32.0595C155.797 32.0595 139.644 48.2131 139.644 68.1396C139.644 88.0661 155.797 104.22 175.722 104.22Z" fill="white"/>
        <path d="M175.722 104.824C168.467 104.824 161.375 102.673 155.342 98.6417C149.31 94.6107 144.608 88.8814 141.831 82.1782C139.055 75.475 138.329 68.0989 139.744 60.9828C141.159 53.8667 144.653 47.3302 149.783 42.1997C154.914 37.0693 161.45 33.5755 168.566 32.16C175.682 30.7445 183.057 31.471 189.76 34.2475C196.463 37.0241 202.192 41.7261 206.223 47.7588C210.254 53.7915 212.405 60.8841 212.405 68.1396C212.395 77.8656 208.526 87.1902 201.649 94.0675C194.772 100.945 185.448 104.813 175.722 104.824ZM175.722 32.6639C168.706 32.6639 161.847 34.7445 156.014 38.6427C150.18 42.5408 145.633 48.0813 142.948 54.5637C140.263 61.046 139.561 68.179 140.929 75.0606C142.298 81.9422 145.677 88.2634 150.638 93.2247C155.599 98.1861 161.92 101.565 168.802 102.934C175.683 104.302 182.816 103.6 189.298 100.915C195.78 98.2298 201.32 93.6828 205.218 87.8489C209.116 82.0149 211.197 75.1561 211.197 68.1396C211.186 58.7341 207.445 49.7169 200.795 43.0662C194.144 36.4155 185.127 32.6745 175.722 32.6639Z" fill="#7F7CA1"/>
        <path opacity="0.5" d="M211 68.1396C211.01 76.4907 208.047 84.5726 202.641 90.9376C199.311 87.0558 195.182 83.9401 190.535 81.8043C185.888 79.6685 180.834 78.5632 175.72 78.5641C170.606 78.565 165.553 79.6722 160.907 81.8096C156.261 83.9471 152.132 87.0643 148.804 90.9473C145.133 86.6146 142.562 81.4597 141.31 75.9207C140.058 70.3817 140.161 64.6223 141.611 59.1317C143.061 53.6412 145.815 48.5818 149.639 44.3835C153.463 40.1852 158.243 36.972 163.575 35.0169C168.906 33.0618 174.631 32.4226 180.262 33.1537C185.893 33.8847 191.265 35.9644 195.921 39.2159C200.576 42.4675 204.378 46.7949 207.003 51.8304C209.629 56.8659 211 62.4608 211 68.1396Z" fill="#7F7CA1"/>
        <path d="M202.641 90.9376C199.33 94.8478 195.207 97.9898 190.558 100.145C185.91 102.3 180.848 103.417 175.725 103.418C170.601 103.419 165.539 102.304 160.889 100.15C156.24 97.9968 152.116 94.8563 148.804 90.9473C152.132 87.0643 156.261 83.9471 160.907 81.8097C165.553 79.6722 170.606 78.5651 175.72 78.5641C180.834 78.5632 185.888 79.6686 190.535 81.8043C195.181 83.9401 199.311 87.0558 202.641 90.9376Z" fill="white"/>
        <path d="M175.723 71.9819C183.599 71.9819 189.983 65.5975 189.983 57.7219C189.983 49.8463 183.599 43.4619 175.723 43.4619C167.848 43.4619 161.464 49.8463 161.464 57.7219C161.464 65.5975 167.848 71.9819 175.723 71.9819Z" fill="white"/>
        <g opacity="0.4">
            <path d="M104.388 202.648C106.757 202.648 108.677 200.728 108.677 198.359C108.677 195.99 106.757 194.07 104.388 194.07C102.02 194.07 100.1 195.99 100.1 198.359C100.1 200.728 102.02 202.648 104.388 202.648Z" fill="#7F7CA1"/>
            <path d="M117.804 202.648C120.173 202.648 122.093 200.728 122.093 198.359C122.093 195.99 120.173 194.07 117.804 194.07C115.436 194.07 113.516 195.99 113.516 198.359C113.516 200.728 115.436 202.648 117.804 202.648Z" fill="#7F7CA1"/>
            <path d="M131.219 202.648C133.588 202.648 135.508 200.728 135.508 198.359C135.508 195.99 133.588 194.07 131.219 194.07C128.851 194.07 126.931 195.99 126.931 198.359C126.931 200.728 128.851 202.648 131.219 202.648Z" fill="#7F7CA1"/>
            <path d="M144.635 202.648C147.004 202.648 148.924 200.728 148.924 198.359C148.924 195.99 147.004 194.07 144.635 194.07C142.267 194.07 140.347 195.99 140.347 198.359C140.347 200.728 142.267 202.648 144.635 202.648Z" fill="#7F7CA1"/>
            <path d="M158.051 202.648C160.419 202.648 162.339 200.728 162.339 198.359C162.339 195.99 160.419 194.07 158.051 194.07C155.682 194.07 153.762 195.99 153.762 198.359C153.762 200.728 155.682 202.648 158.051 202.648Z" fill="#7F7CA1"/>
            <path d="M171.467 202.648C173.835 202.648 175.755 200.728 175.755 198.359C175.755 195.99 173.835 194.07 171.467 194.07C169.098 194.07 167.178 195.99 167.178 198.359C167.178 200.728 169.098 202.648 171.467 202.648Z" fill="#7F7CA1"/>
            <path d="M184.883 202.648C187.251 202.648 189.171 200.728 189.171 198.359C189.171 195.99 187.251 194.07 184.883 194.07C182.514 194.07 180.594 195.99 180.594 198.359C180.594 200.728 182.514 202.648 184.883 202.648Z" fill="#7F7CA1"/>
        </g>
        <g opacity="0.3">
            <path d="M108.643 147.768V149.219H103.135V147.768H108.643Z" fill="black"/>
            <path d="M115.487 147.768V149.219H109.979V147.768H115.487Z" fill="black"/>
            <path d="M122.332 147.768V149.219H116.824V147.768H122.332Z" fill="black"/>
            <path d="M129.176 147.768V149.219H123.668V147.768H129.176Z" fill="black"/>
            <path d="M136.021 147.768V149.219H130.513V147.768H136.021Z" fill="black"/>
            <path d="M148.373 155.952C147.148 156.582 145.783 156.889 144.407 156.846C140.749 156.846 137.649 154.17 137.649 149.888C137.649 145.295 140.839 141.325 145.789 141.325C149.669 141.325 152.278 144.045 152.278 147.77C152.278 151.115 150.405 153.077 148.309 153.077C147.417 153.077 146.592 152.473 146.659 151.115H146.569C146.281 151.703 145.833 152.199 145.278 152.545C144.723 152.892 144.081 153.076 143.426 153.077C142.133 153.077 141.018 152.029 141.018 150.268C141.015 149.573 141.15 148.885 141.415 148.242C141.68 147.6 142.069 147.016 142.56 146.525C143.052 146.034 143.635 145.644 144.278 145.38C144.92 145.115 145.608 144.98 146.303 144.982C147.122 144.97 147.935 145.13 148.689 145.451L147.931 149.487C147.597 151.179 147.864 151.965 148.6 151.985C149.737 152.007 151.008 150.49 151.008 147.904C151.008 144.67 149.068 142.351 145.612 142.351C141.977 142.351 138.922 145.228 138.922 149.755C138.922 153.479 141.353 155.776 144.653 155.776C145.823 155.803 146.981 155.535 148.02 154.996L148.373 155.952ZM147.147 146.319C146.785 146.212 146.409 146.16 146.032 146.163C144.069 146.163 142.486 148.013 142.486 150.177C142.486 151.158 142.977 151.869 143.958 151.869C145.252 151.869 146.433 150.219 146.678 148.836L147.147 146.319Z" fill="black"/>
            <path d="M159.297 147.768V149.219H153.789V147.768H159.297Z" fill="black"/>
            <path d="M166.142 147.768V149.219H160.634V147.768H166.142Z" fill="black"/>
            <path d="M172.986 147.768V149.219H167.479V147.768H172.986Z" fill="black"/>
        </g>
    </g>
    <defs>
        <clipPath id="clip0_1184_24455">
            <rect width="330" height="301" fill="white" transform="translate(0.5)"/>
        </clipPath>
    </defs>
</svg>
