<svg width="25" height="24" viewBox="0 0 25 24" fill="none" xmlns="http://www.w3.org/2000/svg">
    <path d="M8.18473 1C6.7139 1 5.51807 2.2332 5.51807 3.75V20.25C5.51807 21.7668 6.7139 23 8.18473 23H17.5181C18.9889 23 20.1847 21.7668 20.1847 20.25V3.75C20.1847 2.2332 18.9889 1 17.5181 1H8.18473ZM11.5181 19.5625H14.1847C14.5514 19.5625 14.8514 19.8719 14.8514 20.25C14.8514 20.6281 14.5514 20.9375 14.1847 20.9375H11.5181C11.1514 20.9375 10.8514 20.6281 10.8514 20.25C10.8514 19.8719 11.1514 19.5625 11.5181 19.5625Z" fill="white"/>
</svg>
