<svg width="24" height="24" viewBox="0 0 24 24" fill="none" xmlns="http://www.w3.org/2000/svg">
<path d="M19.2291 15.26L16.6891 14.97C16.0791 14.9 15.4791 15.11 15.0491 15.54L13.2091 17.38C10.3791 15.94 8.05906 13.63 6.61906 10.79L8.46906 8.93999C8.89906 8.50999 9.10906 7.90999 9.03906 7.29999L8.74906 4.77999C8.62906 3.76999 7.77906 3.00999 6.75906 3.00999H5.02906C3.89906 3.00999 2.95906 3.94999 3.02906 5.07999C3.55906 13.62 10.3891 20.44 18.9191 20.97C20.0491 21.04 20.9891 20.1 20.9891 18.97V17.24C20.9991 16.23 20.2391 15.38 19.2291 15.26Z" fill="#262261"/>
</svg>
