<svg width="219" height="150" viewBox="0 0 219 150" fill="none" xmlns="http://www.w3.org/2000/svg">
    <g clip-path="url(#clip0_1150_10262)">
        <path d="M0 142.849C0 143.076 0.188043 143.259 0.42221 143.259H259.173C259.407 143.259 259.595 143.076 259.595 142.849C259.595 142.621 259.407 142.438 259.173 142.438H0.42221C0.188043 142.438 0 142.621 0 142.849Z" fill="#3F3D56"/>
        <path d="M157.027 143.211C167.608 143.211 176.186 134.875 176.186 124.591C176.186 114.308 167.608 105.972 157.027 105.972C146.445 105.972 137.867 114.308 137.867 124.591C137.867 134.875 146.445 143.211 157.027 143.211Z" fill="#3F3D56"/>
        <path d="M157.027 137.004C164.081 137.004 169.799 131.447 169.799 124.591C169.799 117.736 164.081 112.178 157.027 112.178C149.972 112.178 144.254 117.736 144.254 124.591C144.254 131.447 149.972 137.004 157.027 137.004Z" fill="white"/>
        <path d="M157.027 131.66C161.044 131.66 164.3 128.495 164.3 124.591C164.3 120.688 161.044 117.523 157.027 117.523C153.01 117.523 149.753 120.688 149.753 124.591C149.753 128.495 153.01 131.66 157.027 131.66Z" fill="#3F3D56"/>
        <path d="M46.3295 143.211C56.9108 143.211 65.4886 134.875 65.4886 124.591C65.4886 114.308 56.9108 105.972 46.3295 105.972C35.7482 105.972 27.1704 114.308 27.1704 124.591C27.1704 134.875 35.7482 143.211 46.3295 143.211Z" fill="#3F3D56"/>
        <path d="M46.3296 137.004C53.3838 137.004 59.1023 131.447 59.1023 124.591C59.1023 117.736 53.3838 112.178 46.3296 112.178C39.2754 112.178 33.5569 117.736 33.5569 124.591C33.5569 131.447 39.2754 137.004 46.3296 137.004Z" fill="white"/>
        <path d="M183.236 115.737C180.741 109.623 172.02 90.9454 156.487 84.7631C156.367 84.7148 156.242 84.6838 156.115 84.6666L106.298 77.7326C105.478 77.6188 104.712 78.1636 104.58 78.9601L103.708 84.2011C103.647 84.5597 103.725 84.9286 103.928 85.2355C106.457 89.049 122.672 114.94 96.7074 114.94C70.7432 114.94 63.587 96.883 62.4516 93.6935C62.3452 93.3935 62.3416 93.0694 62.4374 92.766L70.3068 68.5435C70.4452 68.1125 70.3707 67.6712 70.1436 67.3195L73.6029 61.0751L79.9396 64.561L83.2215 64.599L94.4225 70.2882L96.7038 66.6678L73.6029 55.4686C73.6029 55.4686 73.6419 52.8756 66.1912 50.8068L54.4828 45.6348L53.0637 47.3588L56.6116 50.1172L56.9664 52.186L59.45 52.8756L64.4172 62.1853L62.998 64.8541L64.7223 65.6713L64.2292 65.561C63.516 65.4024 62.7887 65.761 62.4977 66.4126L54.6709 83.8459C54.5503 84.1114 54.3516 84.339 54.0997 84.4976L51.311 86.2458C51.052 86.4078 50.8462 86.6457 50.7291 86.925L47.543 94.4314C47.4437 94.6659 47.4153 94.9107 47.4401 95.1486C43.4699 95.8796 31.8006 99.038 25.3894 111.496L32.8402 117.357C32.8402 117.357 44.5201 110.013 63.8211 117.661C67.1775 122.736 72.0702 126.946 79.1378 127.343C97.7682 128.391 128.636 129.426 132.184 125.288C134.781 122.257 136.587 120.368 137.371 119.571C137.648 119.292 138.024 119.13 138.421 119.116L181.866 117.768C182.92 117.737 183.619 116.695 183.232 115.744L183.236 115.737Z" fill="#00BAC1"/>
        <path d="M63.3599 61.4923C66.4951 61.4923 69.0366 59.0224 69.0366 55.9755C69.0366 52.9286 66.4951 50.4586 63.3599 50.4586C60.2247 50.4586 57.6831 52.9286 57.6831 55.9755C57.6831 59.0224 60.2247 61.4923 63.3599 61.4923Z" fill="#3F3D56"/>
        <path d="M154.27 84.7872C154.202 84.7872 154.135 84.7872 154.068 84.7838L106.603 82.9977C104.502 82.9184 102.704 81.6185 102.019 79.6876L101.369 77.8498C100.841 76.3533 101.071 74.7465 102.001 73.4466C102.934 72.1467 104.403 71.3812 106.032 71.3433L155.072 70.2468C156.59 70.2123 158.052 70.8433 159.042 71.9812C160.032 73.119 160.436 74.6086 160.149 76.074L159.223 80.7909C158.765 83.1321 156.697 84.7838 154.266 84.7838L154.27 84.7872Z" fill="#3F3D56"/>
        <path d="M46.3295 131.66C50.3465 131.66 53.6029 128.495 53.6029 124.591C53.6029 120.688 50.3465 117.523 46.3295 117.523C42.3125 117.523 39.0562 120.688 39.0562 124.591C39.0562 128.495 42.3125 131.66 46.3295 131.66Z" fill="#3F3D56"/>
        <path d="M173.34 104.469C172.205 104.469 171.123 103.879 170.545 102.862L166.95 96.5381C166.379 95.5347 166.415 94.3589 167.039 93.39C167.664 92.4177 168.742 91.8729 169.913 91.935L176.438 92.2591C177.651 92.3211 178.744 93.0625 179.219 94.152L181.125 98.5311C181.472 99.3345 181.465 100.21 181.1 101.007C180.734 101.8 180.067 102.396 179.223 102.679L174.391 104.3C174.046 104.417 173.692 104.472 173.344 104.472L173.34 104.469Z" fill="#3F3D56"/>
        <path d="M90.8319 146.497C90.7786 146.497 90.7219 146.497 90.6687 146.486L89.2211 146.331C88.7492 146.28 88.3376 146.021 88.0964 145.621C87.8551 145.221 87.8232 144.749 88.0077 144.321L95.5436 126.929C95.7494 126.453 96.2071 126.115 96.7357 126.05C97.2502 125.988 97.7504 126.184 98.0804 126.574C98.4068 126.964 98.5062 127.481 98.3394 127.957L92.2546 145.504C92.0488 146.097 91.4669 146.493 90.8354 146.493L90.8319 146.497Z" fill="#3F3D56"/>
        <path d="M129.955 25.1293C129.955 25.1293 127.199 19.771 127.749 14.9507L118.573 19.5711L118.928 28.3429L129.955 25.1293Z" fill="#DEA7AE"/>
        <path d="M124.261 22.0468C128.832 22.0468 132.538 18.4453 132.538 14.0025C132.538 9.5598 128.832 5.95825 124.261 5.95825C119.689 5.95825 115.983 9.5598 115.983 14.0025C115.983 18.4453 119.689 22.0468 124.261 22.0468Z" fill="#DEA7AE"/>
        <path d="M132.716 140.311H127.663L125.261 121.378H132.716V140.311Z" fill="#DEA7AE"/>
        <path d="M115.412 140.197C115.256 140.456 115.171 141.287 115.171 141.583C115.171 142.504 115.937 143.249 116.885 143.249H132.524C133.17 143.249 133.695 142.738 133.695 142.111V141.476C133.695 141.476 134.468 139.573 132.875 137.232C132.875 137.232 130.896 139.066 127.937 136.194L127.064 134.66L120.748 139.149L117.246 139.566C116.48 139.659 115.802 139.552 115.409 140.197H115.412Z" fill="#2F2E41"/>
        <path d="M117.825 25.1292L129.955 23.5225L139.329 27.8084L139.879 61.0268C139.879 61.0268 116.824 63.7059 113.191 60.2234C109.558 56.7409 112.315 28.8807 112.315 28.8807L117.828 25.1292H117.825Z" fill="#E6E6E6"/>
        <path d="M122.189 16.0507H119.964C119.964 16.0507 118.034 13.7405 118.293 15.1473C118.552 16.5541 117.513 18.0678 117.513 18.0678L115.955 17.5643C115.955 17.5643 112.84 4.83074 122.189 4.13078C131.538 3.43083 133.617 10.4993 133.617 10.4993C133.617 10.4993 133.099 14.0336 132.06 13.0233C131.02 12.013 125.308 11.5096 125.308 11.5096L122.193 16.0541L122.189 16.0507Z" fill="#2F2E41"/>
        <path d="M116.303 136.056L111.446 137.387L103.839 119.805L111.013 117.837L116.303 136.056Z" fill="#DEA7AE"/>
        <path d="M99.6202 140.518C99.5422 140.808 99.6947 141.628 99.7763 141.918C100.032 142.804 100.979 143.318 101.891 143.069L116.941 138.939C117.562 138.77 117.924 138.139 117.75 137.535L117.573 136.925C117.573 136.925 117.786 134.891 115.597 133.056C115.597 133.056 114.206 135.346 110.555 133.36L109.285 132.112L104.463 138.097L101.213 139.425C100.504 139.714 99.8189 139.794 99.6202 140.518Z" fill="#2F2E41"/>
        <path d="M138.222 57.8132L139.876 62.675V79.3807L134.912 129.805H125.219L124.126 93.8108L124.988 76.0327L106.5 103.217L114.625 122.633L105.68 128.429C105.68 128.429 92.3043 98.807 94.3054 95.9347C96.3064 93.066 114.231 59.1821 114.231 59.1821C114.231 59.1821 138.215 58.3511 138.215 57.8167L138.222 57.8132Z" fill="#C1C0D2"/>
        <path d="M143.186 38.525L145.85 42.7661C145.85 42.7661 149.618 57.1582 145.85 57.2168C142.082 57.2755 134.476 49.8829 134.476 49.8829L135.469 46.0245L138.226 47.0968L137.676 38.525H143.189H143.186Z" fill="#DEA7AE"/>
        <path d="M134.916 27.743C134.916 27.743 143.736 26.2327 144.562 31.8427C145.389 37.4526 145.85 42.7695 145.85 42.7695L136.292 43.5384L134.916 27.743Z" fill="#E6E6E6"/>
        <path d="M136.832 49.4132C137.63 48.3243 136.461 46.1851 134.222 44.6352C131.983 43.0852 129.521 42.7114 128.723 43.8003C127.925 44.8891 129.093 47.0283 131.332 48.5783C133.571 50.1283 136.034 50.5021 136.832 49.4132Z" fill="#DEA7AE"/>
        <path d="M183.966 141.049L187.781 140.249L186.415 125.581L180.791 126.76L183.966 141.049Z" fill="#DEA7AE"/>
        <path d="M197.009 138.225C197.172 138.394 197.374 139.008 197.424 139.235C197.58 139.928 197.126 140.614 196.409 140.763L184.605 143.242C184.119 143.345 183.636 143.042 183.53 142.569L183.424 142.09C183.424 142.09 182.519 140.777 183.328 138.756C183.328 138.756 185.13 139.828 186.879 137.187L187.28 135.891L192.801 138.277L195.511 138.039C196.104 137.987 196.601 137.797 197.005 138.225H197.009Z" fill="#2F2E41"/>
        <path d="M190.786 139.928L193.965 137.735L186.773 124.771L182.079 128.005L190.786 139.928Z" fill="#DEA7AE"/>
        <path d="M201.632 132.343C201.848 132.436 202.284 132.922 202.419 133.112C202.842 133.691 202.703 134.494 202.107 134.905L192.258 141.697C191.85 141.977 191.289 141.883 190.998 141.49L190.707 141.09C190.707 141.09 189.345 140.228 189.271 138.06C189.271 138.06 191.36 138.356 191.903 135.26L191.747 133.915L197.789 133.998L200.188 132.743C200.713 132.467 201.092 132.105 201.635 132.343H201.632Z" fill="#2F2E41"/>
        <path d="M144.97 67.3988C144.97 67.3988 139.042 75.2328 150.899 84.0425L175.114 76.5223L166.464 58.9925L158.804 54.91L144.967 67.3954L144.97 67.3988Z" fill="#C1C0D2"/>
        <path d="M175.118 76.5257L184.506 94.2935L190.438 131.277L183.026 131.756L175.611 96.6968L162.515 77.7257L171.659 73.6432" fill="#C1C0D2"/>
        <path d="M150.903 78.4636V84.046L167.706 101.979C167.706 101.979 167.706 115.427 174.131 121.671L181.543 132.718L187.969 129.357L178.581 97.1795L161.777 76.0465L150.906 78.4636H150.903Z" fill="#C1C0D2"/>
        <path d="M162.842 23.126L159.677 34.8528L147.61 32.5461C147.61 32.5461 156.029 24.1087 154.844 20.2642L162.845 23.126H162.842Z" fill="#DEA7AE"/>
        <path d="M153.62 24.8948L161.032 28.2566C161.032 28.2566 164.846 30.522 164.917 32.0322C164.988 33.5425 164.491 40.7454 164.491 40.7454C164.491 40.7454 167.458 43.628 165.481 49.3896L166.471 58.9959L144.232 70.5227L146.209 50.3516L145.219 31.6219L153.62 24.8982V24.8948Z" fill="#3F3D56"/>
        <path d="M146.968 79.5531C147.837 81.4874 149.569 82.6218 150.835 82.0839C152.102 81.546 152.425 79.5427 151.559 77.6084C151.222 76.8291 150.701 76.143 150.034 75.6016L146.248 67.447L142.349 69.2538L146.493 77.1015C146.447 77.9428 146.61 78.7842 146.968 79.5531Z" fill="#DEA7AE"/>
        <path d="M150.903 32.8219C150.903 32.8219 145.467 29.46 143.491 33.3011C141.515 37.1423 137.066 56.834 137.066 56.834L143.491 75.5637L149.42 73.1639L144.229 53.0067L150.899 32.8219H150.903Z" fill="#3F3D56"/>
        <path d="M178.765 76.5291C180.305 78.0187 182.345 78.4532 183.321 77.498C184.296 76.5429 183.835 74.5672 182.295 73.0777C181.689 72.4743 180.94 72.0226 180.117 71.7571L173.507 65.5299L170.566 68.6056L177.392 74.4155C177.669 75.2154 178.141 75.9395 178.765 76.5257V76.5291Z" fill="#DEA7AE"/>
        <path d="M164.708 31.6737C164.708 31.6737 155.231 31.2978 154.848 35.5769C154.468 39.8559 160.947 58.9511 160.947 58.9511L174.021 74.0639L178.623 69.709L166.159 52.8274L164.711 31.6737H164.708Z" fill="#3F3D56"/>
        <path d="M136.959 66.3471L129.044 42.9935C122.643 37.5146 115.7 50.7102 97.062 43.228L102.923 69.6434C117.016 62.2404 129.143 59.3407 136.959 66.3471Z" fill="#FFCB03"/>
        <path d="M102.923 70.333C102.874 70.333 102.82 70.3227 102.774 70.302C102.671 70.2572 102.6 70.1675 102.576 70.0606L96.7143 43.6452C96.6859 43.5211 96.732 43.3901 96.8349 43.3073C96.9378 43.2246 97.0762 43.2039 97.1968 43.2521C107.784 47.5001 114.617 44.9727 119.609 43.1246C123.402 41.7212 126.397 40.611 129.278 43.0763C129.324 43.1177 129.359 43.1694 129.381 43.228L137.296 66.5816C137.346 66.7298 137.285 66.8953 137.151 66.9781C137.016 67.0643 136.835 67.0471 136.718 66.9402C129.849 60.782 119.162 61.844 103.094 70.2882C103.04 70.3158 102.984 70.3296 102.923 70.3296V70.333ZM97.5481 44.1348L103.168 69.4676C118.588 61.444 129.15 60.2061 136.221 65.6299L128.731 43.5383C126.194 41.4281 123.53 42.4143 119.858 43.7728C114.855 45.6244 108.039 48.1484 97.5481 44.1383V44.1348Z" fill="#FFCB03"/>
        <path d="M109.338 31.8667L104.328 32.8735C104.328 32.8735 90.9383 40.0351 93.4715 42.7487C96.0012 45.4623 106.755 45.8106 106.755 45.8106L108.976 42.4694L106.287 41.2454L113.106 35.7802L109.338 31.8667Z" fill="#DEA7AE"/>
        <path d="M123.09 30.3668C123.09 30.3668 118.197 23.0742 113.418 26.3223C108.639 29.5703 104.332 32.8735 104.332 32.8735L110.285 40.1799L123.094 30.3668H123.09Z" fill="#E6E6E6"/>
        <path d="M115.255 45.7348C115.527 44.4245 113.564 42.9328 110.87 42.4029C108.175 41.8729 105.77 42.5055 105.497 43.8158C105.224 45.1261 107.187 46.6178 109.882 47.1477C112.576 47.6776 114.982 47.045 115.255 45.7348Z" fill="#DEA7AE"/>
        <path d="M55.3409 143.597C56.9947 143.597 58.3354 142.294 58.3354 140.687C58.3354 139.08 56.9947 137.777 55.3409 137.777C53.6871 137.777 52.3464 139.08 52.3464 140.687C52.3464 142.294 53.6871 143.597 55.3409 143.597Z" fill="#3F3D56"/>
        <path d="M59.3324 148.111C60.9862 148.111 62.3269 146.808 62.3269 145.2C62.3269 143.593 60.9862 142.29 59.3324 142.29C57.6786 142.29 56.3379 143.593 56.3379 145.2C56.3379 146.808 57.6786 148.111 59.3324 148.111Z" fill="#3F3D56"/>
        <path d="M89.2701 148.111C90.9239 148.111 92.2646 146.808 92.2646 145.2C92.2646 143.593 90.9239 142.29 89.2701 142.29C87.6163 142.29 86.2756 143.593 86.2756 145.2C86.2756 146.808 87.6163 148.111 89.2701 148.111Z" fill="#3F3D56"/>
        <path d="M63.7177 101.652V70.0505C63.7177 66.5128 66.7618 65.637 70.4021 65.637C72.1867 65.637 73.0524 65.437 74.3048 66.6714C75.5573 67.9058 76.9481 68.4195 76.9197 70.1539L76.3946 101.162L63.7141 101.648L63.7177 101.652ZM70.7569 67.7093C67.5069 67.7093 64.4273 66.8955 64.4273 70.0539V100.938L75.6992 100.504L76.2137 70.147C76.2385 68.5988 73.6485 68.8126 72.5344 67.7093C71.4168 66.6059 72.3535 67.7093 70.7604 67.7093H70.7569Z" fill="#3F3D56"/>
        <path d="M54.805 101.269L54.3509 135.794C54.3438 136.239 54.4538 136.677 54.6667 137.07L58.0231 143.232C58.5162 144.138 59.5026 144.687 60.5563 144.642L90.0259 143.38C91.5337 143.314 92.701 142.073 92.6336 140.608L90.7851 101.186C90.7177 99.769 89.5185 98.6519 88.0567 98.6519H57.5334C56.0397 98.6519 54.8228 99.8207 54.8015 101.272L54.805 101.269Z" fill="#CBA202"/>
        <path d="M66.4213 116.851L65.7117 116.816L65.9742 111.706C66.1161 108.955 68.4472 106.748 71.282 106.682L83.8312 106.4C86.3645 106.358 88.4649 108.224 88.6033 110.686L88.8693 115.358L88.1598 115.396L87.8937 110.724C87.773 108.638 85.9813 107.038 83.8454 107.089L71.2962 107.372C68.8303 107.427 66.8045 109.348 66.6803 111.741L66.4177 116.851H66.4213Z" fill="#3F3D56"/>
        <path d="M65.9209 141.601L65.2148 141.532L66.744 127.029C67.0279 124.347 69.3305 122.233 72.1015 122.112L84.342 121.578C85.8854 121.509 87.3507 122.04 88.4719 123.071C89.593 124.102 90.2175 125.495 90.2352 126.995L90.3736 139.621L89.664 139.628L89.5256 127.002C89.5114 125.691 88.965 124.474 87.9858 123.571C87.0065 122.667 85.7186 122.205 84.3775 122.264L72.1369 122.798C69.7137 122.905 67.702 124.75 67.4536 127.095L65.9244 141.597L65.9209 141.601Z" fill="#3F3D56"/>
        <path d="M60.4357 140.597L59.7261 140.587L60.1731 107.444C60.2051 105.179 62.0536 103.352 64.3846 103.283L88.5108 102.593L88.5321 103.283L64.4059 103.972C62.4545 104.027 60.9076 105.555 60.8827 107.451L60.4357 140.594V140.597Z" fill="#3F3D56"/>
        <path d="M60.4997 135.877H60.0065V105.693C60.0065 104.738 59.2082 103.958 58.2219 103.958H55.4651V103.269H58.2219C59.524 103.269 60.5955 104.245 60.7055 105.479C60.7126 105.548 60.7161 105.62 60.7161 105.693V119.985L60.4997 135.877Z" fill="#3F3D56"/>
        <path d="M167.993 16.8575C167.993 21.2779 164.307 24.8604 159.759 24.8604C155.21 24.8604 151.524 21.2779 151.524 16.8575C151.524 12.4371 155.21 8.85461 159.759 8.85461C164.307 8.85461 167.993 12.4371 167.993 16.8575Z" fill="#DEA7AE"/>
        <path d="M159.102 6.09963C159.34 6.2341 159.659 6.03067 159.737 5.77206C159.815 5.51346 159.723 5.24107 159.638 4.98591C159.489 4.55835 159.343 4.13425 159.194 3.70669C158.879 2.79986 158.545 1.86199 157.864 1.17238C156.835 0.131074 155.196 -0.134425 153.723 0.0586651C151.832 0.306924 149.966 1.29996 149.086 2.94812C148.206 4.59628 148.582 6.89268 150.172 7.92019C147.905 10.4442 147.117 13.2578 147.241 16.6024C147.365 19.9504 151.119 23.0295 153.567 25.388C154.114 25.0673 154.61 23.557 154.309 23.0088C154.007 22.4606 154.44 21.8261 154.068 21.3193C153.695 20.8159 153.383 21.6192 153.759 21.1158C153.997 20.7986 153.071 20.0711 153.422 19.8814C155.128 18.9643 155.696 16.8954 156.768 15.3128C158.063 13.4026 160.273 12.1096 162.618 11.8958C163.91 11.7785 165.272 11.9923 166.329 12.7199C167.387 13.4474 168.071 14.7473 167.827 15.9852C168.462 15.3576 168.778 14.4404 168.66 13.5681C168.54 12.6957 167.99 11.8889 167.206 11.4441C167.681 9.9166 167.273 8.15811 166.17 6.97888C165.066 5.7962 160.592 5.99963 158.982 6.30996L159.106 6.10308L159.102 6.09963Z" fill="#2F2E41"/>
        <path d="M158.854 11.9406C156.721 12.1647 155.182 13.9611 153.88 15.6196C153.131 16.5747 152.343 17.6298 152.365 18.8332C152.382 20.0469 153.22 21.0916 153.621 22.2398C154.273 24.1225 153.638 26.3602 152.084 27.6498C153.621 27.9326 155.281 26.8154 155.544 25.3155C155.852 23.5742 154.493 21.8916 154.653 20.1296C154.795 18.578 156.054 17.385 157.122 16.223C158.194 15.061 159.198 13.5232 158.705 12.0405L158.854 11.9406Z" fill="#2F2E41"/>
    </g>
    <defs>
        <clipPath id="clip0_1150_10262">
            <rect width="219" height="150" fill="white"/>
        </clipPath>
    </defs>
</svg>
