<svg width="24" height="24" viewBox="0 0 24 24" fill="none" xmlns="http://www.w3.org/2000/svg">
<path d="M5.95 3C6.67935 3 7.37882 3.28973 7.89454 3.80546C8.41027 4.32118 8.7 5.02065 8.7 5.75C8.7 6.47935 8.41027 7.17882 7.89454 7.69454C7.37882 8.21027 6.67935 8.5 5.95 8.5C5.22065 8.5 4.52118 8.21027 4.00546 7.69454C3.48973 7.17882 3.2 6.47935 3.2 5.75C3.2 5.02065 3.48973 4.32118 4.00546 3.80546C4.52118 3.28973 5.22065 3 5.95 3ZM18.6 3C19.3293 3 20.0288 3.28973 20.5445 3.80546C21.0603 4.32118 21.35 5.02065 21.35 5.75C21.35 6.47935 21.0603 7.17882 20.5445 7.69454C20.0288 8.21027 19.3293 8.5 18.6 8.5C17.8707 8.5 17.1712 8.21027 16.6555 7.69454C16.1397 7.17882 15.85 6.47935 15.85 5.75C15.85 5.02065 16.1397 4.32118 16.6555 3.80546C17.1712 3.28973 17.8707 3 18.6 3ZM1 13.2678C1 11.2431 2.64312 9.6 4.66781 9.6H6.13562C6.68219 9.6 7.20125 9.72031 7.66875 9.93344C7.62406 10.1809 7.60344 10.4388 7.60344 10.7C7.60344 12.0131 8.18094 13.1922 9.09188 14C9.085 14 9.07812 14 9.06781 14H1.73219C1.33 14 1 13.67 1 13.2678ZM14.9322 14C14.9253 14 14.9184 14 14.9081 14C15.8225 13.1922 16.3966 12.0131 16.3966 10.7C16.3966 10.4388 16.3725 10.1844 16.3313 9.93344C16.7987 9.71688 17.3178 9.6 17.8644 9.6H19.3322C21.3569 9.6 23 11.2431 23 13.2678C23 13.6734 22.67 14 22.2678 14H14.9322ZM8.7 10.7C8.7 9.82479 9.04768 8.98542 9.66655 8.36655C10.2854 7.74768 11.1248 7.4 12 7.4C12.8752 7.4 13.7146 7.74768 14.3335 8.36655C14.9523 8.98542 15.3 9.82479 15.3 10.7C15.3 11.5752 14.9523 12.4146 14.3335 13.0335C13.7146 13.6523 12.8752 14 12 14C11.1248 14 10.2854 13.6523 9.66655 13.0335C9.04768 12.4146 8.7 11.5752 8.7 10.7ZM5.4 19.6822C5.4 17.1522 7.45219 15.1 9.98219 15.1H14.0178C16.5478 15.1 18.6 17.1522 18.6 19.6822C18.6 20.1875 18.1909 20.6 17.6822 20.6H6.31781C5.8125 20.6 5.4 20.1909 5.4 19.6822Z" fill="#1E1B4D"/>
</svg>
