<svg width="61" height="60" viewBox="0 0 61 60" fill="none" xmlns="http://www.w3.org/2000/svg">
<path d="M26.25 53.7L38 33.75H51.75C53.825 33.75 55.5 32.075 55.5 30C55.5 27.925 53.825 26.25 51.75 26.25H38L26.25 6.3C25.8 5.5 24.925 5 24 5C22.25 5 21 6.675 21.475 8.35L26.725 26.25L13 26.25L9.625 20.6C9.4 20.225 8.975 20 8.55 20H7.3H7.1C6.275 20 5.675 20.775 5.875 21.55L7.7 28.85L8 30L7.775 30.95L7.5 32L6.3 36.75L5.875 38.425C5.675 39.225 6.275 39.975 7.1 39.975H8.025H8.55C9 39.975 9.4 39.75 9.625 39.375L13 33.75H26.75L21.5 51.65C21 53.325 22.25 55 24 55C24.925 55 25.8 54.5 26.25 53.7Z" fill="#262261"/>
</svg>
