
<svg viewBox="0 0 24 25" fill="none" xmlns="http://www.w3.org/2000/svg">
<g id="Icon/Calendar">
<path id="Vector" d="M8 2.33911C8.69141 2.33911 9.25 2.89771 9.25 3.58911V4.83911H14.25V3.58911C14.25 2.89771 14.8086 2.33911 15.5 2.33911C16.1914 2.33911 16.75 2.89771 16.75 3.58911V4.83911H18.625C19.6602 4.83911 20.5 5.67896 20.5 6.71411V8.58911H3V6.71411C3 5.67896 3.83984 4.83911 4.875 4.83911H6.75V3.58911C6.75 2.89771 7.30859 2.33911 8 2.33911ZM3 9.83911H20.5V20.4641C20.5 21.4993 19.6602 22.3391 18.625 22.3391H4.875C3.83984 22.3391 3 21.4993 3 20.4641V9.83911ZM5.5 12.9641V14.2141C5.5 14.5579 5.78125 14.8391 6.125 14.8391H7.375C7.71875 14.8391 8 14.5579 8 14.2141V12.9641C8 12.6204 7.71875 12.3391 7.375 12.3391H6.125C5.78125 12.3391 5.5 12.6204 5.5 12.9641ZM10.5 12.9641V14.2141C10.5 14.5579 10.7812 14.8391 11.125 14.8391H12.375C12.7188 14.8391 13 14.5579 13 14.2141V12.9641C13 12.6204 12.7188 12.3391 12.375 12.3391H11.125C10.7812 12.3391 10.5 12.6204 10.5 12.9641ZM16.125 12.3391C15.7812 12.3391 15.5 12.6204 15.5 12.9641V14.2141C15.5 14.5579 15.7812 14.8391 16.125 14.8391H17.375C17.7188 14.8391 18 14.5579 18 14.2141V12.9641C18 12.6204 17.7188 12.3391 17.375 12.3391H16.125ZM5.5 17.9641V19.2141C5.5 19.5579 5.78125 19.8391 6.125 19.8391H7.375C7.71875 19.8391 8 19.5579 8 19.2141V17.9641C8 17.6204 7.71875 17.3391 7.375 17.3391H6.125C5.78125 17.3391 5.5 17.6204 5.5 17.9641ZM11.125 17.3391C10.7812 17.3391 10.5 17.6204 10.5 17.9641V19.2141C10.5 19.5579 10.7812 19.8391 11.125 19.8391H12.375C12.7188 19.8391 13 19.5579 13 19.2141V17.9641C13 17.6204 12.7188 17.3391 12.375 17.3391H11.125ZM15.5 17.9641V19.2141C15.5 19.5579 15.7812 19.8391 16.125 19.8391H17.375C17.7188 19.8391 18 19.5579 18 19.2141V17.9641C18 17.6204 17.7188 17.3391 17.375 17.3391H16.125C15.7812 17.3391 15.5 17.6204 15.5 17.9641Z" />
</g>
</svg>
