<svg width="49" height="46" viewBox="0 0 49 46" fill="none" xmlns="http://www.w3.org/2000/svg">
    <g id="Logo" clip-path="url(#clip0_1294_17292)">
        <g id="Group">
            <path id="Vector" d="M39.3442 16.2123C39.3434 15.9875 39.3382 15.7638 39.3281 15.5412V2.85126L35.8199 6.35951C32.9486 2.84491 28.5806 0.600098 23.6881 0.600098C18.5965 0.600098 14.0732 3.03039 11.2139 6.79407L16.9643 12.605C17.5279 11.5628 18.3284 10.6676 19.2937 9.99149C20.2977 9.20805 21.7201 8.56748 23.6879 8.56748C23.9256 8.56748 24.1091 8.59526 24.2439 8.64759C26.6819 8.84002 28.7952 10.1855 30.0395 12.1384L25.969 16.2088C31.1248 16.1886 36.9492 16.1767 39.3437 16.2114" fill="#1C3AA9"/>
            <path id="Vector_2" d="M23.5956 0.600586C23.3708 0.601333 23.1471 0.606522 22.9245 0.616602H10.2346L13.7428 4.12485C10.2282 6.99616 7.9834 11.3642 7.9834 16.2567C7.9834 21.3482 10.4137 25.8715 14.1774 28.7309L19.9883 22.9804C18.9461 22.4169 18.0509 21.6163 17.3748 20.651C16.5914 19.6471 15.9508 18.2246 15.9508 16.2569C15.9508 16.0192 15.9786 15.8357 16.0309 15.7009C16.2233 13.2629 17.5688 11.1496 19.5217 9.90525L23.5921 13.9757C23.5719 8.81997 23.56 2.99559 23.5947 0.601034" fill="#4285F4"/>
            <path id="Vector_3" d="M7.98438 16.2563C7.98512 16.4812 7.99031 16.7049 8.00039 16.9275V29.6174L11.5086 26.1092C14.3799 29.6238 18.7479 31.8686 23.6405 31.8686C28.732 31.8686 33.2553 29.4383 36.1147 25.6746L30.3642 19.8637C29.8007 20.9059 29.0001 21.8011 28.0348 22.4772C27.0309 23.2606 25.6084 23.9012 23.6407 23.9012C23.403 23.9012 23.2195 23.8734 23.0847 23.8211C20.6466 23.6287 18.5334 22.2832 17.289 20.3303L21.3595 16.2599C16.2038 16.2801 10.3794 16.292 7.98482 16.2573" fill="#ABABAB"/>
            <path id="Vector_4" d="M10.6261 37.9317C10.2448 37.9317 9.90289 38.0041 9.60042 38.1487C9.29796 38.2901 9.04154 38.4923 8.83113 38.7553C8.62401 39.0183 8.46457 39.3372 8.35277 39.7119C8.24428 40.0834 8.19004 40.4993 8.19004 40.9595V42.2861C8.19004 42.7496 8.24428 43.1671 8.35277 43.5386C8.46455 43.9101 8.62235 44.2274 8.8262 44.4904C9.03004 44.7534 9.27659 44.9555 9.56588 45.0969C9.85518 45.2383 10.1807 45.309 10.5423 45.309C10.9138 45.309 11.2393 45.2547 11.5187 45.1462C11.8014 45.0378 12.0381 44.8816 12.2288 44.6778C12.4195 44.4707 12.5658 44.2208 12.6677 43.9282C12.7729 43.6356 12.8354 43.3036 12.8551 42.9321H11.9428C11.9198 43.2181 11.8803 43.463 11.8244 43.6668C11.7686 43.8674 11.6864 44.0334 11.5779 44.1649C11.4727 44.2931 11.3346 44.3884 11.1636 44.4509C10.996 44.5101 10.7888 44.5397 10.5423 44.5397C10.2793 44.5397 10.0557 44.4821 9.87163 44.3671C9.68753 44.2487 9.53795 44.0876 9.42288 43.8838C9.31111 43.68 9.22892 43.4416 9.17632 43.1688C9.127 42.8959 9.10235 42.6017 9.10235 42.286V40.9497C9.10235 40.6111 9.13194 40.3036 9.19111 40.0275C9.25358 39.7513 9.34727 39.5163 9.4722 39.3223C9.59713 39.1283 9.75493 38.9787 9.94562 38.8736C10.1363 38.7651 10.3632 38.7108 10.6261 38.7108C10.8464 38.7108 11.0354 38.7437 11.1932 38.8094C11.351 38.8719 11.4825 38.9705 11.5877 39.1053C11.6929 39.2368 11.7735 39.4045 11.8294 39.6083C11.8853 39.8121 11.9231 40.0554 11.9428 40.3381H12.8551C12.8387 39.9502 12.7778 39.6067 12.6726 39.3075C12.5674 39.0083 12.4211 38.7568 12.2337 38.553C12.0464 38.3492 11.8179 38.1946 11.5483 38.0894C11.282 37.9842 10.9746 37.9316 10.6261 37.9316L10.6261 37.9317ZM32.8962 37.9317C32.5149 37.9317 32.173 38.0041 31.8705 38.1487C31.568 38.2901 31.3116 38.4923 31.1012 38.7553C30.8941 39.0183 30.7346 39.3372 30.6229 39.7119C30.5144 40.0834 30.4601 40.4993 30.4601 40.9595V42.2861C30.4601 42.7496 30.5144 43.1671 30.6229 43.5386C30.7346 43.9101 30.8924 44.2274 31.0963 44.4904C31.3001 44.7534 31.5467 44.9555 31.836 45.0969C32.1253 45.2383 32.4507 45.309 32.8124 45.309C33.1839 45.309 33.5093 45.2547 33.7888 45.1462C34.0715 45.0378 34.3082 44.8816 34.4989 44.6778C34.6896 44.4707 34.8359 44.2208 34.9378 43.9282C35.043 43.6356 35.1055 43.3036 35.1252 42.9321H34.2129C34.1899 43.2181 34.1505 43.463 34.0946 43.6668C34.0387 43.8674 33.9565 44.0334 33.848 44.1649C33.7428 44.2931 33.6047 44.3884 33.4337 44.4509C33.2661 44.5101 33.059 44.5397 32.8124 44.5397C32.5494 44.5397 32.3258 44.4821 32.1418 44.3671C31.9577 44.2487 31.8081 44.0876 31.693 43.8838C31.5812 43.68 31.499 43.4416 31.4464 43.1688C31.3971 42.8959 31.3725 42.6017 31.3725 42.286V40.9497C31.3725 40.6111 31.4021 40.3036 31.4612 40.0275C31.5237 39.7513 31.6174 39.5163 31.7423 39.3223C31.8672 39.1283 32.0251 38.9787 32.2157 38.8736C32.4064 38.7651 32.6332 38.7108 32.8962 38.7108C33.1165 38.7108 33.3055 38.7437 33.4633 38.8094C33.6211 38.8719 33.7526 38.9705 33.8578 39.1053C33.963 39.2368 34.0436 39.4045 34.0994 39.6083C34.1553 39.8121 34.1931 40.0554 34.2129 40.3381H35.1251C35.1087 39.9502 35.0479 39.6067 34.9427 39.3075C34.8375 39.0083 34.6912 38.7568 34.5038 38.553C34.3164 38.3491 34.0879 38.1946 33.8184 38.0894C33.5521 37.9842 33.2447 37.9316 32.8962 37.9316L32.8962 37.9317ZM15.8241 38.0304L13.5113 45.2103H14.4384L14.9956 43.3364H17.4218L17.9889 45.2103H18.916L16.5983 38.0304H15.8241ZM19.8923 38.0304V45.2103H20.7947V42.3994H22.1804C22.5256 42.3994 22.8314 42.3518 23.0977 42.2564C23.3639 42.1578 23.5875 42.0164 23.7683 41.8323C23.9524 41.6482 24.0905 41.4214 24.1825 41.1518C24.2779 40.8789 24.3255 40.5699 24.3255 40.2247C24.3255 39.9058 24.2779 39.6132 24.1825 39.3469C24.0905 39.0773 23.954 38.8456 23.7732 38.6516C23.5924 38.4543 23.3672 38.3015 23.0977 38.193C22.8314 38.0845 22.5256 38.0303 22.1804 38.0303L19.8923 38.0304ZM25.0159 38.0304V38.8095H26.8997V45.2103H27.8021V38.8095H29.6908V38.0304H25.0159ZM36.3432 38.0304V45.2103H37.2456V41.8915H40.1354V45.2103H41.0427V38.0304H40.1354V41.1174H37.2456V38.0304H36.3432ZM44.4651 38.0304L42.1523 45.2103H43.0794L43.6366 43.3364H46.0628L46.6299 45.2103H47.557L45.2393 38.0304H44.4651ZM20.7946 38.8095H22.1803C22.4006 38.8095 22.588 38.8489 22.7425 38.9279C22.9003 39.0067 23.0285 39.1119 23.1271 39.2435C23.2291 39.375 23.303 39.5278 23.3491 39.7021C23.3984 39.873 23.423 40.0505 23.423 40.2347C23.423 40.4385 23.3984 40.6259 23.3491 40.7968C23.303 40.9645 23.2291 41.1108 23.1271 41.2357C23.0285 41.3573 22.9003 41.4527 22.7425 41.5217C22.588 41.5908 22.4006 41.6253 22.1803 41.6253H20.7946V38.8095ZM16.2086 39.2928L17.1899 42.5573H15.2322L16.2086 39.2928ZM44.8496 39.2928L45.831 42.5573H43.8732L44.8496 39.2928ZM2.37175 39.7761C2.14491 39.7761 1.94929 39.8336 1.78491 39.9487C1.62382 40.0637 1.48903 40.2199 1.38055 40.4171L1.36575 39.8747H0.517578V45.2103H1.39043V41.3934C1.47262 41.1665 1.58933 40.9874 1.74055 40.8559C1.89507 40.7244 2.09068 40.6586 2.3274 40.6586C2.40301 40.6586 2.47041 40.662 2.52958 40.6685C2.58876 40.6718 2.65286 40.68 2.7219 40.6931L2.71697 39.8449C2.70382 39.8383 2.68245 39.8317 2.65286 39.8252C2.62656 39.8153 2.59697 39.8071 2.5641 39.8005C2.53122 39.794 2.4967 39.789 2.46054 39.7857C2.42766 39.7791 2.39808 39.7759 2.37178 39.7759L2.37175 39.7761ZM5.30589 39.7761C5.05275 39.7761 4.80782 39.8204 4.57113 39.9092C4.33443 39.998 4.12403 40.1443 3.93994 40.3481C3.75912 40.5486 3.61283 40.8116 3.50105 41.1371C3.38927 41.4593 3.33338 41.8554 3.33338 42.3256V42.9272C3.33338 43.3348 3.38105 43.6883 3.47639 43.9874C3.57173 44.2866 3.70816 44.5348 3.88568 44.7321C4.06649 44.926 4.28511 45.0707 4.54155 45.166C4.79798 45.2614 5.08564 45.3091 5.40455 45.3091C5.63468 45.3091 5.84015 45.286 6.02096 45.24C6.20506 45.194 6.36779 45.1348 6.50916 45.0625C6.65053 44.9869 6.77217 44.9014 6.87408 44.8061C6.976 44.7107 7.06312 44.6121 7.13544 44.5102L6.68177 43.9579C6.60944 44.0466 6.53218 44.1288 6.44999 44.2044C6.36781 44.2768 6.2774 44.3409 6.17877 44.3968C6.08014 44.4494 5.97165 44.4905 5.8533 44.52C5.73495 44.5496 5.6018 44.5644 5.45387 44.5644C5.04952 44.5644 4.73883 44.4346 4.52185 44.1748C4.30815 43.9151 4.20131 43.4993 4.20131 42.9272V42.8039H7.17984V42.296C7.17984 41.8884 7.14532 41.5283 7.07628 41.216C7.00724 40.9037 6.89711 40.6407 6.74588 40.427C6.59465 40.2133 6.40068 40.0522 6.16396 39.9437C5.92726 39.832 5.64126 39.7761 5.3059 39.7761L5.30589 39.7761ZM5.30589 40.5256C5.49656 40.5256 5.65437 40.5601 5.77931 40.6292C5.90424 40.6982 6.00286 40.7952 6.07519 40.9201C6.15081 41.0451 6.20505 41.1947 6.23793 41.3689C6.27409 41.5398 6.2971 41.7289 6.30696 41.936V42.0543H4.20622C4.21937 41.7552 4.25553 41.5069 4.31471 41.3097C4.37388 41.1124 4.45114 40.9563 4.54648 40.8412C4.64511 40.7229 4.75853 40.6407 4.88674 40.5947C5.01496 40.5486 5.15468 40.5256 5.30592 40.5256L5.30589 40.5256Z" fill="#A6A6A6"/>
        </g>
    </g>
    <defs>
        <clipPath id="clip0_1294_17292">
            <rect width="48" height="46" fill="white" transform="translate(0.0371094)"/>
        </clipPath>
    </defs>
</svg>
