<svg width="328" height="256" viewBox="0 0 328 256" fill="none" xmlns="http://www.w3.org/2000/svg">
    <g clip-path="url(#clip0_903_27642)">
        <path d="M259.864 191.687C260.139 191.233 261.326 191.719 261.544 191.307C261.762 190.897 260.659 190.272 260.029 188.845C259.915 188.587 259.199 186.965 259.729 186.465C260.734 185.516 265.332 189.431 266.942 188.15C267.295 187.869 267.542 187.307 268.61 186.396C269.036 186.033 269.293 185.87 269.542 185.931C269.895 186.017 269.923 186.48 270.301 187.391C270.869 188.757 271.205 188.674 271.536 189.764C271.781 190.573 271.725 191.043 272.014 191.134C272.423 191.264 272.8 190.406 273.318 190.483C273.847 190.561 274.167 191.56 274.268 192.308C274.457 193.712 273.931 194.638 273.64 195.612C273.323 196.67 273.135 198.28 273.867 200.558L281.107 220.552C279.509 216.449 274.88 205.203 272.935 201.023C272.374 199.817 271.754 198.593 270.481 198.11C269.256 197.645 267.572 197.923 265.427 197.416C265.176 197.357 264.481 197.184 264.393 196.783C264.321 196.451 264.73 196.266 264.667 195.956C264.583 195.54 263.778 195.535 262.79 195.054C262.093 194.716 261.659 194.313 261.285 193.966C261.173 193.862 259.499 192.29 259.864 191.687Z" fill="#F2F2F2"/>
        <path d="M288.352 202.212C288.658 202.213 288.758 202.925 289.027 202.911C289.295 202.897 289.289 202.186 289.822 201.471C289.919 201.342 290.524 200.53 290.928 200.64C291.693 200.85 291.059 204.192 292.165 204.596C292.408 204.685 292.76 204.642 293.525 204.893C293.829 204.993 293.985 205.069 294.027 205.206C294.085 205.401 293.861 205.548 293.515 205.993C292.994 206.66 293.133 206.798 292.682 207.272C292.348 207.623 292.096 207.732 292.134 207.897C292.187 208.131 292.725 208.065 292.836 208.336C292.95 208.613 292.542 209.056 292.196 209.32C291.548 209.816 290.933 209.83 290.361 209.971C289.739 210.124 288.879 210.498 287.949 211.507L280.025 220.759C281.619 218.806 285.916 213.335 287.447 211.194C287.89 210.575 288.324 209.924 288.198 209.173C288.077 208.449 287.453 207.719 287.087 206.541C287.045 206.403 286.931 206.019 287.106 205.861C287.251 205.731 287.462 205.874 287.599 205.754C287.784 205.594 287.554 205.205 287.509 204.591C287.478 204.158 287.554 203.833 287.62 203.553C287.64 203.469 287.944 202.211 288.352 202.212Z" fill="#F2F2F2"/>
        <path d="M282.241 203.556L282.426 201.942L282.342 201.82C281.952 201.254 281.753 200.701 281.75 200.176C281.75 200.093 281.754 200.009 281.758 199.925C281.774 199.588 281.794 199.169 281.571 198.681C281.446 198.409 281.095 197.779 280.568 197.857C280.426 197.877 280.319 197.941 280.237 198.015C280.225 197.997 280.213 197.978 280.2 197.958C280.035 197.712 279.905 197.607 279.78 197.506C279.684 197.428 279.584 197.347 279.428 197.157C279.36 197.074 279.307 197 279.262 196.939C279.125 196.753 278.947 196.53 278.633 196.534C278.297 196.55 278.122 196.822 278.005 197.002C277.797 197.323 277.703 197.555 277.64 197.708C277.618 197.764 277.592 197.828 277.579 197.847C277.471 198.003 276.591 197.857 276.26 197.804C275.516 197.683 274.872 197.577 274.607 198.037C274.417 198.366 274.558 198.801 275.039 199.365C275.189 199.54 275.348 199.673 275.49 199.778C275.373 199.847 275.268 199.952 275.225 200.117C275.125 200.508 275.468 200.901 276.245 201.284C276.438 201.38 276.697 201.508 277.061 201.569C277.233 201.598 277.387 201.605 277.519 201.609C277.522 201.684 277.54 201.765 277.586 201.848C277.723 202.094 278.007 202.211 278.435 202.183C278.905 202.159 279.293 202.071 279.635 201.993C279.934 201.926 280.191 201.87 280.393 201.883C280.768 201.912 281.057 202.206 281.396 202.587L282.241 203.556Z" fill="#F2F2F2"/>
        <path d="M281.385 193.944L282.932 194.528L283.074 194.48C283.732 194.253 284.328 194.205 284.846 194.336C284.929 194.357 285.01 194.381 285.093 194.407C285.421 194.507 285.829 194.632 286.367 194.545C286.668 194.496 287.378 194.323 287.435 193.803C287.452 193.664 287.416 193.546 287.363 193.449C287.384 193.443 287.406 193.436 287.429 193.428C287.713 193.335 287.85 193.238 287.982 193.145C288.083 193.074 288.188 193 288.415 192.9C288.515 192.857 288.601 192.825 288.673 192.798C288.891 192.716 289.156 192.603 289.232 192.304C289.301 191.982 289.077 191.747 288.929 191.59C288.665 191.312 288.46 191.164 288.325 191.066C288.275 191.03 288.219 190.989 288.203 190.972C288.077 190.83 288.444 190.033 288.58 189.733C288.889 189.058 289.156 188.474 288.769 188.106C288.493 187.842 288.028 187.866 287.349 188.179C287.138 188.277 286.966 188.394 286.827 188.502C286.789 188.373 286.712 188.247 286.56 188.165C286.199 187.971 285.725 188.196 285.149 188.836C285.006 188.994 284.814 189.208 284.661 189.537C284.589 189.692 284.543 189.837 284.505 189.961C284.431 189.945 284.346 189.941 284.252 189.964C283.975 190.031 283.788 190.271 283.707 190.683C283.611 191.136 283.6 191.526 283.589 191.87C283.58 192.17 283.57 192.428 283.506 192.616C283.382 192.964 283.019 193.163 282.556 193.388L281.385 193.944Z" fill="#F2F2F2"/>
        <path d="M282.241 189.188L282.426 187.573L282.342 187.451C281.952 186.885 281.753 186.332 281.75 185.808C281.75 185.724 281.754 185.641 281.758 185.556C281.774 185.219 281.794 184.8 281.571 184.312C281.446 184.04 281.095 183.411 280.568 183.488C280.426 183.508 280.319 183.572 280.237 183.647C280.225 183.628 280.213 183.609 280.2 183.589C280.035 183.343 279.905 183.238 279.78 183.137C279.684 183.059 279.584 182.979 279.428 182.788C279.36 182.705 279.307 182.632 279.262 182.57C279.125 182.384 278.947 182.162 278.633 182.166C278.297 182.181 278.122 182.453 278.005 182.633C277.797 182.954 277.703 183.186 277.64 183.34C277.618 183.396 277.592 183.459 277.579 183.478C277.471 183.634 276.591 183.488 276.26 183.435C275.516 183.314 274.872 183.209 274.607 183.669C274.417 183.998 274.558 184.433 275.039 184.996C275.189 185.172 275.348 185.305 275.49 185.409C275.373 185.478 275.268 185.583 275.225 185.748C275.125 186.14 275.468 186.532 276.245 186.915C276.438 187.011 276.697 187.139 277.061 187.201C277.233 187.23 277.387 187.237 277.519 187.24C277.522 187.315 277.54 187.396 277.586 187.48C277.723 187.725 278.007 187.842 278.435 187.814C278.905 187.79 279.293 187.702 279.635 187.625C279.934 187.558 280.191 187.501 280.393 187.514C280.768 187.544 281.057 187.838 281.396 188.219L282.241 189.188Z" fill="#F2F2F2"/>
        <path d="M280.556 220.526L280.901 220.314L281.304 220.359C281.31 220.322 281.332 220.238 281.365 220.106C281.545 219.384 282.094 217.188 282.552 213.728C282.872 211.313 283.053 208.83 283.091 206.347C283.128 203.86 283.008 201.978 282.912 200.465C282.839 199.323 282.75 198.237 282.664 197.178C282.433 194.35 282.216 191.678 282.377 188.721C282.413 188.06 282.488 186.686 283.308 185.224C283.783 184.375 284.438 183.622 285.254 182.986L284.746 182.361C283.845 183.064 283.121 183.898 282.593 184.84C281.685 186.462 281.603 187.959 281.564 188.679C281.399 191.688 281.619 194.386 281.852 197.241C281.938 198.296 282.026 199.378 282.099 200.515C282.194 202.014 282.313 203.88 282.276 206.335C282.239 208.788 282.06 211.24 281.745 213.625C281.292 217.041 280.751 219.205 280.573 219.916C280.479 220.296 280.459 220.375 280.556 220.526Z" fill="#F2F2F2"/>
        <path d="M286.747 184.255C286.781 184.255 286.815 184.254 286.849 184.252C287.542 184.215 288.185 183.808 288.758 183.043C289.027 182.682 289.165 182.272 289.439 181.452C289.482 181.326 289.689 180.685 289.814 179.803C289.897 179.227 289.886 178.987 289.77 178.774C289.64 178.537 289.431 178.371 289.196 178.26C289.206 178.184 289.198 178.105 289.164 178.025C289.025 177.692 288.656 177.735 288.456 177.756C288.355 177.769 288.229 177.785 288.093 177.778C287.879 177.768 287.764 177.706 287.59 177.612C287.424 177.523 287.216 177.411 286.909 177.349C286.303 177.226 285.795 177.394 285.627 177.449C284.747 177.737 284.312 178.408 283.81 179.185C283.709 179.341 283.365 179.909 283.138 180.687C282.974 181.248 282.997 181.497 283.047 181.683C283.147 182.064 283.384 182.282 283.985 182.764C284.612 183.269 284.927 183.521 285.198 183.675C285.827 184.031 286.222 184.255 286.747 184.255Z" fill="#F2F2F2"/>
        <path d="M27.8525 192.197C28.1269 191.744 29.3141 192.23 29.5324 191.818C29.7498 191.408 28.6468 190.783 28.0166 189.356C27.903 189.098 27.1868 187.476 27.717 186.976C28.7219 186.027 33.3204 189.942 34.9297 188.661C35.2829 188.38 35.5296 187.818 36.5985 186.907C37.0237 186.544 37.2809 186.381 37.5297 186.442C37.8828 186.528 37.9108 186.991 38.2894 187.902C38.8573 189.268 39.1931 189.185 39.5239 190.275C39.7695 191.084 39.7135 191.554 40.0025 191.645C40.4114 191.775 40.7879 190.917 41.3062 190.994C41.835 191.072 42.1548 192.071 42.2558 192.819C42.4453 194.223 41.9194 195.149 41.6279 196.123C41.3111 197.181 41.1231 198.791 41.8547 201.069L49.0955 221.063C47.4969 216.96 42.8684 205.714 40.9235 201.534C40.362 200.328 39.7421 199.104 38.4691 198.621C37.2436 198.156 35.5605 198.434 33.4148 197.927C33.1642 197.868 32.4688 197.695 32.3812 197.294C32.3089 196.962 32.7179 196.777 32.6551 196.467C32.5708 196.051 31.7664 196.046 30.7779 195.565C30.0809 195.226 29.6467 194.824 29.2732 194.477C29.1606 194.373 27.4871 192.801 27.8525 192.197Z" fill="#F2F2F2"/>
        <path d="M56.3399 202.723C56.6462 202.724 56.7456 203.436 57.0147 203.422C57.2828 203.408 57.2774 202.697 57.8104 201.982C57.9066 201.853 58.5123 201.041 58.9159 201.151C59.681 201.361 59.0471 204.703 60.1531 205.107C60.3958 205.196 60.7481 205.153 61.5129 205.404C61.8172 205.504 61.9733 205.58 62.0146 205.717C62.0732 205.912 61.8494 206.059 61.5026 206.504C60.9824 207.171 61.1207 207.309 60.6704 207.783C60.3362 208.134 60.0845 208.243 60.122 208.408C60.1751 208.642 60.7134 208.576 60.8245 208.847C60.9378 209.124 60.5298 209.567 60.1844 209.831C59.5361 210.327 58.9206 210.341 58.3488 210.482C57.7274 210.635 56.8671 211.009 55.9371 212.018L48.0134 221.27C49.6068 219.317 53.9036 213.846 55.4354 211.705C55.8776 211.086 56.3116 210.435 56.1862 209.684C56.0655 208.96 55.4408 208.23 55.0754 207.052C55.0327 206.914 54.9189 206.53 55.0944 206.372C55.2395 206.242 55.4502 206.385 55.5875 206.265C55.7717 206.105 55.5421 205.716 55.4974 205.102C55.466 204.669 55.5424 204.344 55.6082 204.064C55.628 203.98 55.9322 202.722 56.3399 202.723Z" fill="#F2F2F2"/>
        <path d="M50.2295 204.067L50.4141 202.453L50.3298 202.331C49.9396 201.765 49.7407 201.212 49.7383 200.687C49.738 200.604 49.742 200.52 49.7459 200.435C49.7618 200.099 49.7817 199.68 49.559 199.192C49.4341 198.92 49.0833 198.29 48.556 198.368C48.414 198.388 48.3066 198.452 48.2251 198.526C48.2131 198.508 48.2008 198.489 48.1877 198.469C48.0234 198.223 47.8934 198.118 47.7681 198.017C47.6719 197.939 47.5724 197.858 47.4165 197.668C47.3481 197.585 47.2948 197.511 47.2499 197.45C47.1135 197.263 46.9353 197.041 46.6211 197.045C46.2854 197.061 46.1096 197.333 45.9931 197.513C45.7851 197.834 45.6909 198.066 45.6284 198.219C45.6057 198.275 45.5799 198.338 45.5667 198.358C45.4586 198.514 44.5792 198.368 44.2479 198.315C43.5038 198.193 42.86 198.088 42.5947 198.548C42.4046 198.877 42.5458 199.312 43.027 199.876C43.1769 200.051 43.3364 200.184 43.478 200.289C43.3607 200.358 43.2557 200.463 43.2131 200.628C43.1129 201.019 43.4561 201.411 44.2329 201.795C44.4257 201.891 44.6854 202.019 45.0493 202.08C45.2208 202.109 45.3751 202.116 45.5071 202.12C45.5099 202.195 45.5278 202.276 45.5743 202.359C45.7107 202.605 45.9947 202.722 46.4226 202.694C46.8935 202.67 47.2813 202.582 47.6233 202.504C47.922 202.437 48.1793 202.38 48.3814 202.394C48.756 202.423 49.0447 202.717 49.3836 203.098L50.2295 204.067Z" fill="#F2F2F2"/>
        <path d="M49.3734 194.455L50.9201 195.039L51.0622 194.991C51.7198 194.764 52.3157 194.716 52.8342 194.847C52.9166 194.867 52.9979 194.892 53.0807 194.918C53.4091 195.018 53.8172 195.143 54.3554 195.056C54.6556 195.007 55.3662 194.834 55.4231 194.314C55.4398 194.175 55.404 194.057 55.3508 193.96C55.3723 193.954 55.3939 193.947 55.4172 193.939C55.7013 193.846 55.8381 193.749 55.9699 193.656C56.0713 193.585 56.1757 193.511 56.403 193.411C56.5027 193.368 56.5885 193.336 56.6607 193.309C56.8792 193.227 57.1437 193.114 57.2195 192.815C57.2893 192.493 57.0653 192.258 56.9172 192.101C56.6529 191.823 56.4483 191.675 56.3126 191.577C56.263 191.541 56.2072 191.5 56.1913 191.483C56.0648 191.341 56.4318 190.544 56.5681 190.244C56.8769 189.569 57.1441 188.985 56.7574 188.617C56.4809 188.353 56.0158 188.377 55.3374 188.69C55.1263 188.788 54.9543 188.905 54.8153 189.013C54.7773 188.884 54.7001 188.758 54.5477 188.676C54.1869 188.482 53.7129 188.707 53.1373 189.347C52.9937 189.505 52.8017 189.719 52.6486 190.048C52.5767 190.203 52.5306 190.348 52.4932 190.472C52.4187 190.456 52.3341 190.452 52.24 190.475C51.963 190.542 51.7756 190.782 51.6947 191.194C51.5991 191.647 51.5877 192.037 51.5771 192.381C51.5676 192.681 51.5585 192.939 51.4941 193.127C51.3699 193.475 51.0066 193.674 50.5444 193.899L49.3734 194.455Z" fill="#F2F2F2"/>
        <path d="M50.2295 189.699L50.4141 188.084L50.3298 187.962C49.9396 187.396 49.7407 186.843 49.7383 186.319C49.738 186.235 49.742 186.152 49.7459 186.067C49.7618 185.73 49.7817 185.311 49.559 184.823C49.4341 184.551 49.0833 183.922 48.556 183.999C48.414 184.019 48.3066 184.083 48.2251 184.158C48.2131 184.139 48.2008 184.12 48.1877 184.1C48.0234 183.854 47.8934 183.749 47.7681 183.648C47.6719 183.57 47.5724 183.49 47.4165 183.299C47.3481 183.216 47.2948 183.143 47.2499 183.081C47.1135 182.895 46.9353 182.673 46.6211 182.677C46.2854 182.692 46.1096 182.964 45.9931 183.144C45.7851 183.465 45.6909 183.697 45.6284 183.851C45.6057 183.907 45.5799 183.97 45.5667 183.989C45.4586 184.145 44.5792 183.999 44.2479 183.946C43.5038 183.825 42.86 183.72 42.5947 184.18C42.4046 184.509 42.5458 184.944 43.027 185.507C43.1769 185.683 43.3364 185.816 43.478 185.92C43.3607 185.989 43.2557 186.094 43.2131 186.259C43.1129 186.651 43.4561 187.043 44.2329 187.426C44.4257 187.522 44.6854 187.65 45.0493 187.712C45.2208 187.741 45.3751 187.748 45.5071 187.751C45.5099 187.826 45.5278 187.907 45.5743 187.991C45.7107 188.236 45.9947 188.353 46.4226 188.325C46.8935 188.301 47.2813 188.213 47.6233 188.136C47.922 188.069 48.1793 188.012 48.3814 188.025C48.756 188.055 49.0447 188.349 49.3836 188.73L50.2295 189.699Z" fill="#F2F2F2"/>
        <path d="M48.5439 221.037L48.8891 220.825L49.2916 220.87C49.298 220.833 49.3199 220.749 49.3529 220.617C49.533 219.895 50.0823 217.699 50.5404 214.239C50.8602 211.824 51.0411 209.341 51.0785 206.858C51.1159 204.371 50.9958 202.489 50.8996 200.976C50.8268 199.834 50.7385 198.748 50.6518 197.689C50.4211 194.861 50.2036 192.189 50.3655 189.232C50.4012 188.571 50.4764 187.197 51.2957 185.735C51.7709 184.886 52.4256 184.133 53.2417 183.497L52.7342 182.872C51.8334 183.575 51.1092 184.409 50.5814 185.351C49.673 186.973 49.5911 188.47 49.5517 189.19C49.3871 192.199 49.607 194.897 49.8401 197.752C49.926 198.807 50.0143 199.889 50.0867 201.026C50.1821 202.525 50.301 204.391 50.264 206.846C50.2274 209.299 50.0485 211.751 49.7331 214.136C49.2805 217.552 48.7392 219.716 48.5614 220.427C48.4668 220.807 48.4469 220.886 48.5439 221.037Z" fill="#F2F2F2"/>
        <path d="M54.7355 184.766C54.7689 184.766 54.8027 184.765 54.8369 184.763C55.5305 184.726 56.1728 184.319 56.7463 183.554C57.0152 183.193 57.1528 182.783 57.4272 181.963C57.4698 181.837 57.6766 181.196 57.8022 180.314C57.8846 179.738 57.8742 179.498 57.7577 179.285C57.6284 179.048 57.4193 178.882 57.1838 178.771C57.1941 178.695 57.1858 178.616 57.152 178.536C57.0132 178.203 56.6441 178.246 56.4444 178.267C56.3434 178.28 56.2174 178.296 56.0814 178.289C55.8674 178.279 55.7524 178.217 55.5782 178.123C55.4116 178.033 55.2044 177.922 54.897 177.86C54.2909 177.736 53.783 177.905 53.6156 177.96C52.7346 178.248 52.3003 178.919 51.7976 179.696C51.6974 179.852 51.3534 180.42 51.1263 181.198C50.9624 181.759 50.9855 182.008 51.0348 182.194C51.135 182.575 51.3717 182.793 51.9726 183.275C52.6002 183.78 52.9152 184.032 53.1856 184.186C53.8152 184.542 54.2105 184.766 54.7355 184.766Z" fill="#F2F2F2"/>
        <path d="M160.996 99.6911C141.415 99.6911 125.542 84.1347 125.542 64.9449C125.542 45.7551 141.415 30.1987 160.996 30.1987C180.576 30.1987 196.449 45.7551 196.449 64.9449C196.449 84.1347 180.576 99.6911 160.996 99.6911Z" fill="#FFCB03"/>
        <path d="M24.0176 220.313C24.0176 220.551 24.2137 220.743 24.4556 220.743H328V219.884H24.4556C24.2137 219.884 24.0176 220.076 24.0176 220.313Z" fill="#E6E6E6"/>
        <path d="M69.7551 220.281C69.7551 239.753 67.6696 254.005 89.3066 255.538C112.541 257.184 108.858 239.753 108.858 220.281C108.858 200.809 111.986 181.447 89.3066 185.024C78.6458 186.705 69.7551 200.809 69.7551 220.281Z" fill="#3F3D56"/>
        <path d="M102.602 244.808C100.874 244.808 99.4735 233.827 99.4735 220.281C99.4735 206.735 100.874 195.754 102.602 195.754C104.329 195.754 105.73 206.735 105.73 220.281C105.73 233.827 104.329 244.808 102.602 244.808Z" fill="#E6E6E6"/>
        <path d="M226.356 188.924C226.356 206.108 224.516 218.685 243.61 220.038C264.114 221.491 260.864 206.108 260.864 188.924C260.864 171.741 263.625 154.654 243.61 157.81C234.202 159.294 226.356 171.741 226.356 188.924Z" fill="#3F3D56"/>
        <path d="M255.343 210.569C253.818 210.569 252.582 200.878 252.582 188.924C252.582 176.97 253.818 167.28 255.343 167.28C256.868 167.28 258.104 176.97 258.104 188.924C258.104 200.878 256.868 210.569 255.343 210.569Z" fill="#E6E6E6"/>
        <path d="M196.71 220.025C196.71 239.497 194.624 253.75 216.261 255.283C239.496 256.929 235.813 239.497 235.813 220.025C235.813 200.553 238.941 181.191 216.261 184.768C205.601 186.449 196.71 200.553 196.71 220.025Z" fill="#3F3D56"/>
        <path d="M229.557 244.552C227.829 244.552 226.428 233.571 226.428 220.026C226.428 206.48 227.829 195.499 229.557 195.499C231.284 195.499 232.685 206.48 232.685 220.026C232.685 233.571 231.284 244.552 229.557 244.552Z" fill="#E6E6E6"/>
        <path d="M258.493 147.723V159.809L261.882 165.351L260.839 184.768L259.995 185.279L260.578 165.607C254.638 163.439 252.696 167.432 253.279 175.315L254.322 188.601L237.638 198.82L235.552 177.87L227.732 174.293L219.129 209.806H74.9956C69.0541 209.806 64.3064 204.961 64.5468 199.143L66.366 155.132L71.274 150.322L75.8204 98.7827C76.9542 85.9299 88.0744 76.1472 101.235 76.4252L191.398 78.3296C196.29 78.4329 201.122 79.3981 205.665 81.1789L227.471 89.7273L241.546 103.522L243.633 136.737L248.955 136.283C252.784 135.957 256.275 138.437 257.151 142.104L258.493 147.723Z" fill="#00BAC1"/>
        <path d="M211.83 195.499C208.95 195.499 206.616 193.211 206.616 190.389C206.616 187.567 208.95 185.279 211.83 185.279C214.709 185.279 217.043 187.567 217.043 190.389C217.043 193.211 214.709 195.499 211.83 195.499Z" fill="#3F3D56"/>
        <path d="M199.838 195.499C196.959 195.499 194.624 193.211 194.624 190.389C194.624 187.567 196.959 185.279 199.838 185.279C202.717 185.279 205.052 187.567 205.052 190.389C205.052 193.211 202.717 195.499 199.838 195.499Z" fill="#3F3D56"/>
        <path d="M83.0502 195.499C80.1707 195.499 77.8364 193.211 77.8364 190.389C77.8364 187.567 80.1707 185.279 83.0502 185.279C85.9296 185.279 88.2639 187.567 88.2639 190.389C88.2639 193.211 85.9296 195.499 83.0502 195.499Z" fill="#3F3D56"/>
        <path d="M71.0585 195.499C68.179 195.499 65.8447 193.211 65.8447 190.389C65.8447 187.567 68.179 185.279 71.0585 185.279C73.9379 185.279 76.2722 187.567 76.2722 190.389C76.2722 193.211 73.9379 195.499 71.0585 195.499Z" fill="#3F3D56"/>
        <path d="M79.1946 142.394H201.767C202.704 142.394 203.576 142.028 204.223 141.364C204.869 140.699 205.201 139.828 205.157 138.91L203.366 101.801C203.281 100.047 201.811 98.6543 200.02 98.6318L84.2825 97.1718C82.5736 97.1558 81.0917 98.3978 80.8722 100.075L75.828 138.644C75.704 139.592 76.0024 140.547 76.6465 141.265C77.2908 141.982 78.2195 142.394 79.1946 142.394Z" fill="white"/>
        <path d="M218.881 140.569H226.834C227.777 140.569 228.686 140.18 229.326 139.501C229.966 138.822 230.291 137.903 230.217 136.981L227.928 108.509C227.802 106.946 226.609 105.699 225.025 105.478L216.806 104.327C215.777 104.184 214.753 104.502 213.996 105.201C213.24 105.901 212.857 106.885 212.944 107.9L215.498 137.523C215.648 139.259 217.102 140.569 218.881 140.569Z" fill="white"/>
        <path d="M237.17 139.845C237.252 139.845 237.335 139.842 237.417 139.837L238.351 139.772C239.274 139.707 240.11 139.29 240.706 138.596C241.301 137.903 241.579 137.025 241.487 136.122L238.918 110.945C238.765 109.455 237.606 108.241 236.098 107.995C235.071 107.826 234.038 108.123 233.265 108.808C232.492 109.491 232.087 110.468 232.153 111.486L233.788 136.73C233.846 137.621 234.256 138.436 234.943 139.024C235.567 139.559 236.35 139.845 237.17 139.845Z" fill="white"/>
        <path d="M250.102 191.214L251.454 162.286C251.454 162.286 254.582 158.198 256.668 159.22C258.753 160.242 261.851 165.925 261.851 165.925C261.851 165.925 255.806 165.536 255.976 171.831C256.147 178.126 254.941 188.309 254.941 188.309L250.102 191.214Z" fill="#4B4863"/>
        <path d="M237.511 198.772L236.856 177.19L230.224 169.513C230.224 169.513 221.36 167.636 221.548 177.48C221.736 187.323 218.868 210.061 218.868 210.061L225.349 206.072C225.349 206.072 226.95 181.702 231.642 179.147C236.334 176.593 234.77 178.637 234.77 178.637L237.511 198.772Z" fill="#4B4863"/>
        <path d="M244.418 143.447L249.556 140.569H248.995C248.194 140.569 247.544 139.932 247.544 139.147V126.662C247.544 125.876 248.194 125.24 248.995 125.24H254.435C255.236 125.24 255.886 125.876 255.886 126.662V139.147C255.886 139.932 255.236 140.569 254.435 140.569H251.658L244.935 144.334L244.418 143.447Z" fill="#3F3D56"/>
        <path d="M237.475 162.154L241.484 161.024C242.452 160.751 243.463 161.299 243.742 162.248C244.02 163.198 243.461 164.188 242.492 164.461L238.484 165.591C237.515 165.864 236.504 165.316 236.226 164.367C235.947 163.417 236.507 162.426 237.475 162.154Z" fill="#3F3D56"/>
        <path d="M74.1715 125.878L91.3114 125.153C92.3183 125.111 93.1698 125.876 93.2132 126.863C93.2567 127.85 92.4757 128.684 91.4688 128.727L74.3289 129.452C73.322 129.494 72.4705 128.729 72.4271 127.742C72.3836 126.755 73.1646 125.921 74.1715 125.878Z" fill="#3F3D56"/>
        <path d="M58.0089 159.603L75.1488 158.878C76.1557 158.835 77.0072 159.6 77.0506 160.587C77.0941 161.574 76.3131 162.409 75.3062 162.451L58.1663 163.176C57.1594 163.219 56.3079 162.453 56.2645 161.467C56.221 160.48 57.002 159.645 58.0089 159.603Z" fill="#3F3D56"/>
        <path d="M127.888 198.564C106.004 198.564 88.264 181.178 88.264 159.73C88.264 138.283 106.004 120.896 127.888 120.896C149.772 120.896 167.513 138.283 167.513 159.73C167.513 181.178 149.772 198.564 127.888 198.564Z" fill="#3F3D56"/>
        <path d="M127.888 182.724C114.931 182.724 104.427 172.43 104.427 159.731C104.427 147.031 114.931 136.737 127.888 136.737C140.846 136.737 151.35 147.031 151.35 159.731C151.35 172.43 140.846 182.724 127.888 182.724Z" fill="#E6E6E6"/>
        <path d="M75.3903 82.6078C75.1909 84.8746 73.8358 86.6113 72.3638 86.4866C70.8918 86.362 69.8606 84.4236 70.0604 82.1559C70.1275 81.249 70.4153 80.3711 70.8996 79.5955L71.8684 70.0012L76.4526 70.5427L75.0109 79.9435C75.3527 80.7892 75.4828 81.7027 75.3903 82.6078Z" fill="#FFB6B6"/>
        <path d="M88.6584 27.0687C88.6584 27.0687 83.6003 25.6723 81.6559 28.0365C79.7115 30.4007 72.4589 53.6177 72.4589 53.6177L70.2071 78.605L77.3878 76.4754L80.1825 56.7695L84.8749 46.55L88.6584 27.0687Z" fill="#3F3D56"/>
        <path d="M90.3098 12.0374H105.726V26.3643H90.3098V12.0374Z" fill="#2F2E41"/>
        <path d="M98.181 19.3366C94.0298 19.3366 90.6645 16.0385 90.6645 11.9701C90.6645 7.90163 94.0298 4.60352 98.181 4.60352C102.332 4.60352 105.698 7.90163 105.698 11.9701C105.698 16.0385 102.332 19.3366 98.181 19.3366Z" fill="#FFB6B6"/>
        <path d="M101.739 0.0548923C106.543 0.783612 106.314 2.53308 107.852 3.44127C110.562 5.04129 111.631 9.66168 110.2 12.7106C109.818 13.5252 109.012 14.6366 109.403 15.8365C109.703 16.7576 110.569 17.301 110.732 17.3994C112.063 18.2049 111.193 17.2467 111.795 17.9204C112.459 18.6641 111.43 19.7145 112.061 21.0463C112.62 22.227 113.772 22.1273 113.921 22.8697C114.179 24.1482 111.221 26.7187 108.074 26.5166C105.271 26.3366 103.189 24.0146 102.492 21.8278C102.025 20.3629 101.824 17.8432 103.024 16.618C103.192 16.4461 103.652 16.03 104.087 15.3155C104.431 14.7501 104.884 14.0058 104.619 13.4921C104.336 12.9447 103.534 13.2328 103.024 12.7106C102.332 12.0024 103.154 10.8059 103.024 9.58472C102.803 7.51695 99.8138 5.02998 96.6448 5.41687C93.0498 5.85575 91.7311 9.68701 91.5947 10.1057C91.312 10.9735 91.3176 11.813 91.3289 13.4921C91.3451 15.9017 91.3553 17.4119 92.1263 18.9624C93.2353 21.1924 94.6482 20.9514 95.05 22.6092C95.6766 25.194 92.7292 27.7899 92.3921 28.0795C89.8928 30.2268 86.1179 30.8724 85.4815 29.903C84.9081 29.0293 87.4256 27.6704 87.342 24.9536C87.2697 22.5993 85.3256 21.8817 85.7473 20.2648C86.2114 18.4851 88.6879 18.8911 89.7342 16.8784C90.7107 14.9999 88.9111 13.9576 89.2026 10.1057C89.2643 9.29087 89.5254 6.95231 91.0632 4.6354C91.7406 3.61468 92.4296 2.57657 93.7211 2.0305C95.1668 1.41918 99.1978 -0.330566 101.739 0.0548923Z" fill="#2F2E41"/>
        <path d="M104.928 6.56705C104.733 8.18011 102.262 8.97061 101.207 9.17195C100.761 9.25723 99.2513 9.54539 97.7519 8.91146C97.1977 8.67714 96.9958 8.46524 96.423 8.39048C95.6474 8.2893 95.2566 8.57841 94.0308 8.91146C92.6678 9.28182 91.9862 9.46701 91.6387 9.17195C91.0705 8.68964 91.507 7.11178 92.1703 6.04607C93.3967 4.0755 95.6417 3.4653 96.6887 3.18067C97.885 2.8555 100.313 2.19563 102.536 3.44116C102.833 3.60769 105.126 4.92817 104.928 6.56705Z" fill="#2F2E41"/>
        <path d="M68.3406 151.503L64.5042 151.591L62.3658 134.7L68.0273 134.569L68.3406 151.503Z" fill="#FFB6B6"/>
        <path d="M55.1785 159.347C55.1785 159.982 55.6384 160.497 56.2058 160.497H63.8206C63.8206 160.497 64.57 157.545 67.6253 156.274L67.8362 160.497H71.7644L71.2885 153.707C71.2885 153.707 72.3393 150.075 70.157 148.218C67.9746 146.361 69.7422 146.619 69.7422 146.619L68.8837 142.417L62.9477 143.101L62.9041 149.698L60.0234 156.246L55.7981 158.291C55.422 158.473 55.1785 158.888 55.1785 159.347Z" fill="#2F2E41"/>
        <path d="M85.7827 118.419L82.0312 117.627L83.9754 100.713L89.5117 101.881L85.7827 118.419Z" fill="#FFB6B6"/>
        <path d="M71.1157 123.035C70.9644 123.652 71.289 124.258 71.8407 124.388L79.2451 126.13C79.2451 126.13 80.677 123.431 83.9505 122.895L83.1497 127.049L86.9694 127.948L88.1239 121.237C88.1239 121.237 90.011 117.945 88.3312 115.64C86.6515 113.335 88.3087 113.991 88.3087 113.991L88.4749 109.708L82.54 109.015L80.9262 115.42L76.5654 121.128L71.9696 122.15C71.5606 122.241 71.225 122.589 71.1157 123.035Z" fill="#2F2E41"/>
        <path d="M92.9563 20.2349L102.341 20.7458L104.948 25.8556L114.854 30.9653L113.29 56.1619L116.864 68.8351L116.418 72.3542L81.4861 71.3322L83.5716 33.5202L83.0502 27.3885L89.8281 25.3446L92.9563 20.2349Z" fill="#CCCCCC"/>
        <path d="M116.157 67.4999C116.157 67.4999 123.978 81.0427 116.157 82.9579C112.678 83.8099 108.993 84.3839 105.973 84.7588C102.358 85.2076 99.0298 82.7753 98.4307 79.2523L90.0887 107.356L81.7467 105.312L80.1826 90.6828L70.0466 100.617L71.3192 140.569L61.9345 140.058L52.0284 96.6254C52.0284 96.6254 51.507 93.5596 59.3276 89.4718C67.1482 85.384 81.2254 72.0987 81.2254 72.0987L105.209 64.9451L116.157 67.4999Z" fill="#2F2E41"/>
        <path d="M99.734 76.4418L113.29 67.7552L96.6058 50.3821C96.6058 50.3821 87.2211 46.8053 84.6142 60.6016C82.0073 74.3979 80.4432 86.6612 80.4432 86.6612L99.734 76.4418Z" fill="#2F2E41"/>
        <path d="M127.703 50.5089L127.109 46.5498C126.676 43.6645 128.629 41.1464 131.277 40.5266V38.8852C131.277 37.4742 132.445 36.3303 133.884 36.3303C135.324 36.3303 136.491 37.4742 136.491 38.8852V41.0747L146.397 43.134V40.4181C146.397 39.0071 147.564 37.8632 149.004 37.8632C150.444 37.8632 151.611 39.0071 151.611 40.4181V42.9993L152.596 42.7475C155.537 41.9956 157.86 45.3027 156.031 47.6816C156.007 47.7124 155.983 47.7431 155.959 47.7739C153.517 50.8508 152.819 53.5858 152.819 53.5858L154.564 62.8164L152.577 82.0073C152.321 84.4807 150.149 86.3341 147.614 86.2421L128.327 85.542C125.794 85.45 123.766 83.4484 123.697 80.9651C123.451 72.1198 123.423 52.8687 127.703 50.5089Z" fill="#3F3D56"/>
        <path d="M144.971 83.669C145.242 83.669 145.47 83.4646 145.491 83.1962L146.537 69.5211C146.559 69.2397 146.343 68.9944 146.056 68.9735C145.772 68.9515 145.519 69.1634 145.497 69.4448L144.451 83.1198C144.429 83.4013 144.645 83.6465 144.932 83.6675C144.945 83.6685 144.958 83.669 144.971 83.669Z" fill="#00EAF2"/>
        <path d="M152.82 54.0969C153.075 54.0969 153.297 53.914 153.335 53.66C153.377 53.3808 153.18 53.1213 152.895 53.0804L127.697 49.4612C127.413 49.4207 127.148 49.6134 127.106 49.8926C127.064 50.1717 127.261 50.4312 127.546 50.4721L152.744 54.0914C152.77 54.0951 152.795 54.0969 152.82 54.0969Z" fill="#00EAF2"/>
        <path d="M300.838 202.15C301.014 201.859 301.774 202.17 301.913 201.907C302.052 201.644 301.346 201.244 300.943 200.331C300.87 200.166 300.412 199.127 300.751 198.807C301.395 198.2 304.338 200.706 305.368 199.886C305.594 199.706 305.752 199.346 306.436 198.763C306.709 198.531 306.873 198.426 307.032 198.465C307.258 198.521 307.276 198.817 307.519 199.4C307.882 200.274 308.097 200.221 308.309 200.919C308.466 201.437 308.43 201.738 308.615 201.796C308.877 201.879 309.118 201.33 309.45 201.379C309.788 201.429 309.993 202.069 310.058 202.548C310.179 203.446 309.842 204.039 309.656 204.662C309.453 205.34 309.333 206.37 309.801 207.828L314.436 220.627C313.413 218.001 310.45 210.801 309.205 208.126C308.845 207.354 308.449 206.571 307.634 206.261C306.849 205.964 305.772 206.142 304.398 205.817C304.238 205.779 303.793 205.668 303.737 205.412C303.691 205.2 303.952 205.081 303.912 204.883C303.858 204.616 303.343 204.613 302.711 204.305C302.264 204.088 301.986 203.831 301.747 203.609C301.675 203.542 300.604 202.536 300.838 202.15Z" fill="#F2F2F2"/>
        <path d="M319.073 208.887C319.269 208.888 319.333 209.343 319.505 209.334C319.677 209.326 319.673 208.871 320.014 208.413C320.076 208.33 320.464 207.81 320.722 207.881C321.212 208.015 320.806 210.154 321.514 210.413C321.669 210.47 321.895 210.442 322.384 210.603C322.579 210.667 322.679 210.716 322.705 210.804C322.743 210.929 322.6 211.023 322.378 211.307C322.045 211.735 322.133 211.823 321.845 212.126C321.631 212.351 321.47 212.42 321.494 212.526C321.528 212.676 321.873 212.634 321.944 212.807C322.016 212.985 321.755 213.268 321.534 213.437C321.119 213.754 320.725 213.764 320.359 213.854C319.961 213.952 319.41 214.191 318.815 214.837L313.743 220.759C314.763 219.509 317.514 216.007 318.494 214.636C318.777 214.241 319.055 213.824 318.975 213.343C318.897 212.879 318.498 212.412 318.264 211.658C318.236 211.57 318.163 211.324 318.276 211.223C318.369 211.139 318.503 211.231 318.591 211.155C318.709 211.052 318.562 210.803 318.534 210.41C318.514 210.133 318.563 209.925 318.605 209.746C318.617 209.692 318.812 208.886 319.073 208.887Z" fill="#F2F2F2"/>
        <path d="M315.162 209.748L315.28 208.714L315.226 208.636C314.976 208.274 314.849 207.92 314.847 207.584C314.847 207.531 314.85 207.477 314.852 207.423C314.862 207.207 314.875 206.939 314.732 206.627C314.653 206.453 314.428 206.05 314.09 206.1C314 206.112 313.931 206.153 313.879 206.201L313.855 206.164C313.75 206.007 313.666 205.939 313.586 205.874C313.524 205.825 313.461 205.773 313.361 205.651C313.317 205.598 313.283 205.551 313.254 205.512C313.167 205.392 313.053 205.25 312.852 205.253C312.637 205.263 312.524 205.437 312.45 205.552C312.317 205.758 312.256 205.906 312.216 206.004C312.202 206.04 312.185 206.081 312.177 206.093C312.108 206.193 311.545 206.1 311.333 206.066C310.857 205.988 310.444 205.92 310.275 206.215C310.153 206.425 310.243 206.704 310.551 207.065C310.647 207.177 310.749 207.262 310.84 207.329C310.765 207.373 310.698 207.44 310.67 207.546C310.606 207.797 310.826 208.048 311.323 208.293C311.447 208.354 311.613 208.436 311.846 208.476C311.956 208.494 312.054 208.499 312.139 208.501C312.141 208.549 312.152 208.601 312.182 208.654C312.269 208.812 312.451 208.886 312.725 208.868C313.026 208.853 313.274 208.797 313.493 208.747C313.685 208.704 313.849 208.668 313.979 208.676C314.218 208.695 314.403 208.883 314.62 209.127L315.162 209.748Z" fill="#F2F2F2"/>
        <path d="M314.614 203.595L315.604 203.969L315.695 203.937C316.116 203.793 316.497 203.762 316.829 203.845C316.882 203.859 316.934 203.875 316.987 203.891C317.197 203.955 317.458 204.035 317.803 203.979C317.995 203.948 318.45 203.837 318.486 203.504C318.497 203.415 318.474 203.34 318.44 203.278L318.482 203.265C318.664 203.205 318.752 203.143 318.836 203.083C318.901 203.038 318.968 202.99 319.113 202.927C319.177 202.899 319.232 202.878 319.278 202.861C319.418 202.808 319.588 202.736 319.636 202.545C319.681 202.339 319.537 202.188 319.443 202.088C319.273 201.91 319.142 201.815 319.056 201.752C319.024 201.729 318.988 201.703 318.978 201.692C318.897 201.601 319.132 201.091 319.219 200.899C319.417 200.467 319.588 200.093 319.34 199.858C319.163 199.689 318.866 199.704 318.431 199.905C318.296 199.967 318.186 200.042 318.097 200.111C318.073 200.029 318.023 199.948 317.926 199.895C317.695 199.771 317.391 199.916 317.023 200.325C316.931 200.426 316.808 200.563 316.71 200.774C316.664 200.873 316.635 200.966 316.611 201.045C316.563 201.035 316.509 201.032 316.449 201.047C316.271 201.09 316.151 201.243 316.1 201.508C316.038 201.797 316.031 202.047 316.024 202.267C316.018 202.459 316.012 202.624 315.971 202.745C315.892 202.967 315.659 203.095 315.363 203.239L314.614 203.595Z" fill="#F2F2F2"/>
        <path d="M315.162 200.55L315.28 199.517L315.226 199.438C314.976 199.076 314.849 198.722 314.847 198.387C314.847 198.333 314.85 198.28 314.852 198.225C314.862 198.01 314.875 197.742 314.732 197.429C314.653 197.255 314.428 196.852 314.09 196.902C314 196.914 313.931 196.955 313.879 197.003L313.855 196.966C313.75 196.809 313.666 196.742 313.586 196.677C313.524 196.627 313.461 196.576 313.361 196.454C313.317 196.401 313.283 196.354 313.254 196.314C313.167 196.195 313.053 196.053 312.852 196.055C312.637 196.065 312.524 196.239 312.45 196.355C312.317 196.56 312.256 196.708 312.216 196.807C312.202 196.843 312.185 196.883 312.177 196.896C312.108 196.995 311.545 196.902 311.333 196.868C310.857 196.79 310.444 196.723 310.275 197.017C310.153 197.228 310.243 197.506 310.551 197.867C310.647 197.979 310.749 198.065 310.84 198.132C310.765 198.175 310.698 198.243 310.67 198.349C310.606 198.599 310.826 198.85 311.323 199.096C311.447 199.157 311.613 199.239 311.846 199.278C311.956 199.297 312.054 199.301 312.139 199.304C312.141 199.352 312.152 199.403 312.182 199.457C312.269 199.614 312.451 199.689 312.725 199.671C313.026 199.655 313.274 199.599 313.493 199.55C313.685 199.507 313.849 199.47 313.979 199.479C314.218 199.498 314.403 199.686 314.62 199.93L315.162 200.55Z" fill="#F2F2F2"/>
        <path d="M314.083 220.61L314.304 220.474L314.561 220.503C314.565 220.48 314.579 220.426 314.601 220.341C314.716 219.879 315.067 218.473 315.361 216.259C315.565 214.713 315.681 213.123 315.705 211.534C315.729 209.942 315.652 208.737 315.591 207.769C315.544 207.038 315.488 206.343 315.432 205.665C315.284 203.855 315.145 202.144 315.249 200.251C315.272 199.829 315.32 198.949 315.844 198.013C316.148 197.47 316.567 196.988 317.09 196.581L316.765 196.18C316.188 196.631 315.725 197.164 315.387 197.767C314.806 198.805 314.753 199.764 314.728 200.224C314.622 202.151 314.763 203.877 314.912 205.705C314.967 206.38 315.024 207.073 315.07 207.801C315.131 208.76 315.207 209.955 315.184 211.526C315.16 213.096 315.046 214.666 314.844 216.193C314.554 218.379 314.208 219.765 314.094 220.22C314.033 220.463 314.021 220.514 314.083 220.61Z" fill="#F2F2F2"/>
        <path d="M318.046 197.392C318.067 197.392 318.089 197.392 318.111 197.39C318.555 197.367 318.966 197.107 319.333 196.617C319.505 196.386 319.593 196.123 319.769 195.599C319.796 195.518 319.929 195.108 320.009 194.543C320.062 194.174 320.055 194.02 319.981 193.884C319.898 193.732 319.764 193.627 319.613 193.555C319.62 193.506 319.614 193.456 319.593 193.404C319.504 193.191 319.268 193.219 319.14 193.233C319.075 193.241 318.995 193.251 318.908 193.247C318.771 193.24 318.697 193.2 318.585 193.141C318.479 193.083 318.346 193.012 318.149 192.972C317.761 192.893 317.436 193.001 317.329 193.036C316.765 193.22 316.487 193.65 316.165 194.147C316.101 194.247 315.881 194.611 315.736 195.109C315.631 195.468 315.646 195.628 315.677 195.746C315.741 195.99 315.893 196.13 316.277 196.438C316.679 196.761 316.881 196.923 317.054 197.021C317.457 197.249 317.71 197.392 318.046 197.392Z" fill="#F2F2F2"/>
        <path d="M9.27963 143.936L9.04032 125.676L16.192 123.748L15.9757 143.938L17.6211 158.858L17.5784 158.873C18.2682 159.553 18.8278 160.638 19.0661 161.921C19.5009 164.261 18.7039 166.364 17.286 166.617C15.868 166.87 14.366 165.178 13.9312 162.837C13.7527 161.876 13.7846 160.958 13.979 160.189L13.9153 160.213L9.27963 143.936Z" fill="#DEA7AE"/>
        <path d="M22.2865 101.014C22.2865 101.014 19.0408 98.5817 16.7498 102.137C14.4588 105.692 8.15846 123.654 8.15846 123.654C8.15846 123.654 6.33645 131.887 6.77015 133.104C7.20386 134.32 7.77663 145.024 7.77663 145.024L16.728 143.433L16.5115 133.104L25.0415 119.76L22.2865 101.014Z" fill="#CCCCCC"/>
        <path d="M82.2364 94.3828L69.6921 107.885L63.1233 104.509L77.3455 89.9006L86.5359 77.898L86.5781 77.9151C86.5476 76.9569 86.8945 75.7896 87.6138 74.6929C88.9265 72.6917 90.9734 71.6887 92.1858 72.4526C93.3981 73.2164 93.3169 75.4579 92.0042 77.459C91.4653 78.2805 90.8025 78.93 90.1247 79.3619L90.1875 79.3875L82.2364 94.3828Z" fill="#DEA7AE"/>
        <path d="M42.1169 117.043C42.1169 117.043 42.7941 120.992 46.9446 119.927C51.0951 118.862 68.2113 109.952 68.2113 109.952C68.2113 109.952 75.2776 105.156 75.8079 103.977C76.3382 102.798 83.3762 94.5931 83.3762 94.5931L75.727 89.7666L68.6898 97.4592L53.1618 101.502L42.1169 117.043Z" fill="#CCCCCC"/>
        <path d="M39.7399 90.6921C34.2379 90.6921 29.7776 86.3208 29.7776 80.9286C29.7776 75.5363 34.2379 71.165 39.7399 71.165C45.2419 71.165 49.7021 75.5363 49.7021 80.9286C49.7021 86.3208 45.2419 90.6921 39.7399 90.6921Z" fill="#DEA7AE"/>
        <path d="M22.2638 251.969L28.4469 251.968L31.3882 228.595L22.2626 228.596L22.2638 251.969Z" fill="#DEA7AE"/>
        <path d="M43.4476 251.831C43.6401 252.149 43.7417 253.175 43.7417 253.544C43.7417 254.68 42.8022 255.601 41.6432 255.601H22.495C21.7043 255.601 21.0634 254.973 21.0634 254.198V253.417C21.0634 253.417 20.1161 251.068 22.0663 248.174C22.0663 248.174 24.4902 250.44 28.112 246.891L29.1801 244.995L36.9113 250.536L41.1965 251.053C42.1341 251.166 42.9653 251.035 43.4476 251.831Z" fill="#2F2E41"/>
        <path d="M39.9902 251.969L46.1732 251.968L49.1145 228.595L39.9889 228.596L39.9902 251.969Z" fill="#DEA7AE"/>
        <path d="M61.1742 251.831C61.3667 252.149 61.4683 253.175 61.4683 253.544C61.4683 254.68 60.5287 255.601 59.3697 255.601H40.2215C39.4309 255.601 38.7899 254.973 38.7899 254.198V253.417C38.7899 253.417 37.8426 251.068 39.7928 248.174C39.7928 248.174 42.2167 250.44 45.8386 246.891L46.9066 244.995L54.6378 250.536L58.9231 251.053C59.8606 251.166 60.6919 251.035 61.1742 251.831Z" fill="#2F2E41"/>
        <path d="M17.8783 150.533L58.0242 152.577L49.1608 241.486L40.2974 240.976L37.1692 187.323L35.8657 168.162L30.5494 239.505L21.5279 239.443L17.8783 150.533Z" fill="#2F2E41"/>
        <path d="M29.7713 93.3039L44.9761 92.793L55.1567 102.715V135.218L59.1323 155.643C59.1323 155.643 32.3928 153.088 27.1498 158.198C21.9067 163.307 12.4693 159.73 12.4693 159.73L17.188 132.707L19.2852 101.48L29.7713 93.3039Z" fill="#CCCCCC"/>
        <path d="M35.3541 90.4937L43.8292 88.5315L45.137 83.4957C45.137 83.4957 45.1684 81.1219 46.312 80.8572C47.4555 80.5924 49.4724 78.9422 49.4724 78.9422L47.5184 75.8448C47.5184 75.8448 52.2276 75.3462 50.8139 74.4902C49.4002 73.6342 49.1957 74.0199 48.995 71.9532C48.5798 67.677 35.2292 68.3012 34.1922 70.6475C34.1922 70.6475 32.4769 71.0446 31.6035 72.43C30.7301 73.8155 30.2935 74.5082 29.7217 74.6406C29.15 74.773 28.8483 76.0261 28.8483 76.0261C28.8483 76.0261 26.8314 77.6763 27.5383 78.1043C28.2451 78.5323 28.7854 80.7737 28.7854 80.7737C28.7854 80.7737 26.9036 82.9842 31.1131 87.9259L33.3558 91.4618L35.3541 90.4937Z" fill="#2F2E41"/>
        <path d="M24.4712 104.853L23.8771 100.894C23.4442 98.0085 25.3969 95.4904 28.0452 94.8706V93.2292C28.0452 91.8182 29.2124 90.6743 30.6521 90.6743C32.0918 90.6743 33.259 91.8182 33.259 93.2292V95.4187L43.1651 97.478V94.7621C43.1651 93.3511 44.3322 92.2072 45.772 92.2072C47.2117 92.2072 48.3788 93.3511 48.3788 94.7621V97.3433L49.3637 97.0915C52.3047 96.3396 54.628 99.6467 52.7988 102.026C52.7752 102.056 52.7512 102.087 52.7267 102.118C50.2849 105.195 49.5872 107.93 49.5872 107.93L51.3314 117.16L49.3448 136.351C49.0888 138.825 46.9167 140.678 44.3817 140.586L25.0945 139.886C22.5615 139.794 20.5336 137.792 20.4646 135.309C20.2189 126.464 20.1907 107.213 24.4712 104.853Z" fill="#3F3D56"/>
        <path d="M41.739 138.013C42.0094 138.013 42.238 137.809 42.2583 137.54L43.3049 123.865C43.3265 123.584 43.1112 123.338 42.824 123.317C42.5394 123.296 42.2866 123.507 42.2652 123.789L41.2186 137.464C41.197 137.745 41.4124 137.991 41.6995 138.011C41.7128 138.012 41.726 138.013 41.739 138.013Z" fill="#FFB6B6"/>
        <path d="M49.5881 108.441C49.8424 108.441 50.0651 108.258 50.1031 108.004C50.1448 107.725 49.9478 107.465 49.6629 107.424L24.4653 103.805C24.1804 103.765 23.9157 103.957 23.8739 104.237C23.8322 104.516 24.0292 104.775 24.3141 104.816L49.5117 108.435C49.5374 108.439 49.5628 108.441 49.5881 108.441Z" fill="#FFB6B6"/>
        <path d="M48.4381 138.831L58.2849 115.531L55.678 116.553L45.1912 137.197L48.4381 138.831Z" fill="#3F3D56"/>
        <path d="M-13 255.571C-13 255.808 -12.8039 256 -12.562 256H290.982V255.142H-12.562C-12.8039 255.142 -13 255.334 -13 255.571Z" fill="#E6E6E6"/>
        <path d="M94.5933 73.4118C92.9023 74.9708 90.7109 75.3794 89.6987 74.3246C88.6865 73.2698 89.2369 71.1513 90.9287 69.5919C91.5957 68.9599 92.4075 68.4937 93.2961 68.2323L100.546 61.7153L103.594 65.1147L96.1233 71.1783C95.8026 72.0319 95.2779 72.7977 94.5933 73.4118Z" fill="#FFB6B6"/>
        <path d="M100.797 39.6476C100.797 39.6476 109.636 28.8564 113.029 29.6878C117.2 30.7097 116.157 34.7975 120.472 45.7304C121.552 48.4684 122.687 51.1221 120.506 53.1348L114.494 58.6844L101.677 69.276L96.5202 63.9857L106.764 51.0393L100.797 39.6476Z" fill="#3F3D56"/>
    </g>
    <defs>
        <clipPath id="clip0_903_27642">
            <rect width="341" height="256" fill="white" transform="matrix(-1 0 0 1 328 0)"/>
        </clipPath>
    </defs>
</svg>
