<svg width="16" height="16" viewBox="0 0 16 16" fill="none" xmlns="http://www.w3.org/2000/svg">
    <path d="M8.00004 14.6666C9.76815 14.6666 11.4638 13.9642 12.7141 12.714C13.9643 11.4637 14.6667 9.76803 14.6667 7.99992C14.6667 6.23181 13.9643 4.53612 12.7141 3.28587C11.4638 2.03563 9.76815 1.33325 8.00004 1.33325C6.23193 1.33325 4.53624 2.03563 3.286 3.28587C2.03575 4.53612 1.33337 6.23181 1.33337 7.99992C1.33337 9.76803 2.03575 11.4637 3.286 12.714C4.53624 13.9642 6.23193 14.6666 8.00004 14.6666ZM6.95837 10.0833H7.58337V8.41659H6.95837H6.33337V7.16659H6.95837H8.20837H8.83337V7.79159V10.0833H9.04171H9.66671V11.3333H9.04171H6.95837H6.33337V10.0833H6.95837ZM8.83337 6.33325H7.16671V4.66659H8.83337V6.33325Z" fill="#CB2602"/>
</svg>
