<svg width="31" height="24" viewBox="0 0 31 24" fill="none" xmlns="http://www.w3.org/2000/svg">
<path d="M7.43398 0.169312C8.40645 0.169312 9.33908 0.55562 10.0267 1.24325C10.7143 1.93089 11.1007 2.86352 11.1007 3.83598C11.1007 4.80844 10.7143 5.74107 10.0267 6.4287C9.33908 7.11634 8.40645 7.50265 7.43398 7.50265C6.46152 7.50265 5.52889 7.11634 4.84126 6.4287C4.15363 5.74107 3.76732 4.80844 3.76732 3.83598C3.76732 2.86352 4.15363 1.93089 4.84126 1.24325C5.52889 0.55562 6.46152 0.169312 7.43398 0.169312ZM24.3007 0.169312C25.2731 0.169312 26.2057 0.55562 26.8934 1.24325C27.581 1.93089 27.9673 2.86352 27.9673 3.83598C27.9673 4.80844 27.581 5.74107 26.8934 6.4287C26.2057 7.11634 25.2731 7.50265 24.3007 7.50265C23.3282 7.50265 22.3956 7.11634 21.7079 6.4287C21.0203 5.74107 20.634 4.80844 20.634 3.83598C20.634 2.86352 21.0203 1.93089 21.7079 1.24325C22.3956 0.55562 23.3282 0.169312 24.3007 0.169312ZM0.833984 13.8597C0.833984 11.1601 3.02482 8.96931 5.7244 8.96931H7.68148C8.41023 8.96931 9.10232 9.12973 9.72565 9.41389C9.66607 9.74389 9.63857 10.0876 9.63857 10.436C9.63857 12.1868 10.4086 13.7589 11.6232 14.836C11.614 14.836 11.6048 14.836 11.5911 14.836H1.81023C1.27398 14.836 0.833984 14.396 0.833984 13.8597ZM19.4102 14.836C19.4011 14.836 19.3919 14.836 19.3782 14.836C20.5973 13.7589 21.3627 12.1868 21.3627 10.436C21.3627 10.0876 21.3307 9.74848 21.2757 9.41389C21.899 9.12514 22.5911 8.96931 23.3198 8.96931H25.2769C27.9765 8.96931 30.1673 11.1601 30.1673 13.8597C30.1673 14.4006 29.7273 14.836 29.1911 14.836H19.4102ZM11.1007 10.436C11.1007 9.26903 11.5642 8.14987 12.3894 7.32471C13.2145 6.49955 14.3337 6.03598 15.5007 6.03598C16.6676 6.03598 17.7868 6.49955 18.6119 7.32471C19.4371 8.14987 19.9007 9.26903 19.9007 10.436C19.9007 11.6029 19.4371 12.7221 18.6119 13.5472C17.7868 14.3724 16.6676 14.836 15.5007 14.836C14.3337 14.836 13.2145 14.3724 12.3894 13.5472C11.5642 12.7221 11.1007 11.6029 11.1007 10.436ZM6.70065 22.4122C6.70065 19.0389 9.4369 16.3026 12.8102 16.3026H18.1911C21.5644 16.3026 24.3007 19.0389 24.3007 22.4122C24.3007 23.086 23.7552 23.636 23.0769 23.636H7.9244C7.25065 23.636 6.70065 23.0906 6.70065 22.4122Z" fill="white"/>
</svg>
