
<svg width="24" height="24" viewBox="0 0 24 24" fill="none" xmlns="http://www.w3.org/2000/svg">
<path d="M22.9942 11.7587C22.9942 12.4462 22.4213 12.9847 21.7719 12.9847H20.5496L20.5763 19.1035C20.5763 19.2066 20.5687 19.3097 20.5572 19.4128V20.0278C20.5572 20.8719 19.8735 21.5556 19.0293 21.5556H18.4181C18.3761 21.5556 18.3341 21.5556 18.2921 21.5517C18.2386 21.5556 18.1851 21.5556 18.1317 21.5556H16.8902H15.9735C15.1293 21.5556 14.4456 20.8719 14.4456 20.0278V19.1111V16.6667C14.4456 15.9906 13.8994 15.4444 13.2233 15.4444H10.7786C10.1025 15.4444 9.55628 15.9906 9.55628 16.6667V19.1111V20.0278C9.55628 20.8719 8.87255 21.5556 8.02838 21.5556H7.11163H5.89313C5.83583 21.5556 5.77853 21.5517 5.72124 21.5479C5.6754 21.5517 5.62956 21.5556 5.58372 21.5556H4.97256C4.12839 21.5556 3.44465 20.8719 3.44465 20.0278V15.75C3.44465 15.7156 3.44465 15.6774 3.44847 15.6431V12.9847H2.22233C1.53477 12.9847 1 12.45 1 11.7587C1 11.4149 1.11459 11.1094 1.38198 10.842L11.1759 2.30556C11.4432 2.03819 11.7488 2 12.0162 2C12.2836 2 12.5892 2.07639 12.8184 2.26736L22.5741 10.842C22.8796 11.1094 23.0324 11.4149 22.9942 11.7587Z" fill="#1E1B4D"/>
</svg>
