<svg width="305" height="216" viewBox="0 0 605 416" fill="none" xmlns="http://www.w3.org/2000/svg">
<g clip-path="url(#clip0_1024_23368)">
<path d="M604.41 415.913H0C6.62246 399.024 18.853 384.696 36.0938 380.446C61.3149 374.237 88.0052 391.311 113.17 384.891C127.467 381.246 138.722 370.629 150.549 361.81C195.171 328.546 256.314 318.713 309.114 336.321C336.712 345.52 361.86 361.609 390.132 368.445C426.691 377.292 464.922 369.955 502.517 368.746C539.132 367.573 591.594 382.492 604.41 415.913Z" fill="#F3F5FD"/>
<path d="M389.131 5.95435H223.52C210.838 5.95435 200.557 16.2352 200.557 28.9173V387.082C200.557 399.764 210.838 410.045 223.52 410.045H389.131C401.813 410.045 412.094 399.764 412.094 387.082V28.9173C412.094 16.2352 401.813 5.95435 389.131 5.95435Z" fill="white"/>
<path d="M389.132 416H223.52C215.854 415.991 208.504 412.941 203.083 407.52C197.662 402.099 194.612 394.749 194.604 387.082V28.918C194.612 21.2514 197.662 13.9014 203.083 8.48022C208.504 3.05902 215.854 0.0092876 223.52 0L389.132 0C396.799 0.0092876 404.149 3.05902 409.57 8.48022C414.99 13.9014 418.04 21.2514 418.049 28.918V387.082C418.04 394.749 414.99 402.099 409.57 407.52C404.149 412.941 396.799 415.991 389.132 416ZM223.52 11.9094C219.01 11.914 214.687 13.7074 211.498 16.8961C208.309 20.0848 206.515 24.4083 206.51 28.918V387.082C206.516 391.591 208.309 395.913 211.497 399.101C214.686 402.29 219.008 404.083 223.517 404.089H389.129C393.638 404.083 397.96 402.29 401.148 399.101C404.336 395.913 406.13 391.591 406.135 387.082V28.918C406.13 24.4093 404.336 20.0868 401.148 16.8986C397.96 13.7105 393.638 11.9169 389.129 11.9114L223.52 11.9094Z" fill="#DEE8F5"/>
<path d="M270.063 5.95435H342.586V20.026C342.586 21.4091 342.314 22.7787 341.785 24.0565C341.255 25.3344 340.479 26.4954 339.501 27.4734C338.523 28.4514 337.362 29.2272 336.084 29.7564C334.806 30.2857 333.437 30.558 332.054 30.5579H280.595C277.802 30.5579 275.123 29.4482 273.147 27.473C271.172 25.4977 270.062 22.8187 270.062 20.0253V5.95435H270.063Z" fill="#DEE8F5"/>
<path d="M341.058 92.9419C341.057 99.8112 339.019 106.526 335.202 112.237C331.385 117.949 325.961 122.4 319.614 125.028C313.267 127.656 306.284 128.343 299.547 127.002C292.809 125.662 286.621 122.353 281.764 117.495C276.907 112.638 273.6 106.449 272.26 99.7111C270.921 92.9736 271.609 85.9902 274.239 79.644C276.868 73.2979 281.32 67.8739 287.032 64.0581C292.744 60.2422 299.46 58.2059 306.329 58.2065C310.895 58.1892 315.419 59.0759 319.641 60.8155C323.863 62.555 327.699 65.1131 330.927 68.3421C334.155 71.5711 336.713 75.4072 338.451 79.6293C340.19 83.8514 341.076 88.3758 341.058 92.9419Z" fill="#C1C0D2"/>
<path d="M306.326 96.5206C313.921 96.5206 320.078 90.3637 320.078 82.7688C320.078 75.174 313.921 69.0171 306.326 69.0171C298.731 69.0171 292.574 75.174 292.574 82.7688C292.574 90.3637 298.731 96.5206 306.326 96.5206Z" fill="white"/>
<path d="M331.354 117.022C328.114 120.391 324.228 123.071 319.927 124.902C315.627 126.733 311.002 127.677 306.328 127.678C301.654 127.678 297.028 126.736 292.727 124.906C288.426 123.076 284.539 120.397 281.299 117.028C285.982 106.561 295.437 99.4077 306.33 99.4077C317.222 99.4077 326.67 106.554 331.354 117.022Z" fill="white"/>
<path d="M379.5 152.715H233.15V184.642H379.5V152.715Z" fill="#1E1B4D"/>
<path d="M379.5 207.895H233.15V239.822H379.5V207.895Z" fill="#C1C0D2"/>
<path d="M482.84 135.953C482.84 135.953 477.413 133.622 477.413 119.364L466.504 118.253C466.504 118.253 468.752 130.852 463.646 135.327L482.84 135.953Z" fill="#E98862"/>
<path d="M483.061 113.372C482.67 117.73 480.658 121.991 476.982 123.69C472.985 125.669 468.565 126.639 464.107 126.517C452.264 126.517 452.397 99.5778 457.557 93.9211C462.716 88.2644 479.376 90.214 482.083 98.7403C483.48 103.154 483.432 109.224 483.061 113.372Z" fill="#E98862"/>
<path d="M465.88 111.445C466.42 111.445 466.858 111.007 466.858 110.467C466.858 109.927 466.42 109.49 465.88 109.49C465.34 109.49 464.902 109.927 464.902 110.467C464.902 111.007 465.34 111.445 465.88 111.445Z" fill="#00BAC1"/>
<path d="M467.803 108.531C467.779 108.53 467.755 108.529 467.731 108.525L465.136 108.12C465.074 108.113 465.015 108.093 464.962 108.063C464.908 108.032 464.861 107.991 464.824 107.942C464.787 107.893 464.76 107.836 464.744 107.776C464.729 107.717 464.726 107.654 464.736 107.593C464.745 107.532 464.767 107.474 464.8 107.421C464.832 107.369 464.875 107.324 464.925 107.288C464.976 107.253 465.033 107.228 465.093 107.215C465.154 107.202 465.216 107.201 465.277 107.213L467.872 107.618C467.986 107.635 468.09 107.695 468.162 107.786C468.234 107.876 468.269 107.99 468.26 108.106C468.252 108.221 468.2 108.329 468.116 108.408C468.031 108.486 467.92 108.531 467.805 108.531L467.803 108.531Z" fill="#00BAC1"/>
<path d="M458.213 114.618C458.213 115.717 458.65 116.772 459.427 117.549C460.205 118.327 461.259 118.764 462.359 118.764C463.458 118.764 464.513 118.327 465.29 117.549C466.068 116.772 466.504 115.717 466.504 114.618C466.523 113.537 466.111 112.493 465.36 111.715C464.608 110.938 463.579 110.491 462.498 110.472C462.451 110.472 462.405 110.472 462.359 110.472C459.406 110.617 458.213 112.328 458.213 114.618Z" fill="#E98862"/>
<path d="M458.176 104.867C455.877 104.848 453.584 104.655 451.314 104.288C451.314 104.288 452.009 86.7936 470.588 87.7911C473 87.6809 475.418 87.8236 477.8 88.2169C483.385 89.0727 491.302 94.782 492.58 109.07C493.166 115.625 495.425 121.804 497.149 125.717C497.353 126.176 497.439 126.679 497.399 127.18C497.359 127.68 497.195 128.163 496.921 128.585C496.647 129.006 496.273 129.352 495.831 129.592C495.39 129.832 494.896 129.958 494.393 129.959L454.589 129.642C454.118 129.642 453.654 129.532 453.234 129.321C452.813 129.109 452.448 128.803 452.167 128.425C451.887 128.047 451.698 127.609 451.617 127.146C451.536 126.682 451.564 126.206 451.7 125.756C453.865 118.585 457.828 114.19 458.176 104.867Z" fill="#0F1011"/>
<path d="M388.271 178.705C388.271 178.705 378.688 176.048 377.311 174.216C375.934 172.384 379.281 166.22 379.281 166.22C379.281 166.22 369.698 162.297 370.619 160.748C371.709 158.919 383.675 165.463 383.675 165.463C383.675 165.463 381.072 162.386 382.345 161.573C382.869 161.236 383.55 161.603 385.495 163.736C387.711 166.166 391.543 169.613 391.543 169.613L388.271 178.705Z" fill="#E98862"/>
<path d="M435.95 408.614C434.457 396.049 434.457 394.757 434.457 394.332H448.629C448.629 394.289 448.629 394.234 448.629 394.166C448.679 395.215 449.394 401.614 450.028 406.941L435.95 408.614Z" fill="#E98862"/>
<path d="M492.418 410.307C492.418 410.307 492.371 395.631 492.371 394.332H506.543C506.543 395.627 506.591 410.259 506.591 410.259L492.418 410.307Z" fill="#E98862"/>
<path d="M512.945 231.407C512.945 233.419 511.884 240.142 513.592 240.622C514.615 240.91 515.825 235.898 515.825 235.898" fill="#E98862"/>
<path d="M521.009 230.351C521.009 230.351 526.586 243.925 520.225 251.724C520.063 251.922 519.845 252.067 519.599 252.14C519.353 252.213 519.091 252.209 518.847 252.13C518.603 252.052 518.388 251.901 518.231 251.698C518.074 251.495 517.982 251.25 517.967 250.994C517.658 245.736 516.598 234.936 513.131 236.198V227.719" fill="#E98862"/>
<path d="M504.536 318.178C503.167 297 500.803 261.476 499.642 240.632H499.834L497.836 207.091L446.494 210.26L445.967 213.857L445.787 213.804C439.769 245.7 437.203 280.974 432.325 313.099C431.982 342.868 431.887 374.019 430.723 403.715L455.693 404.14C455.615 375.131 456.331 344.804 457.187 315.748C461.102 292.972 466.599 267.698 471.012 245.171C475.003 289.058 480.954 360.957 485.368 405.438L510.249 403.335L504.536 318.178Z" fill="#262626"/>
<path d="M475.192 415.788C474.828 415.786 474.468 415.713 474.133 415.572C473.797 415.431 473.492 415.225 473.236 414.967C472.98 414.708 472.777 414.402 472.639 414.065C472.502 413.728 472.432 413.367 472.434 413.003C472.434 412.935 472.436 412.868 472.442 412.8C472.483 412.274 472.673 411.77 472.991 411.348C473.309 410.926 473.741 410.604 474.236 410.419L490.731 404.894C491.051 404.788 491.389 404.753 491.724 404.79C492.058 404.827 492.381 404.936 492.669 405.109C494.937 406.683 497.65 407.487 500.409 407.403C502.558 407.251 504.62 406.498 506.361 405.229C506.514 405.103 506.7 405.024 506.896 405C507.093 404.976 507.292 405.008 507.471 405.093C507.65 405.178 507.801 405.312 507.906 405.479C508.012 405.647 508.068 405.841 508.067 406.039V414.105C508.067 414.584 507.877 415.044 507.538 415.383C507.199 415.722 506.739 415.912 506.26 415.912H506.252L475.192 415.788Z" fill="#C1D8ED"/>
<path d="M418.687 415.788C418.323 415.786 417.962 415.713 417.627 415.572C417.291 415.431 416.986 415.226 416.73 414.967C416.474 414.708 416.271 414.402 416.134 414.065C415.996 413.728 415.926 413.367 415.928 413.003C415.928 412.935 415.93 412.868 415.936 412.8C415.977 412.274 416.168 411.77 416.486 411.348C416.803 410.926 417.235 410.603 417.73 410.419L434.225 404.894C434.545 404.788 434.884 404.753 435.218 404.79C435.553 404.827 435.876 404.936 436.164 405.109C438.432 406.683 441.144 407.487 443.903 407.403C446.052 407.251 448.115 406.498 449.856 405.229C450.009 405.103 450.194 405.024 450.391 405C450.587 404.976 450.787 405.008 450.966 405.093C451.144 405.178 451.295 405.312 451.401 405.479C451.506 405.647 451.562 405.841 451.561 406.039V414.105C451.561 414.584 451.371 415.044 451.032 415.383C450.693 415.722 450.233 415.912 449.754 415.912H449.747L418.687 415.788Z" fill="#C1D8ED"/>
<path d="M517.904 188.594C517.83 188.096 517.705 187.607 517.531 187.135L502.041 145.014L501.948 145.048C501.275 142.974 500.113 141.092 498.559 139.562C495.476 136.479 490.137 134.483 483.634 134.483C473.954 134.483 460.733 134.504 458.023 134.618C449.745 134.973 445.875 138.684 444.293 144.163L424.936 178.914L391.367 166.425L386.426 179.708L425.694 194.32C427.281 194.912 429.028 194.915 430.617 194.329C432.206 193.743 433.532 192.607 434.355 191.127L445.158 171.734C445.444 174.491 445.658 177.2 445.688 179.783C445.947 201.694 440.031 205.821 442.946 212.52C445.777 219.015 501.337 221.718 502.08 210.282C502.553 203.008 496.141 196.656 496.141 182.478C496.195 179.783 496.551 177.103 497.203 174.489L503.459 191.5L509.6 232.873L524.156 230.714L517.904 188.594Z" fill="#CBA202"/>
<path d="M306.324 371.129C331.985 371.129 352.788 350.326 352.788 324.666C352.788 299.005 331.985 278.202 306.324 278.202C280.664 278.202 259.861 299.005 259.861 324.666C259.861 350.326 280.664 371.129 306.324 371.129Z" fill="#C1C0D2"/>
<path d="M277.43 303.968C272.101 346.103 307.064 357.588 307.064 357.588C307.064 357.588 339.166 345.373 335.476 304.071C335.476 304.071 316.743 308.017 307.064 293.893C307.064 293.893 299.949 307.584 277.43 303.968Z" fill="white"/>
<path d="M316.182 320.544H314.779V317.407C314.759 315.178 313.859 313.047 312.276 311.478C310.693 309.909 308.554 309.028 306.325 309.028C304.096 309.028 301.957 309.909 300.374 311.478C298.791 313.047 297.891 315.178 297.871 317.407V320.544H296.468C295.827 320.544 295.211 320.799 294.757 321.252C294.304 321.706 294.049 322.321 294.049 322.963V338.735C294.049 339.377 294.304 339.992 294.757 340.446C295.211 340.9 295.827 341.155 296.468 341.155H316.184C316.825 341.155 317.441 340.9 317.895 340.446C318.348 339.992 318.603 339.377 318.603 338.735V322.963C318.603 322.645 318.541 322.33 318.419 322.037C318.297 321.743 318.119 321.476 317.894 321.252C317.669 321.027 317.402 320.849 317.109 320.727C316.815 320.606 316.5 320.543 316.182 320.544ZM300.619 317.407C300.636 315.904 301.244 314.469 302.312 313.412C303.38 312.356 304.822 311.763 306.325 311.763C307.828 311.763 309.269 312.356 310.338 313.412C311.406 314.469 312.014 315.904 312.031 317.407V320.544H300.619V317.407Z" fill="#1E1B4D"/>
<path d="M247.624 173.828C250.468 173.828 252.773 171.523 252.773 168.679C252.773 165.835 250.468 163.53 247.624 163.53C244.78 163.53 242.475 165.835 242.475 168.679C242.475 171.523 244.78 173.828 247.624 173.828Z" fill="white"/>
<path d="M263.083 173.828C265.927 173.828 268.232 171.523 268.232 168.679C268.232 165.835 265.927 163.53 263.083 163.53C260.239 163.53 257.934 165.835 257.934 168.679C257.934 171.523 260.239 173.828 263.083 173.828Z" fill="white"/>
<path d="M278.544 173.828C281.388 173.828 283.693 171.523 283.693 168.679C283.693 165.835 281.388 163.53 278.544 163.53C275.7 163.53 273.395 165.835 273.395 168.679C273.395 171.523 275.7 173.828 278.544 173.828Z" fill="white"/>
<path d="M294.005 173.828C296.849 173.828 299.154 171.523 299.154 168.679C299.154 165.835 296.849 163.53 294.005 163.53C291.161 163.53 288.855 165.835 288.855 168.679C288.855 171.523 291.161 173.828 294.005 173.828Z" fill="white"/>
<path d="M309.466 173.828C312.309 173.828 314.615 171.523 314.615 168.679C314.615 165.835 312.309 163.53 309.466 163.53C306.622 163.53 304.316 165.835 304.316 168.679C304.316 171.523 306.622 173.828 309.466 173.828Z" fill="white"/>
<path d="M324.925 173.828C327.768 173.828 330.074 171.523 330.074 168.679C330.074 165.835 327.768 163.53 324.925 163.53C322.081 163.53 319.775 165.835 319.775 168.679C319.775 171.523 322.081 173.828 324.925 173.828Z" fill="white"/>
<path d="M339.835 173.828C342.679 173.828 344.984 171.523 344.984 168.679C344.984 165.835 342.679 163.53 339.835 163.53C336.991 163.53 334.686 165.835 334.686 168.679C334.686 171.523 336.991 173.828 339.835 173.828Z" fill="white"/>
<path d="M247.624 229.008C250.468 229.008 252.773 226.702 252.773 223.858C252.773 221.015 250.468 218.709 247.624 218.709C244.78 218.709 242.475 221.015 242.475 223.858C242.475 226.702 244.78 229.008 247.624 229.008Z" fill="white"/>
<path d="M263.083 229.008C265.927 229.008 268.232 226.702 268.232 223.858C268.232 221.015 265.927 218.709 263.083 218.709C260.239 218.709 257.934 221.015 257.934 223.858C257.934 226.702 260.239 229.008 263.083 229.008Z" fill="white"/>
<path d="M278.544 229.008C281.388 229.008 283.693 226.702 283.693 223.858C283.693 221.015 281.388 218.709 278.544 218.709C275.7 218.709 273.395 221.015 273.395 223.858C273.395 226.702 275.7 229.008 278.544 229.008Z" fill="white"/>
<path d="M294.005 229.008C296.849 229.008 299.154 226.702 299.154 223.858C299.154 221.015 296.849 218.709 294.005 218.709C291.161 218.709 288.855 221.015 288.855 223.858C288.855 226.702 291.161 229.008 294.005 229.008Z" fill="white"/>
<path d="M309.466 229.008C312.309 229.008 314.615 226.702 314.615 223.858C314.615 221.015 312.309 218.709 309.466 218.709C306.622 218.709 304.316 221.015 304.316 223.858C304.316 226.702 306.622 229.008 309.466 229.008Z" fill="white"/>
<path d="M324.925 229.008C327.768 229.008 330.074 226.702 330.074 223.858C330.074 221.015 327.768 218.709 324.925 218.709C322.081 218.709 319.775 221.015 319.775 223.858C319.775 226.702 322.081 229.008 324.925 229.008Z" fill="white"/>
</g>
<defs>
<clipPath id="clip0_1024_23368">
<rect width="604.406" height="416" fill="white"/>
</clipPath>
</defs>
</svg>
