<svg width="441" height="372" viewBox="0 0 441 372" fill="none" xmlns="http://www.w3.org/2000/svg">
    <g clip-path="url(#clip0_959_83143)">
        <path d="M0 354.265C0 354.829 0.455081 355.282 1.02179 355.282H627.222C627.789 355.282 628.244 354.829 628.244 354.265C628.244 353.701 627.789 353.247 627.222 353.247H1.02179C0.455081 353.247 0 353.701 0 354.265Z" fill="#3F3D56"/>
        <path d="M380.018 355.163C405.626 355.163 426.385 334.489 426.385 308.987C426.385 283.484 405.626 262.811 380.018 262.811C354.41 262.811 333.651 283.484 333.651 308.987C333.651 334.489 354.41 355.163 380.018 355.163Z" fill="#3F3D56"/>
        <path d="M380.019 339.771C397.09 339.771 410.93 325.988 410.93 308.987C410.93 291.985 397.09 278.203 380.019 278.203C362.947 278.203 349.107 291.985 349.107 308.987C349.107 325.988 362.947 339.771 380.019 339.771Z" fill="white"/>
        <path d="M380.018 326.516C389.74 326.516 397.62 318.668 397.62 308.987C397.62 299.305 389.74 291.457 380.018 291.457C370.297 291.457 362.416 299.305 362.416 308.987C362.416 318.668 370.297 326.516 380.018 326.516Z" fill="#3F3D56"/>
        <path d="M112.122 355.163C137.729 355.163 158.488 334.489 158.488 308.987C158.488 283.484 137.729 262.811 112.122 262.811C86.514 262.811 65.7549 283.484 65.7549 308.987C65.7549 334.489 86.514 355.163 112.122 355.163Z" fill="#3F3D56"/>
        <path d="M112.121 339.771C129.193 339.771 143.032 325.988 143.032 308.987C143.032 291.985 129.193 278.203 112.121 278.203C95.0494 278.203 81.21 291.985 81.21 308.987C81.21 325.988 95.0494 339.771 112.121 339.771Z" fill="white"/>
        <path d="M443.446 287.027C437.41 271.866 416.305 225.545 378.713 210.213C378.421 210.093 378.121 210.016 377.812 209.973L257.249 192.777C255.266 192.495 253.411 193.846 253.094 195.821L250.981 208.819C250.835 209.708 251.024 210.623 251.514 211.384C257.636 220.842 296.876 285.052 234.04 285.052C171.205 285.052 153.886 240.27 151.138 232.36C150.881 231.616 150.872 230.812 151.104 230.06L170.149 169.988C170.484 168.919 170.303 167.825 169.754 166.952L178.125 151.466L193.461 160.111L201.403 160.206L228.511 174.315L234.032 165.336L178.125 137.562C178.125 137.562 178.22 131.132 160.188 126.001L131.853 113.174L128.419 117.45L137.005 124.291L137.864 129.421L143.874 131.132L155.895 154.22L152.461 160.838L156.634 162.865L155.44 162.591C153.714 162.198 151.954 163.087 151.25 164.703L132.308 207.938C132.016 208.596 131.535 209.161 130.926 209.554L124.177 213.89C123.55 214.291 123.052 214.882 122.769 215.574L115.058 234.19C114.818 234.771 114.749 235.379 114.809 235.969C105.201 237.781 76.96 245.614 61.4443 276.51L79.4759 291.046C79.4759 291.046 107.742 272.833 154.453 291.799C162.575 304.386 174.416 314.827 191.52 315.811C236.608 318.41 311.31 320.975 319.896 310.714C326.181 303.198 330.552 298.512 332.449 296.536C333.119 295.844 334.029 295.442 334.991 295.408L440.132 292.064C442.682 291.987 444.374 289.405 443.438 287.045L443.446 287.027Z" fill="#00BAC1"/>
        <path d="M153.336 152.501C160.923 152.501 167.074 146.376 167.074 138.819C167.074 131.263 160.923 125.137 153.336 125.137C145.749 125.137 139.598 131.263 139.598 138.819C139.598 146.376 145.749 152.501 153.336 152.501Z" fill="#3F3D56"/>
        <path d="M373.347 210.272C373.183 210.272 373.02 210.272 372.857 210.264L257.988 205.834C252.905 205.638 248.551 202.414 246.894 197.625L245.323 193.068C244.043 189.356 244.602 185.372 246.851 182.148C249.109 178.924 252.664 177.026 256.605 176.932L375.287 174.212C378.962 174.127 382.5 175.692 384.895 178.514C387.291 181.335 388.27 185.03 387.574 188.664L385.333 200.362C384.226 206.168 379.22 210.264 373.338 210.264L373.347 210.272Z" fill="#3F3D56"/>
        <path d="M112.122 326.516C121.843 326.516 129.724 318.668 129.724 308.987C129.724 299.305 121.843 291.457 112.122 291.457C102.4 291.457 94.5195 299.305 94.5195 308.987C94.5195 318.668 102.4 326.516 112.122 326.516Z" fill="#3F3D56"/>
        <path d="M419.499 259.082C416.751 259.082 414.132 257.62 412.732 255.097L404.034 239.415C402.652 236.926 402.738 234.01 404.249 231.608C405.76 229.196 408.371 227.845 411.204 227.999L426.995 228.803C429.931 228.957 432.576 230.795 433.726 233.497L438.337 244.357C439.179 246.35 439.162 248.522 438.277 250.497C437.393 252.464 435.779 253.943 433.735 254.644L422.04 258.663C421.207 258.954 420.349 259.091 419.507 259.091L419.499 259.082Z" fill="#3F3D56"/>
        <path d="M219.821 363.312C219.692 363.312 219.555 363.312 219.426 363.286L215.923 362.902C214.781 362.773 213.785 362.132 213.201 361.14C212.617 360.148 212.54 358.977 212.986 357.916L231.224 314.784C231.722 313.604 232.829 312.766 234.109 312.604C235.354 312.45 236.564 312.937 237.363 313.904C238.153 314.87 238.393 316.153 237.99 317.333L223.264 360.849C222.766 362.32 221.358 363.304 219.829 363.304L219.821 363.312Z" fill="#3F3D56"/>
        <path d="M314.504 62.3206C314.504 62.3206 307.833 49.0321 309.164 37.0776L286.959 48.5362L287.818 70.2902L314.504 62.3206Z" fill="#A0616A"/>
        <path d="M300.723 54.676C311.786 54.676 320.755 45.7441 320.755 34.7262C320.755 23.7082 311.786 14.7764 300.723 14.7764C289.659 14.7764 280.69 23.7082 280.69 34.7262C280.69 45.7441 289.659 54.676 300.723 54.676Z" fill="#A0616A"/>
        <path d="M321.185 347.971H308.958L303.145 301.017H321.185V347.971Z" fill="#A0616A"/>
        <path d="M279.309 347.689C278.931 348.331 278.725 350.391 278.725 351.127C278.725 353.41 280.579 355.257 282.872 355.257H320.721C322.284 355.257 323.554 353.991 323.554 352.435V350.862C323.554 350.862 325.426 346.141 321.571 340.335C321.571 340.335 316.78 344.884 309.619 337.761L307.506 333.956L292.222 345.09L283.748 346.124C281.893 346.355 280.253 346.09 279.3 347.689H279.309Z" fill="#2F2E41"/>
        <path d="M285.147 62.3208L314.504 58.3359L337.189 68.965L338.52 151.347C338.52 151.347 282.725 157.991 273.933 149.354C265.14 140.718 271.812 71.6244 271.812 71.6244L285.155 62.3208H285.147Z" fill="#E6E6E6"/>
        <path d="M295.708 39.8055H290.324C290.324 39.8055 285.653 34.0762 286.28 37.5651C286.907 41.0539 284.391 44.8079 284.391 44.8079L280.622 43.5594C280.622 43.5594 273.083 11.9801 295.708 10.2442C318.333 8.50832 323.365 26.0381 323.365 26.0381C323.365 26.0381 322.111 34.8031 319.596 32.2976C317.08 29.7921 303.256 28.5436 303.256 28.5436L295.717 39.814L295.708 39.8055Z" fill="#2F2E41"/>
        <path d="M281.464 337.419L269.709 340.72L251.3 297.118L268.662 292.235L281.464 337.419Z" fill="#A0616A"/>
        <path d="M241.09 348.484C240.901 349.203 241.271 351.238 241.468 351.956C242.086 354.154 244.379 355.428 246.586 354.812L283.009 344.568C284.512 344.149 285.388 342.584 284.967 341.088L284.538 339.574C284.538 339.574 285.053 334.529 279.755 329.98C279.755 329.98 276.389 335.658 267.554 330.732L264.48 327.637L252.811 342.482L244.946 345.774C243.228 346.492 241.571 346.689 241.09 348.484Z" fill="#2F2E41"/>
        <path d="M334.51 143.377L338.511 155.434V196.864L326.499 321.916H303.041L300.396 232.651L302.483 188.561L257.739 255.978L277.402 304.13L255.755 318.504C255.755 318.504 223.384 245.041 228.227 237.918C233.07 230.804 276.449 146.772 276.449 146.772C276.449 146.772 334.493 144.711 334.493 143.385L334.51 143.377Z" fill="#C1C0D2"/>
        <path d="M346.523 95.542L352.971 106.06C352.971 106.06 362.09 141.752 352.971 141.898C343.853 142.043 325.443 123.709 325.443 123.709L327.848 114.141L334.519 116.8L333.188 95.542H346.532H346.523Z" fill="#A0616A"/>
        <path d="M326.508 68.8025C326.508 68.8025 347.854 65.0571 349.854 78.9698C351.855 92.8825 352.971 106.068 352.971 106.068L329.839 107.975L326.508 68.8025Z" fill="#E6E6E6"/>
        <path d="M331.145 122.545C333.076 119.844 330.249 114.539 324.83 110.695C319.41 106.851 313.452 105.924 311.52 108.625C309.589 111.325 312.417 116.63 317.836 120.474C323.255 124.318 329.214 125.245 331.145 122.545Z" fill="#A0616A"/>
        <path d="M445.215 349.801L454.446 347.817L451.14 311.441L437.53 314.365L445.215 349.801Z" fill="#A0616A"/>
        <path d="M461.719 347.022L469.412 341.584L452.007 309.431L440.647 317.452L461.719 347.022Z" fill="#A0616A"/>
        <path d="M350.842 167.149C350.842 167.149 336.494 186.577 365.19 208.425L423.792 189.775L402.859 146.301L384.32 136.177L350.833 167.14L350.842 167.149Z" fill="#C1C0D2"/>
        <path d="M423.801 189.784L446.521 233.848L460.877 325.567L442.94 326.756L424.994 239.808L393.302 192.76L415.429 182.635" fill="#C1C0D2"/>
        <path d="M365.198 194.59V208.434L405.864 252.908C405.864 252.908 405.864 286.258 421.414 301.744L439.351 329.142L454.901 320.804L432.181 241.005L391.516 188.595L365.207 194.59H365.198Z" fill="#C1C0D2"/>
        <path d="M394.092 57.3526L386.433 86.435L357.23 80.7143C357.23 80.7143 377.606 59.7896 374.738 50.2551L394.101 57.3526H394.092Z" fill="#A0616A"/>
        <path d="M371.775 61.7393L389.712 70.0766C389.712 70.0766 398.943 75.6947 399.115 79.4401C399.286 83.1855 398.084 101.049 398.084 101.049C398.084 101.049 405.263 108.198 400.48 122.487L402.875 146.31L349.056 174.896L353.838 124.872L351.443 78.4225L371.775 61.7478V61.7393Z" fill="#3F3D56"/>
        <path d="M355.676 197.292C357.779 202.089 361.97 204.902 365.035 203.568C368.1 202.234 368.882 197.266 366.787 192.469C365.971 190.536 364.709 188.835 363.094 187.492L353.933 167.269L344.496 171.749L354.525 191.212C354.413 193.298 354.808 195.385 355.676 197.292Z" fill="#A0616A"/>
        <path d="M365.198 81.3982C365.198 81.3982 352.044 73.0608 347.261 82.5868C342.478 92.1127 331.711 140.948 331.711 140.948L347.261 187.398L361.609 181.446L349.047 131.456L365.189 81.3982H365.198Z" fill="#3F3D56"/>
        <path d="M432.628 189.792C436.355 193.486 441.292 194.564 443.653 192.195C446.015 189.826 444.898 184.927 441.172 181.233C439.704 179.736 437.892 178.616 435.9 177.958L419.903 162.514L412.785 170.142L429.305 184.55C429.975 186.534 431.117 188.33 432.628 189.784V189.792Z" fill="#A0616A"/>
        <path d="M398.609 78.5506C398.609 78.5506 375.674 77.6185 374.747 88.2305C373.828 98.8424 389.507 146.199 389.507 146.199L421.148 183.678L432.285 172.878L402.12 131.012L398.617 78.5506H398.609Z" fill="#3F3D56"/>
        <path d="M331.454 164.541L312.298 106.624C296.808 93.0363 280.004 125.762 234.899 107.206L249.084 172.716C283.19 154.357 312.538 147.165 331.454 164.541Z" fill="#FFCB03"/>
        <path d="M249.084 174.426C248.964 174.426 248.835 174.4 248.724 174.349C248.475 174.238 248.303 174.016 248.243 173.751L234.058 108.24C233.989 107.933 234.101 107.608 234.35 107.402C234.599 107.197 234.934 107.146 235.226 107.266C260.848 117.801 277.385 111.533 289.466 106.949C298.645 103.469 305.892 100.715 312.864 106.829C312.976 106.932 313.062 107.06 313.113 107.206L332.27 165.123C332.39 165.49 332.244 165.901 331.918 166.106C331.591 166.32 331.153 166.277 330.87 166.012C314.247 150.74 288.384 153.373 249.496 174.315C249.368 174.383 249.23 174.418 249.084 174.418V174.426ZM236.076 109.455L249.677 172.28C286.993 152.381 312.555 149.311 329.668 162.762L311.542 107.975C305.403 102.742 298.954 105.188 290.067 108.557C277.96 113.149 261.466 119.408 236.076 109.463V109.455Z" fill="#FFCB03"/>
        <path d="M264.608 79.0295L252.484 81.5265C252.484 81.5265 220.079 99.2872 226.209 106.017C232.331 112.747 258.357 113.61 258.357 113.61L263.732 105.324L257.224 102.289L273.727 88.7351L264.608 79.0295Z" fill="#A0616A"/>
        <path d="M297.889 75.3097C297.889 75.3097 286.048 57.2241 274.482 65.2792C262.916 73.3344 252.492 81.5264 252.492 81.5264L266.9 99.6463L297.897 75.3097H297.889Z" fill="#E6E6E6"/>
        <path d="M278.926 113.422C279.586 110.173 274.835 106.473 268.314 105.159C261.793 103.845 255.971 105.414 255.311 108.663C254.65 111.912 259.402 115.612 265.923 116.926C272.444 118.24 278.265 116.672 278.926 113.422Z" fill="#A0616A"/>
        <path d="M133.93 356.121C137.932 356.121 141.177 352.89 141.177 348.904C141.177 344.918 137.932 341.687 133.93 341.687C129.927 341.687 126.683 344.918 126.683 348.904C126.683 352.89 129.927 356.121 133.93 356.121Z" fill="#3F3D56"/>
        <path d="M143.59 367.314C147.592 367.314 150.837 364.083 150.837 360.097C150.837 356.111 147.592 352.88 143.59 352.88C139.587 352.88 136.343 356.111 136.343 360.097C136.343 364.083 139.587 367.314 143.59 367.314Z" fill="#3F3D56"/>
        <path d="M216.042 367.314C220.044 367.314 223.289 364.083 223.289 360.097C223.289 356.111 220.044 352.88 216.042 352.88C212.039 352.88 208.795 356.111 208.795 360.097C208.795 364.083 212.039 367.314 216.042 367.314Z" fill="#3F3D56"/>
        <path d="M154.202 252.096V173.725C154.202 164.952 161.569 162.78 170.379 162.78C174.698 162.78 176.793 162.284 179.824 165.345C182.855 168.406 186.221 169.68 186.152 173.982L184.881 250.882L154.193 252.088L154.202 252.096ZM171.237 167.919C163.372 167.919 155.919 165.901 155.919 173.734V250.326L183.198 249.249L184.443 173.965C184.504 170.125 178.235 170.655 175.539 167.919C172.835 165.183 175.101 167.919 171.246 167.919H171.237Z" fill="#3F3D56"/>
        <path d="M132.633 251.147L131.534 336.77C131.517 337.873 131.783 338.959 132.298 339.933L140.421 355.214C141.614 357.463 144.001 358.823 146.552 358.712L217.871 355.582C221.52 355.42 224.345 352.341 224.182 348.707L219.708 250.942C219.545 247.427 216.643 244.657 213.105 244.657H139.236C135.621 244.657 132.676 247.556 132.624 251.156L132.633 251.147Z" fill="#CBA202"/>
        <path d="M160.746 289.79L159.028 289.704L159.664 277.032C160.007 270.208 165.648 264.735 172.509 264.573L202.879 263.871C209.01 263.769 214.093 268.395 214.428 274.5L215.072 286.087L213.355 286.181L212.711 274.594C212.419 269.421 208.083 265.453 202.914 265.582L172.543 266.283C166.576 266.42 161.673 271.183 161.372 277.117L160.737 289.79H160.746Z" fill="#3F3D56"/>
        <path d="M159.535 351.17L157.826 350.999L161.527 315.033C162.214 308.38 167.786 303.138 174.492 302.839L204.116 301.513C207.851 301.342 211.397 302.659 214.11 305.216C216.824 307.773 218.335 311.227 218.378 314.947L218.713 346.261L216.995 346.279L216.66 314.964C216.626 311.715 215.304 308.696 212.934 306.456C210.564 304.215 207.447 303.07 204.201 303.215L174.578 304.54C168.714 304.806 163.845 309.38 163.244 315.195L159.543 351.161L159.535 351.17Z" fill="#3F3D56"/>
        <path d="M146.26 348.681L144.543 348.656L145.625 266.462C145.702 260.844 150.176 256.312 155.817 256.141L214.205 254.431L214.256 256.141L155.868 257.851C151.146 257.988 147.402 261.776 147.342 266.479L146.26 348.673V348.681Z" fill="#3F3D56"/>
        <path d="M146.415 336.975H145.221V262.118C145.221 259.749 143.289 257.817 140.902 257.817H134.23V256.107H140.902C144.053 256.107 146.646 258.527 146.913 261.588C146.93 261.759 146.938 261.939 146.938 262.118V297.563L146.415 336.975Z" fill="#3F3D56"/>
        <path d="M406.559 41.8064C406.559 52.769 397.638 61.6536 386.63 61.6536C375.622 61.6536 366.701 52.769 366.701 41.8064C366.701 30.8439 375.622 21.9592 386.63 21.9592C397.638 21.9592 406.559 30.8439 406.559 41.8064Z" fill="#A0616A"/>
        <path d="M385.041 15.1269C385.617 15.4604 386.389 14.9559 386.578 14.3145C386.767 13.6732 386.544 12.9977 386.338 12.3649C385.977 11.3045 385.625 10.2528 385.265 9.19241C384.5 6.94347 383.693 4.61756 382.045 2.90733C379.555 0.324887 375.588 -0.33355 372.024 0.145314C367.448 0.760995 362.931 3.22372 360.802 7.31116C358.672 11.3986 359.583 17.0937 363.429 19.6419C357.943 25.9013 356.036 32.8791 356.337 41.1737C356.637 49.4768 365.722 57.113 371.647 62.9619C372.969 62.1667 374.171 58.4213 373.441 57.0617C372.711 55.702 373.759 54.1286 372.857 52.8716C371.956 51.6231 371.2 53.6156 372.11 52.3671C372.685 51.5804 370.444 49.7761 371.295 49.3058C375.425 47.0312 376.798 41.9005 379.392 37.9755C382.526 33.2382 387.875 30.0315 393.551 29.5014C396.676 29.2106 399.973 29.7408 402.532 31.5451C405.091 33.3494 406.748 36.5731 406.155 39.643C407.692 38.0867 408.457 35.8121 408.173 33.6487C407.881 31.4852 406.55 29.4843 404.653 28.3812C405.803 24.593 404.816 20.2319 402.146 17.3074C399.475 14.3744 388.648 14.8789 384.749 15.6485L385.05 15.1355L385.041 15.1269Z" fill="#2F2E41"/>
        <path d="M384.441 29.6125C379.28 30.1684 375.554 34.6235 372.402 38.7366C370.591 41.1053 368.684 43.7219 368.736 46.7063C368.779 49.7163 370.805 52.3073 371.776 55.1548C373.355 59.8237 371.818 65.3734 368.058 68.5715C371.776 69.2727 375.794 66.5021 376.429 62.7824C377.176 58.4641 373.888 54.2911 374.274 49.9215C374.618 46.0735 377.666 43.1148 380.25 40.2331C382.843 37.3513 385.273 33.5375 384.08 29.8605L384.441 29.6125Z" fill="#2F2E41"/>
    </g>
    <defs>
        <clipPath id="clip0_959_83143">
            <rect width="530" height="372" fill="white"/>
        </clipPath>
    </defs>
</svg>
