<svg width="31" height="20" viewBox="0 0 31 20" fill="none" xmlns="http://www.w3.org/2000/svg">
<path d="M3.76732 0.836182C2.1494 0.836182 0.833984 2.23132 0.833984 3.94729V16.3917C0.833984 18.1077 2.1494 19.5028 3.76732 19.5028H27.234C28.8519 19.5028 30.1673 18.1077 30.1673 16.3917V14.0584C30.1673 13.6306 29.8327 13.2903 29.4432 13.1834C28.1736 12.8431 27.234 11.623 27.234 10.1695C27.234 8.71604 28.1736 7.4959 29.4432 7.15563C29.8373 7.04868 30.1673 6.71327 30.1673 6.28063V3.94729C30.1673 2.23132 28.8519 0.836182 27.234 0.836182H3.76732ZM19.9007 3.94729C19.9007 3.74101 19.9779 3.54318 20.1154 3.39732C20.253 3.25146 20.4395 3.16952 20.634 3.16952C20.8285 3.16952 21.015 3.25146 21.1525 3.39732C21.2901 3.54318 21.3673 3.74101 21.3673 3.94729C21.3673 4.15357 21.2901 4.3514 21.1525 4.49726C21.015 4.64313 20.8285 4.72507 20.634 4.72507C20.4395 4.72507 20.253 4.64313 20.1154 4.49726C19.9779 4.3514 19.9007 4.15357 19.9007 3.94729ZM19.9007 7.0584C19.9007 6.85212 19.9779 6.65429 20.1154 6.50843C20.253 6.36257 20.4395 6.28063 20.634 6.28063C20.8285 6.28063 21.015 6.36257 21.1525 6.50843C21.2901 6.65429 21.3673 6.85212 21.3673 7.0584C21.3673 7.26468 21.2901 7.46251 21.1525 7.60838C21.015 7.75424 20.8285 7.83618 20.634 7.83618C20.4395 7.83618 20.253 7.75424 20.1154 7.60838C19.9779 7.46251 19.9007 7.26468 19.9007 7.0584ZM20.634 9.39174C20.8285 9.39174 21.015 9.47368 21.1525 9.61954C21.2901 9.76541 21.3673 9.96324 21.3673 10.1695C21.3673 10.3758 21.2901 10.5736 21.1525 10.7195C21.015 10.8653 20.8285 10.9473 20.634 10.9473C20.4395 10.9473 20.253 10.8653 20.1154 10.7195C19.9779 10.5736 19.9007 10.3758 19.9007 10.1695C19.9007 9.96324 19.9779 9.76541 20.1154 9.61954C20.253 9.47368 20.4395 9.39174 20.634 9.39174ZM19.9007 13.2806C19.9007 13.0743 19.9779 12.8765 20.1154 12.7307C20.253 12.5848 20.4395 12.5028 20.634 12.5028C20.8285 12.5028 21.015 12.5848 21.1525 12.7307C21.2901 12.8765 21.3673 13.0743 21.3673 13.2806C21.3673 13.4869 21.2901 13.6847 21.1525 13.8306C21.015 13.9765 20.8285 14.0584 20.634 14.0584C20.4395 14.0584 20.253 13.9765 20.1154 13.8306C19.9779 13.6847 19.9007 13.4869 19.9007 13.2806ZM20.634 15.614C20.8285 15.614 21.015 15.6959 21.1525 15.8418C21.2901 15.9876 21.3673 16.1855 21.3673 16.3917C21.3673 16.598 21.2901 16.7958 21.1525 16.9417C21.015 17.0876 20.8285 17.1695 20.634 17.1695C20.4395 17.1695 20.253 17.0876 20.1154 16.9417C19.9779 16.7958 19.9007 16.598 19.9007 16.3917C19.9007 16.1855 19.9779 15.9876 20.1154 15.8418C20.253 15.6959 20.4395 15.614 20.634 15.614ZM8.90065 8.61396L7.5944 4.45771C7.51648 4.20493 7.69065 3.94729 7.94273 3.94729H9.36815C9.75773 3.94729 10.1198 4.16604 10.3169 4.52576L12.5673 8.61396H14.7169C15.4548 8.61396 16.1607 8.92507 16.6786 9.47438C17.0407 9.8584 17.0407 10.4806 16.6786 10.8598C16.1607 11.414 15.4548 11.7251 14.7169 11.7251H12.5673L10.3169 15.8133C10.1198 16.173 9.75773 16.3917 9.36815 16.3917H7.94273C7.69065 16.3917 7.51648 16.1292 7.5944 15.8813L8.90065 11.7251H6.33398L5.45398 12.9695C5.31648 13.164 5.09648 13.2806 4.86732 13.2806H4.23482C3.99648 13.2806 3.82232 13.0424 3.87732 12.7994L4.45482 10.3591C4.48232 10.2376 4.48232 10.1063 4.45482 9.97993L3.8819 7.53965C3.82232 7.2966 4.00107 7.0584 4.2394 7.0584H4.86732C5.09648 7.0584 5.31648 7.17507 5.45398 7.36952L6.33398 8.61396H8.90065Z" fill="white"/>
</svg>
