<svg width="28" height="22" viewBox="0 0 28 22" fill="none" xmlns="http://www.w3.org/2000/svg">
<path d="M3.62898 0.502808C1.99472 0.502808 0.666016 1.83151 0.666016 3.46577V4.94725H27.3327V3.46577C27.3327 1.83151 26.004 0.502808 24.3697 0.502808H3.62898ZM27.3327 9.3917H0.666016V18.2806C0.666016 19.9148 1.99472 21.2435 3.62898 21.2435H24.3697C26.004 21.2435 27.3327 19.9148 27.3327 18.2806V9.3917ZM5.8512 15.3176H8.81416C9.22157 15.3176 9.5549 15.651 9.5549 16.0584C9.5549 16.4658 9.22157 16.7991 8.81416 16.7991H5.8512C5.44379 16.7991 5.11046 16.4658 5.11046 16.0584C5.11046 15.651 5.44379 15.3176 5.8512 15.3176ZM11.0364 16.0584C11.0364 15.651 11.3697 15.3176 11.7771 15.3176H17.7031C18.1105 15.3176 18.4438 15.651 18.4438 16.0584C18.4438 16.4658 18.1105 16.7991 17.7031 16.7991H11.7771C11.3697 16.7991 11.0364 16.4658 11.0364 16.0584Z" fill="white"/>
</svg>
