<svg width="418" height="250" viewBox="0 0 418 250" fill="none" xmlns="http://www.w3.org/2000/svg">
    <g clip-path="url(#clip0_1150_10213)">
        <path d="M361.006 250H229.551C225.833 250 222.809 246.984 222.809 243.278V6.72191C222.809 3.01565 225.833 0 229.551 0H361.006C364.723 0 367.748 3.01565 367.748 6.72191V243.278C367.748 246.984 364.723 250 361.006 250ZM280.931 1.12251C249.453 1.12251 223.935 26.5648 223.935 57.9495V243.278C223.935 246.371 226.449 248.878 229.551 248.878H361.006C364.108 248.878 366.622 246.371 366.622 243.278V6.72191C366.622 3.62945 364.108 1.12251 361.006 1.12251L280.931 1.12251Z" fill="#E6E6E6"/>
        <path d="M367.065 62.3394C367.065 62.7401 367.516 63.0618 368.077 63.0618H541.755C542.316 63.0618 542.766 62.7401 542.766 62.3394C542.766 61.9388 542.316 61.6171 541.755 61.6171H368.077C367.516 61.6171 367.065 61.9388 367.065 62.3394Z" fill="#E6E6E6"/>
        <path d="M225.816 165.503L227.535 210.918H223.351V216.059H235.045V210.918H231.634L231.877 165.503H225.816Z" fill="#3F3D56"/>
        <path d="M221.304 203.634C223.084 203.634 224.527 205.073 224.527 206.847V220.129C224.527 221.904 223.084 223.343 221.304 223.343C219.524 223.343 218.081 221.904 218.081 220.129V206.847C218.081 205.073 219.524 203.634 221.304 203.634Z" fill="#3F3D56"/>
        <path d="M237.633 203.634C239.413 203.634 240.856 205.073 240.856 206.847V220.129C240.856 221.904 239.413 223.343 237.633 223.343C235.853 223.343 234.41 221.904 234.41 220.129V206.847C234.41 205.073 235.853 203.634 237.633 203.634Z" fill="#3F3D56"/>
        <path d="M263.846 137.207L197.669 134.207L207.983 129.495L265.994 130.351L263.846 137.207Z" fill="#00BAC1"/>
        <path d="M0 143.866L7.99204 140.867L256.111 147.294L266.424 142.581L262.127 171.715L65.0352 150.776L0 143.866Z" fill="#00BAC1"/>
        <path d="M63.8127 160.79L65.0351 150.776L262.127 171.715L261.052 186.496L63.8127 160.79Z" fill="#3F3D56"/>
        <path d="M196.38 190.352C207.653 190.352 216.792 180.665 216.792 168.716C216.792 156.767 207.653 147.08 196.38 147.08C185.107 147.08 175.969 156.767 175.969 168.716C175.969 180.665 185.107 190.352 196.38 190.352Z" fill="#3F3D56"/>
        <path d="M196.38 179.856C204.687 179.856 211.42 173.142 211.42 164.86C211.42 156.578 204.687 149.865 196.38 149.865C188.074 149.865 181.34 156.578 181.34 164.86C181.34 173.142 188.074 179.856 196.38 179.856Z" fill="#00BAC1"/>
        <path d="M364.184 165.503L362.465 210.918H366.649V216.059H354.956V210.918H358.366L358.123 165.503H364.184Z" fill="#3F3D56"/>
        <path d="M368.696 203.634H368.696C366.916 203.634 365.473 205.073 365.473 206.847V220.129C365.473 221.904 366.916 223.343 368.696 223.343H368.696C370.476 223.343 371.919 221.904 371.919 220.129V206.847C371.919 205.073 370.476 203.634 368.696 203.634Z" fill="#3F3D56"/>
        <path d="M352.367 203.634H352.367C350.587 203.634 349.144 205.073 349.144 206.847V220.129C349.144 221.904 350.587 223.343 352.367 223.343H352.367C354.147 223.343 355.59 221.904 355.59 220.129V206.847C355.59 205.073 354.147 203.634 352.367 203.634Z" fill="#3F3D56"/>
        <path d="M326.154 137.207L392.331 134.207L382.018 129.495L324.006 130.351L326.154 137.207Z" fill="#00BAC1"/>
        <path d="M302.468 127.976L299.46 61.9955L294.733 72.2781L295.593 130.118L302.468 127.976Z" fill="#00BAC1"/>
        <path d="M590 143.866L582.008 140.867L333.889 147.294L323.576 142.581L327.873 171.715L524.965 150.776L590 143.866Z" fill="#00BAC1"/>
        <path d="M526.187 160.79L524.965 150.776L327.873 171.715L328.948 186.496L526.187 160.79Z" fill="#3F3D56"/>
        <path d="M393.62 190.352C404.893 190.352 414.031 180.665 414.031 168.716C414.031 156.767 404.893 147.08 393.62 147.08C382.347 147.08 373.208 156.767 373.208 168.716C373.208 180.665 382.347 190.352 393.62 190.352Z" fill="#3F3D56"/>
        <path d="M393.62 179.856C401.926 179.856 408.66 173.142 408.66 164.86C408.66 156.578 401.926 149.865 393.62 149.865C385.313 149.865 378.58 156.578 378.58 164.86C378.58 173.142 385.313 179.856 393.62 179.856Z" fill="#00BAC1"/>
        <path d="M332.493 128.988L331.517 136.154L331.01 174.731C330.971 177.602 330.623 180.438 329.97 183.189C328.088 191.201 323.692 198.489 317.199 203.771C311.308 208.57 303.272 212.203 292.637 211.56C264.275 209.847 261.77 185.781 261.77 185.781L262.84 142.14L262.986 136.154L264.275 125.354C264.275 125.354 267.713 94.9349 299.512 95.7918C331.311 96.6487 332.493 128.988 332.493 128.988Z" fill="#00BAC1"/>
        <path d="M271.151 118.928L277.597 108.645L285.761 106.074H313.693L320.568 108.645L326.808 118.928L315.412 113.786H283.443L271.151 118.928Z" fill="#E6E6E6"/>
        <path d="M294.788 192.854L295.891 221.988H293.207V225.286H300.709V221.988H298.521L298.677 192.854H294.788Z" fill="#3F3D56"/>
        <path d="M291.894 217.315C293.036 217.315 293.961 218.238 293.961 219.377V227.897C293.961 229.035 293.036 229.958 291.894 229.958C290.752 229.958 289.826 229.035 289.826 227.897V219.377C289.826 218.238 290.752 217.315 291.894 217.315Z" fill="#3F3D56"/>
        <path d="M302.369 217.315C303.511 217.315 304.437 218.238 304.437 219.377V227.897C304.437 229.035 303.511 229.958 302.369 229.958C301.227 229.958 300.302 229.035 300.302 227.897V219.377C300.302 218.238 301.227 217.315 302.369 217.315Z" fill="#3F3D56"/>
        <path d="M286.789 99.7594L280.853 121.07L281.997 121.387L287.933 100.076L286.789 99.7594Z" fill="#00BAC1"/>
        <path d="M313.711 103.159L312.545 103.388L316.823 125.09L317.988 124.862L313.711 103.159Z" fill="#00BAC1"/>
        <path d="M222.41 94.3038C226.672 94.3038 230.128 90.8584 230.128 86.6083C230.128 82.3581 226.672 78.9127 222.41 78.9127C218.147 78.9127 214.691 82.3581 214.691 86.6083C214.691 90.8584 218.147 94.3038 222.41 94.3038Z" fill="#00BAC1"/>
        <path d="M47.6426 231.05C47.6426 231.45 48.0932 231.772 48.6543 231.772H222.332C222.893 231.772 223.344 231.45 223.344 231.05C223.344 230.649 222.893 230.327 222.332 230.327H48.6543C48.0932 230.327 47.6426 230.649 47.6426 231.05Z" fill="#E6E6E6"/>
        <path d="M116.617 237.824C120.88 237.824 124.335 234.379 124.335 230.129C124.335 225.879 120.88 222.433 116.617 222.433C112.354 222.433 108.898 225.879 108.898 230.129C108.898 234.379 112.354 237.824 116.617 237.824Z" fill="#00BAC1"/>
    </g>
    <defs>
        <clipPath id="clip0_1150_10213">
            <rect width="590" height="250" fill="white"/>
        </clipPath>
    </defs>
</svg>
