<svg viewBox="0 0 376 376" fill="none" xmlns="http://www.w3.org/2000/svg">
    <path d="M340.632 196.754L334.875 193.875H296.688C291.811 193.875 287.875 189.939 287.875 185.062C287.875 180.186 291.811 176.25 296.688 176.25H313.725L306.675 167.438C302.21 161.856 295.454 158.625 288.345 158.625H235L176.132 121.201C172.372 118.792 168.025 117.5 163.56 117.5H149.284C144.055 117.5 141.47 123.845 145.171 127.546L176.25 158.625H76.375L54.5788 120.437C53.5213 118.616 51.5825 117.5 49.4675 117.5H35.955C32.43 117.5 29.7275 120.555 30.08 124.021L34.3688 162.209C34.9563 167.496 37.365 172.49 41.125 176.25L55.8125 190.938L39.4213 207.329C35.72 211.03 38.305 217.375 43.5338 217.375H52.2288C56.5175 217.375 60.6888 216.2 64.3313 214.026C76.7459 206.532 67.2607 212.234 112.448 185.121C115.268 183.476 118.851 184.358 120.496 187.178C122.285 190.04 121.212 193.564 118.499 195.226L86.0688 214.673C91.0038 216.435 96.2913 217.375 101.696 217.375H176.25L145.171 248.454C141.47 252.155 144.055 258.5 149.284 258.5H162.855C167.731 258.5 172.49 256.972 176.485 254.094C238.34 209.962 222.848 221.017 247.866 203.158C250.451 201.278 254.152 201.865 256.033 204.509C257.995 207.227 257.266 210.915 254.681 212.734L248.16 217.375H335.756C341.749 217.375 346.625 212.499 346.625 206.506V206.447C346.625 202.335 344.275 198.575 340.632 196.754ZM146.875 182.125C146.875 185.372 144.247 188 141 188C137.753 188 135.125 185.372 135.125 182.125V176.25C135.125 173.003 137.753 170.375 141 170.375C144.247 170.375 146.875 173.003 146.875 176.25V182.125ZM170.375 182.125C170.375 185.372 167.747 188 164.5 188C161.253 188 158.625 185.372 158.625 182.125V176.25C158.625 173.003 161.253 170.375 164.5 170.375C167.747 170.375 170.375 173.003 170.375 176.25V182.125ZM193.875 182.125C193.875 185.372 191.247 188 188 188C184.753 188 182.125 185.372 182.125 182.125V176.25C182.125 173.003 184.753 170.375 188 170.375C191.247 170.375 193.875 173.003 193.875 176.25V182.125ZM217.375 182.125C217.375 185.372 214.747 188 211.5 188C208.253 188 205.625 185.372 205.625 182.125V176.25C205.625 173.003 208.253 170.375 211.5 170.375C214.747 170.375 217.375 173.003 217.375 176.25V182.125ZM240.875 182.125C240.875 185.372 238.247 188 235 188C231.753 188 229.125 185.372 229.125 182.125V176.25C229.125 173.003 231.753 170.375 235 170.375C238.247 170.375 240.875 173.003 240.875 176.25V182.125ZM264.375 182.125C264.375 185.372 261.747 188 258.5 188C255.253 188 252.625 185.372 252.625 182.125V176.25C252.625 173.003 255.253 170.375 258.5 170.375C261.747 170.375 264.375 173.003 264.375 176.25V182.125ZM112.859 101.098L98.2065 116.125C95.9006 118.489 92.1002 118.489 89.7943 116.125L75.142 101.099C69.9889 95.8146 68.9828 87.3311 73.5961 81.5692C78.8433 75.0171 88.2998 74.6639 94 80.5103C99.701 74.6646 109.157 75.0171 114.404 81.5692C119.018 87.3297 118.012 95.8139 112.859 101.098ZM300.859 280.286L286.206 295.312C283.901 297.677 280.1 297.677 277.794 295.312L263.142 280.287C257.989 275.002 256.983 266.519 261.597 260.757C266.844 254.205 276.301 253.851 282.001 259.698C287.702 253.852 297.157 254.205 302.405 260.757C307.018 266.517 306.012 275.001 300.859 280.286Z" fill="#262261"/>
    <path d="M340.632 196.754L334.875 193.875H296.688C291.811 193.875 287.875 189.939 287.875 185.063C287.875 180.186 291.811 176.25 296.688 176.25H313.725L306.675 167.438C302.21 161.856 295.454 158.625 288.345 158.625H235L176.132 121.201C172.372 118.792 168.025 117.5 163.56 117.5H149.284C144.055 117.5 141.47 123.845 145.171 127.546L176.25 158.625H76.375L54.5788 120.438C53.5213 118.616 51.5825 117.5 49.4675 117.5H35.955C32.43 117.5 29.7275 120.555 30.08 124.021L34.3688 162.209C34.9563 167.496 37.365 172.49 41.125 176.25L55.8125 190.938L39.4213 207.329C35.72 211.03 38.305 217.375 43.5338 217.375H52.2288C56.5175 217.375 60.6888 216.2 64.3313 214.026C76.7459 206.532 67.2607 212.234 112.448 185.121C115.268 183.476 118.851 184.358 120.496 187.178C122.285 190.04 121.212 193.564 118.499 195.226L86.0688 214.673C91.0038 216.435 96.2913 217.375 101.696 217.375H176.25L145.171 248.454C141.47 252.155 144.055 258.5 149.284 258.5H162.855C167.731 258.5 172.49 256.973 176.485 254.094C238.34 209.962 222.848 221.017 247.866 203.158C250.451 201.278 254.152 201.865 256.033 204.509C257.995 207.227 257.266 210.915 254.681 212.734L248.16 217.375H335.756C341.749 217.375 346.625 212.499 346.625 206.506V206.448C346.625 202.335 344.275 198.575 340.632 196.754ZM146.875 182.125C146.875 185.372 144.247 188 141 188C137.753 188 135.125 185.372 135.125 182.125V176.25C135.125 173.003 137.753 170.375 141 170.375C144.247 170.375 146.875 173.003 146.875 176.25V182.125ZM170.375 182.125C170.375 185.372 167.747 188 164.5 188C161.253 188 158.625 185.372 158.625 182.125V176.25C158.625 173.003 161.253 170.375 164.5 170.375C167.747 170.375 170.375 173.003 170.375 176.25V182.125ZM193.875 182.125C193.875 185.372 191.247 188 188 188C184.753 188 182.125 185.372 182.125 182.125V176.25C182.125 173.003 184.753 170.375 188 170.375C191.247 170.375 193.875 173.003 193.875 176.25V182.125ZM217.375 182.125C217.375 185.372 214.747 188 211.5 188C208.253 188 205.625 185.372 205.625 182.125V176.25C205.625 173.003 208.253 170.375 211.5 170.375C214.747 170.375 217.375 173.003 217.375 176.25V182.125ZM240.875 182.125C240.875 185.372 238.247 188 235 188C231.753 188 229.125 185.372 229.125 182.125V176.25C229.125 173.003 231.753 170.375 235 170.375C238.247 170.375 240.875 173.003 240.875 176.25V182.125ZM264.375 182.125C264.375 185.372 261.747 188 258.5 188C255.253 188 252.625 185.372 252.625 182.125V176.25C252.625 173.003 255.253 170.375 258.5 170.375C261.747 170.375 264.375 173.003 264.375 176.25V182.125Z" fill="#00BAC1"/>
</svg>
