<svg width="24" height="24" viewBox="0 0 24 24" fill="none" xmlns="http://www.w3.org/2000/svg">
<path d="M2 3.75C2 2.2332 3.2332 1 4.75 1H18.5C20.0168 1 21.25 2.2332 21.25 3.75V20.25C21.25 21.7668 20.0168 23 18.5 23H4.75C3.2332 23 2 21.7668 2 20.25V3.75ZM9.86328 12.9797C8.66445 12.4125 7.78359 11.2867 7.55586 9.9375H9.23594C9.30469 11.2437 9.5668 12.2492 9.86328 12.9797ZM11.6379 13.375H11.625H11.6121C11.509 13.2246 11.3672 12.9926 11.2211 12.666C10.9633 12.0816 10.6883 11.1922 10.6109 9.9375H12.6348C12.5574 11.1922 12.2867 12.0816 12.0246 12.666C11.8785 12.9926 11.7367 13.2246 11.6336 13.375H11.6379ZM13.3867 12.9797C13.6789 12.2449 13.941 11.2437 14.0141 9.9375H15.6941C15.4664 11.2867 14.5855 12.4125 13.3867 12.9797ZM14.0141 8.5625C13.9453 7.25625 13.6832 6.25078 13.3867 5.52031C14.5855 6.0875 15.4664 7.21328 15.6941 8.5625H14.0141ZM11.6121 5.125H11.625H11.6379C11.741 5.27539 11.8828 5.50742 12.0289 5.83398C12.2867 6.41836 12.5617 7.30781 12.6391 8.5625H10.6152C10.6926 7.30781 10.9633 6.41836 11.2254 5.83398C11.3715 5.50742 11.5133 5.27539 11.6164 5.125H11.6121ZM9.86328 5.52031C9.57109 6.25508 9.30898 7.25625 9.23594 8.5625H7.55586C7.78359 7.21328 8.66445 6.0875 9.86328 5.52031ZM17.125 9.25C17.125 7.79131 16.5455 6.39236 15.5141 5.36091C14.4826 4.32946 13.0837 3.75 11.625 3.75C10.1663 3.75 8.76736 4.32946 7.73591 5.36091C6.70446 6.39236 6.125 7.79131 6.125 9.25C6.125 10.7087 6.70446 12.1076 7.73591 13.1391C8.76736 14.1705 10.1663 14.75 11.625 14.75C13.0837 14.75 14.4826 14.1705 15.5141 13.1391C16.5455 12.1076 17.125 10.7087 17.125 9.25ZM6.8125 17.5C6.43437 17.5 6.125 17.8094 6.125 18.1875C6.125 18.5656 6.43437 18.875 6.8125 18.875H16.4375C16.8156 18.875 17.125 18.5656 17.125 18.1875C17.125 17.8094 16.8156 17.5 16.4375 17.5H6.8125Z" fill="#262261"/>
</svg>
