<svg width="24" height="24" viewBox="0 0 24 24" fill="none" xmlns="http://www.w3.org/2000/svg">
<path d="M3.2 5C1.98656 5 1 6.04635 1 7.33333V16.6667C1 17.9536 1.98656 19 3.2 19H20.8C22.0134 19 23 17.9536 23 16.6667V14.9167C23 14.5958 22.7491 14.3406 22.4569 14.2604C21.5047 14.0052 20.8 13.0901 20.8 12C20.8 10.9099 21.5047 9.99479 22.4569 9.73958C22.7525 9.65937 23 9.40781 23 9.08333V7.33333C23 6.04635 22.0134 5 20.8 5H3.2ZM15.3 7.33333C15.3 7.17862 15.3579 7.03025 15.4611 6.92085C15.5642 6.81146 15.7041 6.75 15.85 6.75C15.9959 6.75 16.1358 6.81146 16.2389 6.92085C16.3421 7.03025 16.4 7.17862 16.4 7.33333C16.4 7.48804 16.3421 7.63642 16.2389 7.74581C16.1358 7.85521 15.9959 7.91667 15.85 7.91667C15.7041 7.91667 15.5642 7.85521 15.4611 7.74581C15.3579 7.63642 15.3 7.48804 15.3 7.33333ZM15.3 9.66667C15.3 9.51196 15.3579 9.36358 15.4611 9.25419C15.5642 9.14479 15.7041 9.08333 15.85 9.08333C15.9959 9.08333 16.1358 9.14479 16.2389 9.25419C16.3421 9.36358 16.4 9.51196 16.4 9.66667C16.4 9.82138 16.3421 9.96975 16.2389 10.0791C16.1358 10.1885 15.9959 10.25 15.85 10.25C15.7041 10.25 15.5642 10.1885 15.4611 10.0791C15.3579 9.96975 15.3 9.82138 15.3 9.66667ZM15.85 11.4167C15.9959 11.4167 16.1358 11.4781 16.2389 11.5875C16.3421 11.6969 16.4 11.8453 16.4 12C16.4 12.1547 16.3421 12.3031 16.2389 12.4125C16.1358 12.5219 15.9959 12.5833 15.85 12.5833C15.7041 12.5833 15.5642 12.5219 15.4611 12.4125C15.3579 12.3031 15.3 12.1547 15.3 12C15.3 11.8453 15.3579 11.6969 15.4611 11.5875C15.5642 11.4781 15.7041 11.4167 15.85 11.4167ZM15.3 14.3333C15.3 14.1786 15.3579 14.0302 15.4611 13.9209C15.5642 13.8115 15.7041 13.75 15.85 13.75C15.9959 13.75 16.1358 13.8115 16.2389 13.9209C16.3421 14.0302 16.4 14.1786 16.4 14.3333C16.4 14.488 16.3421 14.6364 16.2389 14.7458C16.1358 14.8552 15.9959 14.9167 15.85 14.9167C15.7041 14.9167 15.5642 14.8552 15.4611 14.7458C15.3579 14.6364 15.3 14.488 15.3 14.3333ZM15.85 16.0833C15.9959 16.0833 16.1358 16.1448 16.2389 16.2542C16.3421 16.3636 16.4 16.512 16.4 16.6667C16.4 16.8214 16.3421 16.9697 16.2389 17.0791C16.1358 17.1885 15.9959 17.25 15.85 17.25C15.7041 17.25 15.5642 17.1885 15.4611 17.0791C15.3579 16.9697 15.3 16.8214 15.3 16.6667C15.3 16.512 15.3579 16.3636 15.4611 16.2542C15.5642 16.1448 15.7041 16.0833 15.85 16.0833ZM7.05 10.8333L6.07031 7.71615C6.01188 7.52656 6.1425 7.33333 6.33156 7.33333H7.40063C7.69281 7.33333 7.96438 7.4974 8.11219 7.76719L9.8 10.8333H11.4122C11.9656 10.8333 12.495 11.0667 12.8834 11.4786C13.155 11.7667 13.155 12.2333 12.8834 12.5177C12.495 12.9333 11.9656 13.1667 11.4122 13.1667H9.8L8.11219 16.2328C7.96438 16.5026 7.69281 16.6667 7.40063 16.6667H6.33156C6.1425 16.6667 6.01188 16.4698 6.07031 16.2839L7.05 13.1667H5.125L4.465 14.1C4.36188 14.2458 4.19688 14.3333 4.025 14.3333H3.55062C3.37188 14.3333 3.24125 14.1547 3.2825 13.9724L3.71563 12.1422C3.73625 12.051 3.73625 11.9526 3.71563 11.8578L3.28594 10.0276C3.24125 9.84531 3.37531 9.66667 3.55406 9.66667H4.025C4.19688 9.66667 4.36188 9.75417 4.465 9.9L5.125 10.8333H7.05Z" fill="#1E1B4D"/>
</svg>
