<svg width="24" height="24" viewBox="0 0 24 24" fill="none" xmlns="http://www.w3.org/2000/svg">
<path d="M1 4.5C1 3.12109 2.12109 2 3.5 2H13.5C14.8789 2 16 3.12109 16 4.5V9.75781C13.1133 10.5742 11 13.2266 11 16.375C11 18.6836 12.1367 20.7227 13.8789 21.9727C13.7539 21.9922 13.6289 22 13.5 22H3.5C2.12109 22 1 20.8789 1 19.5V4.5ZM3.5 7.625C3.5 7.96875 3.78125 8.25 4.125 8.25H12.875C13.2188 8.25 13.5 7.96875 13.5 7.625C13.5 7.28125 13.2188 7 12.875 7H4.125C3.78125 7 3.5 7.28125 3.5 7.625ZM4.125 10.75C3.78125 10.75 3.5 11.0312 3.5 11.375C3.5 11.7188 3.78125 12 4.125 12H10.375C10.7188 12 11 11.7188 11 11.375C11 11.0312 10.7188 10.75 10.375 10.75H4.125ZM4.125 14.5C3.78125 14.5 3.5 14.7812 3.5 15.125C3.5 15.4688 3.78125 15.75 4.125 15.75H7.875C8.21875 15.75 8.5 15.4688 8.5 15.125C8.5 14.7812 8.21875 14.5 7.875 14.5H4.125ZM17.875 10.75C19.3668 10.75 20.7976 11.3426 21.8525 12.3975C22.9074 13.4524 23.5 14.8832 23.5 16.375C23.5 17.8668 22.9074 19.2976 21.8525 20.3525C20.7976 21.4074 19.3668 22 17.875 22C16.3832 22 14.9524 21.4074 13.8975 20.3525C12.8426 19.2976 12.25 17.8668 12.25 16.375C12.25 14.8832 12.8426 13.4524 13.8975 12.3975C14.9524 11.3426 16.3832 10.75 17.875 10.75ZM17.875 14.5C18.1236 14.5 18.3621 14.4012 18.5379 14.2254C18.7137 14.0496 18.8125 13.8111 18.8125 13.5625C18.8125 13.3139 18.7137 13.0754 18.5379 12.8996C18.3621 12.7238 18.1236 12.625 17.875 12.625C17.6264 12.625 17.3879 12.7238 17.2121 12.8996C17.0363 13.0754 16.9375 13.3139 16.9375 13.5625C16.9375 13.8111 17.0363 14.0496 17.2121 14.2254C17.3879 14.4012 17.6264 14.5 17.875 14.5ZM16.625 16.375C16.625 16.7188 16.9062 17 17.25 17V18.875C16.9062 18.875 16.625 19.1562 16.625 19.5C16.625 19.8438 16.9062 20.125 17.25 20.125H17.875H18.5C18.8438 20.125 19.125 19.8438 19.125 19.5C19.125 19.1562 18.8438 18.875 18.5 18.875V16.375C18.5 16.0312 18.2188 15.75 17.875 15.75H17.25C16.9062 15.75 16.625 16.0312 16.625 16.375Z" fill="#262261"/>
</svg>
