<svg width="25" height="24" viewBox="0 0 25 24" fill="none" xmlns="http://www.w3.org/2000/svg">
    <path d="M13.6969 2.70305C13.4761 2.27341 13.0095 2 12.497 2C11.9846 2 11.5221 2.27341 11.2971 2.70305L8.61826 7.87044L2.63556 8.69847C2.13562 8.76877 1.719 9.09686 1.56484 9.54603C1.41069 9.9952 1.53568 10.4912 1.89398 10.8232L6.23518 14.8501L5.21029 20.5409C5.12696 21.0096 5.33527 21.4861 5.74773 21.7634C6.16019 22.0407 6.70596 22.0759 7.15591 21.8532L12.5012 19.1778L17.8464 21.8532C18.2964 22.0759 18.8422 22.0446 19.2546 21.7634C19.6671 21.4822 19.8754 21.0096 19.7921 20.5409L18.763 14.8501L23.1042 10.8232C23.4625 10.4912 23.5917 9.9952 23.4333 9.54603C23.275 9.09686 22.8626 8.76877 22.3626 8.69847L16.3758 7.87044L13.6969 2.70305Z" fill="#262261"/>
</svg>
