<svg viewBox="0 0 24 25" fill="none" xmlns="http://www.w3.org/2000/svg">
<g id="Icon/Users">
<path id="Vector" d="M5.95 3.33911C6.67935 3.33911 7.37882 3.62884 7.89454 4.14457C8.41027 4.66029 8.7 5.35977 8.7 6.08911C8.7 6.81846 8.41027 7.51793 7.89454 8.03366C7.37882 8.54938 6.67935 8.83911 5.95 8.83911C5.22065 8.83911 4.52118 8.54938 4.00546 8.03366C3.48973 7.51793 3.2 6.81846 3.2 6.08911C3.2 5.35977 3.48973 4.66029 4.00546 4.14457C4.52118 3.62884 5.22065 3.33911 5.95 3.33911ZM18.6 3.33911C19.3293 3.33911 20.0288 3.62884 20.5445 4.14457C21.0603 4.66029 21.35 5.35977 21.35 6.08911C21.35 6.81846 21.0603 7.51793 20.5445 8.03366C20.0288 8.54938 19.3293 8.83911 18.6 8.83911C17.8707 8.83911 17.1712 8.54938 16.6555 8.03366C16.1397 7.51793 15.85 6.81846 15.85 6.08911C15.85 5.35977 16.1397 4.66029 16.6555 4.14457C17.1712 3.62884 17.8707 3.33911 18.6 3.33911ZM1 13.6069C1 11.5822 2.64312 9.93911 4.66781 9.93911H6.13562C6.68219 9.93911 7.20125 10.0594 7.66875 10.2725C7.62406 10.52 7.60344 10.7779 7.60344 11.0391C7.60344 12.3522 8.18094 13.5313 9.09188 14.3391C9.085 14.3391 9.07812 14.3391 9.06781 14.3391H1.73219C1.33 14.3391 1 14.0091 1 13.6069ZM14.9322 14.3391C14.9253 14.3391 14.9184 14.3391 14.9081 14.3391C15.8225 13.5313 16.3966 12.3522 16.3966 11.0391C16.3966 10.7779 16.3725 10.5235 16.3313 10.2725C16.7987 10.056 17.3178 9.93911 17.8644 9.93911H19.3322C21.3569 9.93911 23 11.5822 23 13.6069C23 14.0125 22.67 14.3391 22.2678 14.3391H14.9322ZM8.7 11.0391C8.7 10.1639 9.04768 9.32453 9.66655 8.70566C10.2854 8.08679 11.1248 7.73911 12 7.73911C12.8752 7.73911 13.7146 8.08679 14.3335 8.70566C14.9523 9.32453 15.3 10.1639 15.3 11.0391C15.3 11.9143 14.9523 12.7537 14.3335 13.3726C13.7146 13.9914 12.8752 14.3391 12 14.3391C11.1248 14.3391 10.2854 13.9914 9.66655 13.3726C9.04768 12.7537 8.7 11.9143 8.7 11.0391ZM5.4 20.0213C5.4 17.4913 7.45219 15.4391 9.98219 15.4391H14.0178C16.5478 15.4391 18.6 17.4913 18.6 20.0213C18.6 20.5266 18.1909 20.9391 17.6822 20.9391H6.31781C5.8125 20.9391 5.4 20.53 5.4 20.0213Z" />
</g>
</svg>
